%TF.GenerationSoftware,KiCad,Pcbnew,10.0.6*%
%TF.CreationDate,2026-10-01T17:26:23+07:00*%
%TF.ProjectId,samsung-rev1.0,73616d73-756e-4672-9d72-6576312e302e,rev?*%
%TF.SameCoordinates,Original*%
%TF.FileFunction,Legend,Top*%
%TF.FilePolarity,Positive*%
%FSLAX46Y46*%
G04 Gerber Fmt 4.6, Leading zero omitted, Abs format (unit mm)*
G04 Created by KiCad (PCBNEW 10.0.6) date 2026-10-01 17:26:23*
%MOMM*%
%LPD*%
G01*
G04 APERTURE LIST*
G04 Aperture macros list*
%AMRoundRect*
0 Rectangle with rounded corners*
0 $1 Rounding radius*
0 $2 $3 $4 $5 $6 $7 $8 $9 X,Y pos of 4 corners*
0 Add a 4 corners polygon primitive as box body*
4,1,4,$2,$3,$4,$5,$6,$7,$8,$9,$2,$3,0*
0 Add four circle primitives for the rounded corners*
1,1,$1+$1,$2,$3*
1,1,$1+$1,$4,$5*
1,1,$1+$1,$6,$7*
1,1,$1+$1,$8,$9*
0 Add four rect primitives between the rounded corners*
20,1,$1+$1,$2,$3,$4,$5,0*
20,1,$1+$1,$4,$5,$6,$7,0*
20,1,$1+$1,$6,$7,$8,$9,0*
20,1,$1+$1,$8,$9,$2,$3,0*%
G04 Aperture macros list end*
%ADD10C,0.150000*%
%ADD11C,0.120000*%
%ADD12C,2.000000*%
%ADD13RoundRect,0.250000X0.450000X-0.262500X0.450000X0.262500X-0.450000X0.262500X-0.450000X-0.262500X0*%
%ADD14R,1.000000X1.500000*%
%ADD15R,1.500000X0.900000*%
%ADD16R,0.900000X1.500000*%
%ADD17C,0.600000*%
%ADD18R,3.900000X3.900000*%
%ADD19RoundRect,0.250000X-0.250000X-0.475000X0.250000X-0.475000X0.250000X0.475000X-0.250000X0.475000X0*%
%ADD20RoundRect,0.375000X-0.625000X-0.375000X0.625000X-0.375000X0.625000X0.375000X-0.625000X0.375000X0*%
%ADD21RoundRect,0.500000X-0.500000X-1.400000X0.500000X-1.400000X0.500000X1.400000X-0.500000X1.400000X0*%
%ADD22RoundRect,0.250000X0.475000X-0.250000X0.475000X0.250000X-0.475000X0.250000X-0.475000X-0.250000X0*%
%ADD23RoundRect,0.250000X-0.262500X-0.450000X0.262500X-0.450000X0.262500X0.450000X-0.262500X0.450000X0*%
%ADD24RoundRect,0.250000X-0.785000X-0.945000X0.785000X-0.945000X0.785000X0.945000X-0.785000X0.945000X0*%
%ADD25RoundRect,0.150000X-0.825000X-0.150000X0.825000X-0.150000X0.825000X0.150000X-0.825000X0.150000X0*%
G04 APERTURE END LIST*
D10*
X1847619Y-46862295D02*
X1466667Y-46862295D01*
X1466667Y-46862295D02*
X1428571Y-47243247D01*
X1428571Y-47243247D02*
X1466667Y-47205152D01*
X1466667Y-47205152D02*
X1542857Y-47167057D01*
X1542857Y-47167057D02*
X1733333Y-47167057D01*
X1733333Y-47167057D02*
X1809524Y-47205152D01*
X1809524Y-47205152D02*
X1847619Y-47243247D01*
X1847619Y-47243247D02*
X1885714Y-47319438D01*
X1885714Y-47319438D02*
X1885714Y-47509914D01*
X1885714Y-47509914D02*
X1847619Y-47586104D01*
X1847619Y-47586104D02*
X1809524Y-47624200D01*
X1809524Y-47624200D02*
X1733333Y-47662295D01*
X1733333Y-47662295D02*
X1542857Y-47662295D01*
X1542857Y-47662295D02*
X1466667Y-47624200D01*
X1466667Y-47624200D02*
X1428571Y-47586104D01*
X2114286Y-46862295D02*
X2380953Y-47662295D01*
X2380953Y-47662295D02*
X2647619Y-46862295D01*
X5009523Y-46900390D02*
X4933333Y-46862295D01*
X4933333Y-46862295D02*
X4819047Y-46862295D01*
X4819047Y-46862295D02*
X4704761Y-46900390D01*
X4704761Y-46900390D02*
X4628571Y-46976580D01*
X4628571Y-46976580D02*
X4590476Y-47052771D01*
X4590476Y-47052771D02*
X4552380Y-47205152D01*
X4552380Y-47205152D02*
X4552380Y-47319438D01*
X4552380Y-47319438D02*
X4590476Y-47471819D01*
X4590476Y-47471819D02*
X4628571Y-47548009D01*
X4628571Y-47548009D02*
X4704761Y-47624200D01*
X4704761Y-47624200D02*
X4819047Y-47662295D01*
X4819047Y-47662295D02*
X4895238Y-47662295D01*
X4895238Y-47662295D02*
X5009523Y-47624200D01*
X5009523Y-47624200D02*
X5047619Y-47586104D01*
X5047619Y-47586104D02*
X5047619Y-47319438D01*
X5047619Y-47319438D02*
X4895238Y-47319438D01*
X4780953Y-43362295D02*
X4780953Y-42562295D01*
X4780953Y-42562295D02*
X5047619Y-43133723D01*
X5047619Y-43133723D02*
X5314286Y-42562295D01*
X5314286Y-42562295D02*
X5314286Y-43362295D01*
X5657143Y-43133723D02*
X6038096Y-43133723D01*
X5580953Y-43362295D02*
X5847620Y-42562295D01*
X5847620Y-42562295D02*
X6114286Y-43362295D01*
X6380953Y-43362295D02*
X6380953Y-42562295D01*
X6761905Y-43362295D02*
X6761905Y-42562295D01*
X6761905Y-42562295D02*
X7219048Y-43362295D01*
X7219048Y-43362295D02*
X7219048Y-42562295D01*
X6990476Y-46862295D02*
X7447619Y-46862295D01*
X7219047Y-47662295D02*
X7219047Y-46862295D01*
X7638095Y-46862295D02*
X8171429Y-47662295D01*
X8171429Y-46862295D02*
X7638095Y-47662295D01*
X10266667Y-47662295D02*
X10000000Y-47281342D01*
X9809524Y-47662295D02*
X9809524Y-46862295D01*
X9809524Y-46862295D02*
X10114286Y-46862295D01*
X10114286Y-46862295D02*
X10190476Y-46900390D01*
X10190476Y-46900390D02*
X10228571Y-46938485D01*
X10228571Y-46938485D02*
X10266667Y-47014676D01*
X10266667Y-47014676D02*
X10266667Y-47128961D01*
X10266667Y-47128961D02*
X10228571Y-47205152D01*
X10228571Y-47205152D02*
X10190476Y-47243247D01*
X10190476Y-47243247D02*
X10114286Y-47281342D01*
X10114286Y-47281342D02*
X9809524Y-47281342D01*
X10533333Y-46862295D02*
X11066667Y-47662295D01*
X11066667Y-46862295D02*
X10533333Y-47662295D01*
X12847619Y-46862295D02*
X12466667Y-46862295D01*
X12466667Y-46862295D02*
X12428571Y-47243247D01*
X12428571Y-47243247D02*
X12466667Y-47205152D01*
X12466667Y-47205152D02*
X12542857Y-47167057D01*
X12542857Y-47167057D02*
X12733333Y-47167057D01*
X12733333Y-47167057D02*
X12809524Y-47205152D01*
X12809524Y-47205152D02*
X12847619Y-47243247D01*
X12847619Y-47243247D02*
X12885714Y-47319438D01*
X12885714Y-47319438D02*
X12885714Y-47509914D01*
X12885714Y-47509914D02*
X12847619Y-47586104D01*
X12847619Y-47586104D02*
X12809524Y-47624200D01*
X12809524Y-47624200D02*
X12733333Y-47662295D01*
X12733333Y-47662295D02*
X12542857Y-47662295D01*
X12542857Y-47662295D02*
X12466667Y-47624200D01*
X12466667Y-47624200D02*
X12428571Y-47586104D01*
X13114286Y-46862295D02*
X13380953Y-47662295D01*
X13380953Y-47662295D02*
X13647619Y-46862295D01*
X16009523Y-46900390D02*
X15933333Y-46862295D01*
X15933333Y-46862295D02*
X15819047Y-46862295D01*
X15819047Y-46862295D02*
X15704761Y-46900390D01*
X15704761Y-46900390D02*
X15628571Y-46976580D01*
X15628571Y-46976580D02*
X15590476Y-47052771D01*
X15590476Y-47052771D02*
X15552380Y-47205152D01*
X15552380Y-47205152D02*
X15552380Y-47319438D01*
X15552380Y-47319438D02*
X15590476Y-47471819D01*
X15590476Y-47471819D02*
X15628571Y-47548009D01*
X15628571Y-47548009D02*
X15704761Y-47624200D01*
X15704761Y-47624200D02*
X15819047Y-47662295D01*
X15819047Y-47662295D02*
X15895238Y-47662295D01*
X15895238Y-47662295D02*
X16009523Y-47624200D01*
X16009523Y-47624200D02*
X16047619Y-47586104D01*
X16047619Y-47586104D02*
X16047619Y-47319438D01*
X16047619Y-47319438D02*
X15895238Y-47319438D01*
X14809524Y-43362295D02*
X14809524Y-42562295D01*
X14809524Y-42562295D02*
X15000000Y-42562295D01*
X15000000Y-42562295D02*
X15114286Y-42600390D01*
X15114286Y-42600390D02*
X15190476Y-42676580D01*
X15190476Y-42676580D02*
X15228571Y-42752771D01*
X15228571Y-42752771D02*
X15266667Y-42905152D01*
X15266667Y-42905152D02*
X15266667Y-43019438D01*
X15266667Y-43019438D02*
X15228571Y-43171819D01*
X15228571Y-43171819D02*
X15190476Y-43248009D01*
X15190476Y-43248009D02*
X15114286Y-43324200D01*
X15114286Y-43324200D02*
X15000000Y-43362295D01*
X15000000Y-43362295D02*
X14809524Y-43362295D01*
X15609524Y-43362295D02*
X15609524Y-42562295D01*
X15952380Y-43324200D02*
X16066666Y-43362295D01*
X16066666Y-43362295D02*
X16257142Y-43362295D01*
X16257142Y-43362295D02*
X16333333Y-43324200D01*
X16333333Y-43324200D02*
X16371428Y-43286104D01*
X16371428Y-43286104D02*
X16409523Y-43209914D01*
X16409523Y-43209914D02*
X16409523Y-43133723D01*
X16409523Y-43133723D02*
X16371428Y-43057533D01*
X16371428Y-43057533D02*
X16333333Y-43019438D01*
X16333333Y-43019438D02*
X16257142Y-42981342D01*
X16257142Y-42981342D02*
X16104761Y-42943247D01*
X16104761Y-42943247D02*
X16028571Y-42905152D01*
X16028571Y-42905152D02*
X15990476Y-42867057D01*
X15990476Y-42867057D02*
X15952380Y-42790866D01*
X15952380Y-42790866D02*
X15952380Y-42714676D01*
X15952380Y-42714676D02*
X15990476Y-42638485D01*
X15990476Y-42638485D02*
X16028571Y-42600390D01*
X16028571Y-42600390D02*
X16104761Y-42562295D01*
X16104761Y-42562295D02*
X16295238Y-42562295D01*
X16295238Y-42562295D02*
X16409523Y-42600390D01*
X16752381Y-43362295D02*
X16752381Y-42562295D01*
X16752381Y-42562295D02*
X17057143Y-42562295D01*
X17057143Y-42562295D02*
X17133333Y-42600390D01*
X17133333Y-42600390D02*
X17171428Y-42638485D01*
X17171428Y-42638485D02*
X17209524Y-42714676D01*
X17209524Y-42714676D02*
X17209524Y-42828961D01*
X17209524Y-42828961D02*
X17171428Y-42905152D01*
X17171428Y-42905152D02*
X17133333Y-42943247D01*
X17133333Y-42943247D02*
X17057143Y-42981342D01*
X17057143Y-42981342D02*
X16752381Y-42981342D01*
X17933333Y-43362295D02*
X17552381Y-43362295D01*
X17552381Y-43362295D02*
X17552381Y-42562295D01*
X18161904Y-43133723D02*
X18542857Y-43133723D01*
X18085714Y-43362295D02*
X18352381Y-42562295D01*
X18352381Y-42562295D02*
X18619047Y-43362295D01*
X19038095Y-42981342D02*
X19038095Y-43362295D01*
X18771428Y-42562295D02*
X19038095Y-42981342D01*
X19038095Y-42981342D02*
X19304761Y-42562295D01*
X17990476Y-46862295D02*
X18447619Y-46862295D01*
X18219047Y-47662295D02*
X18219047Y-46862295D01*
X18638095Y-46862295D02*
X19171429Y-47662295D01*
X19171429Y-46862295D02*
X18638095Y-47662295D01*
X21266667Y-47662295D02*
X21000000Y-47281342D01*
X20809524Y-47662295D02*
X20809524Y-46862295D01*
X20809524Y-46862295D02*
X21114286Y-46862295D01*
X21114286Y-46862295D02*
X21190476Y-46900390D01*
X21190476Y-46900390D02*
X21228571Y-46938485D01*
X21228571Y-46938485D02*
X21266667Y-47014676D01*
X21266667Y-47014676D02*
X21266667Y-47128961D01*
X21266667Y-47128961D02*
X21228571Y-47205152D01*
X21228571Y-47205152D02*
X21190476Y-47243247D01*
X21190476Y-47243247D02*
X21114286Y-47281342D01*
X21114286Y-47281342D02*
X20809524Y-47281342D01*
X21533333Y-46862295D02*
X22066667Y-47662295D01*
X22066667Y-46862295D02*
X21533333Y-47662295D01*
X24557142Y-47243247D02*
X24671428Y-47281342D01*
X24671428Y-47281342D02*
X24709523Y-47319438D01*
X24709523Y-47319438D02*
X24747619Y-47395628D01*
X24747619Y-47395628D02*
X24747619Y-47509914D01*
X24747619Y-47509914D02*
X24709523Y-47586104D01*
X24709523Y-47586104D02*
X24671428Y-47624200D01*
X24671428Y-47624200D02*
X24595238Y-47662295D01*
X24595238Y-47662295D02*
X24290476Y-47662295D01*
X24290476Y-47662295D02*
X24290476Y-46862295D01*
X24290476Y-46862295D02*
X24557142Y-46862295D01*
X24557142Y-46862295D02*
X24633333Y-46900390D01*
X24633333Y-46900390D02*
X24671428Y-46938485D01*
X24671428Y-46938485D02*
X24709523Y-47014676D01*
X24709523Y-47014676D02*
X24709523Y-47090866D01*
X24709523Y-47090866D02*
X24671428Y-47167057D01*
X24671428Y-47167057D02*
X24633333Y-47205152D01*
X24633333Y-47205152D02*
X24557142Y-47243247D01*
X24557142Y-47243247D02*
X24290476Y-47243247D01*
X26509523Y-7562295D02*
X26966666Y-7562295D01*
X26738094Y-8362295D02*
X26738094Y-7562295D01*
X27157142Y-7562295D02*
X27690476Y-8362295D01*
X27690476Y-7562295D02*
X27157142Y-8362295D01*
X28147619Y-7562295D02*
X28223809Y-7562295D01*
X28223809Y-7562295D02*
X28300000Y-7600390D01*
X28300000Y-7600390D02*
X28338095Y-7638485D01*
X28338095Y-7638485D02*
X28376190Y-7714676D01*
X28376190Y-7714676D02*
X28414285Y-7867057D01*
X28414285Y-7867057D02*
X28414285Y-8057533D01*
X28414285Y-8057533D02*
X28376190Y-8209914D01*
X28376190Y-8209914D02*
X28338095Y-8286104D01*
X28338095Y-8286104D02*
X28300000Y-8324200D01*
X28300000Y-8324200D02*
X28223809Y-8362295D01*
X28223809Y-8362295D02*
X28147619Y-8362295D01*
X28147619Y-8362295D02*
X28071428Y-8324200D01*
X28071428Y-8324200D02*
X28033333Y-8286104D01*
X28033333Y-8286104D02*
X27995238Y-8209914D01*
X27995238Y-8209914D02*
X27957142Y-8057533D01*
X27957142Y-8057533D02*
X27957142Y-7867057D01*
X27957142Y-7867057D02*
X27995238Y-7714676D01*
X27995238Y-7714676D02*
X28033333Y-7638485D01*
X28033333Y-7638485D02*
X28071428Y-7600390D01*
X28071428Y-7600390D02*
X28147619Y-7562295D01*
X26985714Y-12362295D02*
X26719047Y-11981342D01*
X26528571Y-12362295D02*
X26528571Y-11562295D01*
X26528571Y-11562295D02*
X26833333Y-11562295D01*
X26833333Y-11562295D02*
X26909523Y-11600390D01*
X26909523Y-11600390D02*
X26947618Y-11638485D01*
X26947618Y-11638485D02*
X26985714Y-11714676D01*
X26985714Y-11714676D02*
X26985714Y-11828961D01*
X26985714Y-11828961D02*
X26947618Y-11905152D01*
X26947618Y-11905152D02*
X26909523Y-11943247D01*
X26909523Y-11943247D02*
X26833333Y-11981342D01*
X26833333Y-11981342D02*
X26528571Y-11981342D01*
X27252380Y-11562295D02*
X27785714Y-12362295D01*
X27785714Y-11562295D02*
X27252380Y-12362295D01*
X28242857Y-11562295D02*
X28319047Y-11562295D01*
X28319047Y-11562295D02*
X28395238Y-11600390D01*
X28395238Y-11600390D02*
X28433333Y-11638485D01*
X28433333Y-11638485D02*
X28471428Y-11714676D01*
X28471428Y-11714676D02*
X28509523Y-11867057D01*
X28509523Y-11867057D02*
X28509523Y-12057533D01*
X28509523Y-12057533D02*
X28471428Y-12209914D01*
X28471428Y-12209914D02*
X28433333Y-12286104D01*
X28433333Y-12286104D02*
X28395238Y-12324200D01*
X28395238Y-12324200D02*
X28319047Y-12362295D01*
X28319047Y-12362295D02*
X28242857Y-12362295D01*
X28242857Y-12362295D02*
X28166666Y-12324200D01*
X28166666Y-12324200D02*
X28128571Y-12286104D01*
X28128571Y-12286104D02*
X28090476Y-12209914D01*
X28090476Y-12209914D02*
X28052380Y-12057533D01*
X28052380Y-12057533D02*
X28052380Y-11867057D01*
X28052380Y-11867057D02*
X28090476Y-11714676D01*
X28090476Y-11714676D02*
X28128571Y-11638485D01*
X28128571Y-11638485D02*
X28166666Y-11600390D01*
X28166666Y-11600390D02*
X28242857Y-11562295D01*
X26890476Y-15600390D02*
X26814286Y-15562295D01*
X26814286Y-15562295D02*
X26700000Y-15562295D01*
X26700000Y-15562295D02*
X26585714Y-15600390D01*
X26585714Y-15600390D02*
X26509524Y-15676580D01*
X26509524Y-15676580D02*
X26471429Y-15752771D01*
X26471429Y-15752771D02*
X26433333Y-15905152D01*
X26433333Y-15905152D02*
X26433333Y-16019438D01*
X26433333Y-16019438D02*
X26471429Y-16171819D01*
X26471429Y-16171819D02*
X26509524Y-16248009D01*
X26509524Y-16248009D02*
X26585714Y-16324200D01*
X26585714Y-16324200D02*
X26700000Y-16362295D01*
X26700000Y-16362295D02*
X26776191Y-16362295D01*
X26776191Y-16362295D02*
X26890476Y-16324200D01*
X26890476Y-16324200D02*
X26928572Y-16286104D01*
X26928572Y-16286104D02*
X26928572Y-16019438D01*
X26928572Y-16019438D02*
X26776191Y-16019438D01*
X27271429Y-16362295D02*
X27271429Y-15562295D01*
X27271429Y-15562295D02*
X27728572Y-16362295D01*
X27728572Y-16362295D02*
X27728572Y-15562295D01*
X28109524Y-16362295D02*
X28109524Y-15562295D01*
X28109524Y-15562295D02*
X28300000Y-15562295D01*
X28300000Y-15562295D02*
X28414286Y-15600390D01*
X28414286Y-15600390D02*
X28490476Y-15676580D01*
X28490476Y-15676580D02*
X28528571Y-15752771D01*
X28528571Y-15752771D02*
X28566667Y-15905152D01*
X28566667Y-15905152D02*
X28566667Y-16019438D01*
X28566667Y-16019438D02*
X28528571Y-16171819D01*
X28528571Y-16171819D02*
X28490476Y-16248009D01*
X28490476Y-16248009D02*
X28414286Y-16324200D01*
X28414286Y-16324200D02*
X28300000Y-16362295D01*
X28300000Y-16362295D02*
X28109524Y-16362295D01*
X27809523Y-43633723D02*
X28190476Y-43633723D01*
X27733333Y-43862295D02*
X28000000Y-43062295D01*
X28000000Y-43062295D02*
X28266666Y-43862295D01*
%TO.C,R3*%
D11*
X1765000Y-25727064D02*
X1765000Y-25272936D01*
X3235000Y-25727064D02*
X3235000Y-25272936D01*
%TO.C,JP1*%
X23600000Y-42000000D02*
X26400000Y-42000000D01*
X23600000Y-44000000D02*
X23600000Y-42000000D01*
X26400000Y-42000000D02*
X26400000Y-44000000D01*
X26400000Y-44000000D02*
X23600000Y-44000000D01*
%TO.C,U1*%
X5800000Y-850000D02*
X5800000Y-7050000D01*
X5800000Y-850000D02*
X24200000Y-850000D01*
X5800000Y-25700000D02*
X5800000Y-26700000D01*
X5800000Y-26700000D02*
X7300000Y-26700000D01*
X24200000Y-850000D02*
X24200000Y-7050000D01*
X24200000Y-26700000D02*
X22700000Y-26700000D01*
X24200000Y-26700000D02*
X24200000Y-25700000D01*
X5800000Y-7725000D02*
X5300000Y-7725000D01*
X5800000Y-7225000D01*
X5800000Y-7725000D01*
G36*
X5800000Y-7725000D02*
G01*
X5300000Y-7725000D01*
X5800000Y-7225000D01*
X5800000Y-7725000D01*
G37*
%TO.C,C7*%
X2238748Y-13265000D02*
X2761252Y-13265000D01*
X2238748Y-14735000D02*
X2761252Y-14735000D01*
%TO.C,U2*%
X6150000Y-29590000D02*
X9910000Y-29590000D01*
X6150000Y-36410000D02*
X9910000Y-36410000D01*
X9910000Y-29590000D02*
X9910000Y-30850000D01*
X9910000Y-36410000D02*
X9910000Y-35150000D01*
X4870000Y-29690000D02*
X4630000Y-29360000D01*
X5110000Y-29360000D01*
X4870000Y-29690000D01*
G36*
X4870000Y-29690000D02*
G01*
X4630000Y-29360000D01*
X5110000Y-29360000D01*
X4870000Y-29690000D01*
G37*
%TO.C,C2*%
X1765000Y-33261252D02*
X1765000Y-32738748D01*
X3235000Y-33261252D02*
X3235000Y-32738748D01*
%TO.C,R6*%
X19272936Y-37265000D02*
X19727064Y-37265000D01*
X19272936Y-38735000D02*
X19727064Y-38735000D01*
%TO.C,R1*%
X1765000Y-11227064D02*
X1765000Y-10772936D01*
X3235000Y-11227064D02*
X3235000Y-10772936D01*
%TO.C,C3*%
X9235000Y-38290000D02*
X9235000Y-41710000D01*
X9235000Y-41710000D02*
X16000000Y-41710000D01*
X16000000Y-38290000D02*
X9235000Y-38290000D01*
%TO.C,R2*%
X1765000Y-21727064D02*
X1765000Y-21272936D01*
X3235000Y-21727064D02*
X3235000Y-21272936D01*
%TO.C,R8*%
X1765000Y-17727064D02*
X1765000Y-17272936D01*
X3235000Y-17727064D02*
X3235000Y-17272936D01*
%TO.C,C5*%
X2238748Y-7265000D02*
X2761252Y-7265000D01*
X2238748Y-8735000D02*
X2761252Y-8735000D01*
%TO.C,R4*%
X16265000Y-32227064D02*
X16265000Y-31772936D01*
X17735000Y-32227064D02*
X17735000Y-31772936D01*
%TO.C,U3*%
X20940000Y-30440000D02*
X25060000Y-30440000D01*
X20940000Y-30535000D02*
X20940000Y-30440000D01*
X20940000Y-35560000D02*
X20940000Y-35465000D01*
X25060000Y-30440000D02*
X25060000Y-30535000D01*
X25060000Y-35465000D02*
X25060000Y-35560000D01*
X25060000Y-35560000D02*
X20940000Y-35560000D01*
X20400000Y-30530000D02*
X20160000Y-30200000D01*
X20640000Y-30200000D01*
X20400000Y-30530000D01*
G36*
X20400000Y-30530000D02*
G01*
X20160000Y-30200000D01*
X20640000Y-30200000D01*
X20400000Y-30530000D01*
G37*
%TO.C,R7*%
X25272936Y-39265000D02*
X25727064Y-39265000D01*
X25272936Y-40735000D02*
X25727064Y-40735000D01*
%TO.C,C1*%
X1235000Y-38290000D02*
X1235000Y-41710000D01*
X1235000Y-41710000D02*
X8000000Y-41710000D01*
X8000000Y-38290000D02*
X1235000Y-38290000D01*
%TD*%
%LPC*%
%TO.C,JP1*%
G36*
X24850000Y-42250000D02*
G01*
X25150000Y-42250000D01*
X25150000Y-43750000D01*
X24850000Y-43750000D01*
X24850000Y-42250000D01*
G37*
%TD*%
D12*
%TO.C,TP2*%
X27500000Y-14000000D03*
%TD*%
%TO.C,TP13*%
X13000000Y-45500000D03*
%TD*%
D13*
%TO.C,R3*%
X2500000Y-26412500D03*
X2500000Y-24587500D03*
%TD*%
D14*
%TO.C,JP1*%
X24350000Y-43000000D03*
X25650000Y-43000000D03*
%TD*%
D15*
%TO.C,U1*%
X6250000Y-8490000D03*
X6250000Y-9760000D03*
X6250000Y-11030000D03*
X6250000Y-12300000D03*
X6250000Y-13570000D03*
X6250000Y-14840000D03*
X6250000Y-16110000D03*
X6250000Y-17380000D03*
X6250000Y-18650000D03*
X6250000Y-19920000D03*
X6250000Y-21190000D03*
X6250000Y-22460000D03*
X6250000Y-23730000D03*
X6250000Y-25000000D03*
D16*
X8015000Y-26250000D03*
X9285000Y-26250000D03*
X10555000Y-26250000D03*
X11825000Y-26250000D03*
X13095000Y-26250000D03*
X14365000Y-26250000D03*
X15635000Y-26250000D03*
X16905000Y-26250000D03*
X18175000Y-26250000D03*
X19445000Y-26250000D03*
X20715000Y-26250000D03*
X21985000Y-26250000D03*
D15*
X23750000Y-25000000D03*
X23750000Y-23730000D03*
X23750000Y-22460000D03*
X23750000Y-21190000D03*
X23750000Y-19920000D03*
X23750000Y-18650000D03*
X23750000Y-17380000D03*
X23750000Y-16110000D03*
X23750000Y-14840000D03*
X23750000Y-13570000D03*
X23750000Y-12300000D03*
X23750000Y-11030000D03*
X23750000Y-9760000D03*
X23750000Y-8490000D03*
D17*
X12100000Y-15510000D03*
X12100000Y-16910000D03*
X12800000Y-14810000D03*
X12800000Y-16210000D03*
X12800000Y-17610000D03*
X13500000Y-15510000D03*
D18*
X13500000Y-16210000D03*
D17*
X13500000Y-16910000D03*
X14200000Y-14810000D03*
X14200000Y-16210000D03*
X14200000Y-17610000D03*
X14900000Y-15510000D03*
X14900000Y-16910000D03*
%TD*%
D19*
%TO.C,C7*%
X1550000Y-14000000D03*
X3450000Y-14000000D03*
%TD*%
D20*
%TO.C,U2*%
X4850000Y-30700000D03*
X4850000Y-33000000D03*
D21*
X11150000Y-33000000D03*
D20*
X4850000Y-35300000D03*
%TD*%
D22*
%TO.C,C2*%
X2500000Y-33950000D03*
X2500000Y-32050000D03*
%TD*%
D12*
%TO.C,TP12*%
X10400000Y-45500000D03*
%TD*%
%TO.C,TP9*%
X2000000Y-45500000D03*
%TD*%
%TO.C,TP14*%
X15800000Y-45500000D03*
%TD*%
D23*
%TO.C,R6*%
X18587500Y-38000000D03*
X20412500Y-38000000D03*
%TD*%
D13*
%TO.C,R1*%
X2500000Y-11912500D03*
X2500000Y-10087500D03*
%TD*%
D24*
%TO.C,C3*%
X10530000Y-40000000D03*
X15470000Y-40000000D03*
%TD*%
D12*
%TO.C,TP10*%
X4800000Y-45500000D03*
%TD*%
D13*
%TO.C,R2*%
X2500000Y-22412500D03*
X2500000Y-20587500D03*
%TD*%
%TO.C,R8*%
X2500000Y-18412500D03*
X2500000Y-16587500D03*
%TD*%
D19*
%TO.C,C5*%
X1550000Y-8000000D03*
X3450000Y-8000000D03*
%TD*%
D12*
%TO.C,TP3*%
X27500000Y-18000000D03*
%TD*%
%TO.C,TP16*%
X21400000Y-45500000D03*
%TD*%
D13*
%TO.C,R4*%
X17000000Y-32912500D03*
X17000000Y-31087500D03*
%TD*%
D25*
%TO.C,U3*%
X20525000Y-31095000D03*
X20525000Y-32365000D03*
X20525000Y-33635000D03*
X20525000Y-34905000D03*
X25475000Y-34905000D03*
X25475000Y-33635000D03*
X25475000Y-32365000D03*
X25475000Y-31095000D03*
%TD*%
D12*
%TO.C,TP7*%
X28000000Y-45500000D03*
%TD*%
D23*
%TO.C,R7*%
X24587500Y-40000000D03*
X26412500Y-40000000D03*
%TD*%
D12*
%TO.C,TP8*%
X24500000Y-45500000D03*
%TD*%
D24*
%TO.C,C1*%
X2530000Y-40000000D03*
X7470000Y-40000000D03*
%TD*%
D12*
%TO.C,TP11*%
X7600000Y-45500000D03*
%TD*%
%TO.C,TP1*%
X27500000Y-10000000D03*
%TD*%
%TO.C,TP15*%
X18600000Y-45500000D03*
%TD*%
%LPD*%
M02*
