%TF.GenerationSoftware,KiCad,Pcbnew,10.0.6*%
%TF.CreationDate,2026-10-01T17:26:23+07:00*%
%TF.ProjectId,samsung-rev1.0,73616d73-756e-4672-9d72-6576312e302e,rev?*%
%TF.SameCoordinates,Original*%
%TF.FileFunction,Copper,L2,Bot*%
%TF.FilePolarity,Positive*%
%FSLAX46Y46*%
G04 Gerber Fmt 4.6, Leading zero omitted, Abs format (unit mm)*
G04 Created by KiCad (PCBNEW 10.0.6) date 2026-10-01 17:26:23*
%MOMM*%
%LPD*%
G01*
G04 APERTURE LIST*
G04 Aperture macros list*
%AMRoundRect*
0 Rectangle with rounded corners*
0 $1 Rounding radius*
0 $2 $3 $4 $5 $6 $7 $8 $9 X,Y pos of 4 corners*
0 Add a 4 corners polygon primitive as box body*
4,1,4,$2,$3,$4,$5,$6,$7,$8,$9,$2,$3,0*
0 Add four circle primitives for the rounded corners*
1,1,$1+$1,$2,$3*
1,1,$1+$1,$4,$5*
1,1,$1+$1,$6,$7*
1,1,$1+$1,$8,$9*
0 Add four rect primitives between the rounded corners*
20,1,$1+$1,$2,$3,$4,$5,0*
20,1,$1+$1,$4,$5,$6,$7,0*
20,1,$1+$1,$6,$7,$8,$9,0*
20,1,$1+$1,$8,$9,$2,$3,0*%
G04 Aperture macros list end*
%TA.AperFunction,HeatsinkPad*%
%ADD10C,0.600000*%
%TD*%
%TA.AperFunction,SMDPad,CuDef*%
%ADD11R,1.700000X1.000000*%
%TD*%
%TA.AperFunction,SMDPad,CuDef*%
%ADD12RoundRect,0.250000X0.262500X0.450000X-0.262500X0.450000X-0.262500X-0.450000X0.262500X-0.450000X0*%
%TD*%
%TA.AperFunction,SMDPad,CuDef*%
%ADD13C,2.000000*%
%TD*%
%TA.AperFunction,SMDPad,CuDef*%
%ADD14RoundRect,0.250000X0.250000X0.475000X-0.250000X0.475000X-0.250000X-0.475000X0.250000X-0.475000X0*%
%TD*%
%TA.AperFunction,SMDPad,CuDef*%
%ADD15RoundRect,0.250000X0.475000X-0.250000X0.475000X0.250000X-0.475000X0.250000X-0.475000X-0.250000X0*%
%TD*%
%TA.AperFunction,SMDPad,CuDef*%
%ADD16RoundRect,0.250000X0.450000X-0.262500X0.450000X0.262500X-0.450000X0.262500X-0.450000X-0.262500X0*%
%TD*%
%TA.AperFunction,ViaPad*%
%ADD17C,0.600000*%
%TD*%
%TA.AperFunction,Conductor*%
%ADD18C,0.400000*%
%TD*%
%TA.AperFunction,Conductor*%
%ADD19C,0.250000*%
%TD*%
G04 APERTURE END LIST*
D10*
%TO.P,U1,41*%
%TO.N,GND*%
X12100000Y-15510000D03*
X12100000Y-16910000D03*
X12800000Y-14810000D03*
X12800000Y-16210000D03*
X12800000Y-17610000D03*
X13500000Y-15510000D03*
X13500000Y-16910000D03*
X14200000Y-14810000D03*
X14200000Y-16210000D03*
X14200000Y-17610000D03*
X14900000Y-15510000D03*
X14900000Y-16910000D03*
%TD*%
D11*
%TO.P,SB2,1*%
%TO.N,EN*%
X13150000Y-21100000D03*
X6850000Y-21100000D03*
%TO.P,SB2,2*%
%TO.N,GND*%
X13150000Y-24900000D03*
X6850000Y-24900000D03*
%TD*%
D12*
%TO.P,R9,1*%
%TO.N,F_RX*%
X3912500Y-28500000D03*
%TO.P,R9,2*%
%TO.N,GND*%
X2087500Y-28500000D03*
%TD*%
D13*
%TO.P,TP5,1*%
%TO.N,BOOT*%
X12000000Y-10000000D03*
%TD*%
D14*
%TO.P,C8,1*%
%TO.N,+3V3*%
X14950000Y-28500000D03*
%TO.P,C8,2*%
%TO.N,GND*%
X13050000Y-28500000D03*
%TD*%
D13*
%TO.P,TP6,1*%
%TO.N,+3V3*%
X16000000Y-10000000D03*
%TD*%
D15*
%TO.P,C6,1*%
%TO.N,+5V*%
X27500000Y-37950000D03*
%TO.P,C6,2*%
%TO.N,GND*%
X27500000Y-36050000D03*
%TD*%
D13*
%TO.P,TP4,1*%
%TO.N,EN*%
X8000000Y-10000000D03*
%TD*%
D16*
%TO.P,R5,1*%
%TO.N,MB_RX*%
X17000000Y-28912500D03*
%TO.P,R5,2*%
%TO.N,GND*%
X17000000Y-27087500D03*
%TD*%
D11*
%TO.P,SB1,1*%
%TO.N,BOOT*%
X24150000Y-21100000D03*
X17850000Y-21100000D03*
%TO.P,SB1,2*%
%TO.N,GND*%
X24150000Y-24900000D03*
X17850000Y-24900000D03*
%TD*%
D15*
%TO.P,C4,1*%
%TO.N,+3V3*%
X12500000Y-34950000D03*
%TO.P,C4,2*%
%TO.N,GND*%
X12500000Y-33050000D03*
%TD*%
D17*
%TO.N,+5V*%
X4000000Y-35300000D03*
X27000000Y-37300000D03*
X2500000Y-39200000D03*
X14000000Y-45500000D03*
%TO.N,H_RX*%
X2900000Y-20600000D03*
X7700000Y-19900000D03*
X2500000Y-21200000D03*
X2500000Y-26400000D03*
%TO.N,GND*%
X19500000Y-14000000D03*
X3425500Y-36200500D03*
X21500000Y-41000000D03*
X16500000Y-23000000D03*
X28500000Y-40000000D03*
X22500000Y-43000000D03*
X3500000Y-13200000D03*
X22500000Y-37000000D03*
X21500000Y-23000000D03*
X7500000Y-28000000D03*
X20500000Y-29000000D03*
X26500000Y-30000000D03*
X20500000Y-37000000D03*
X8500000Y-12000000D03*
X13500000Y-24000000D03*
X17500000Y-16000000D03*
X11500000Y-23000000D03*
X2950500Y-41912411D03*
X20500000Y-41000000D03*
X22500000Y-29000000D03*
X28500000Y-27000000D03*
X25500000Y-13000000D03*
X25500000Y-27000000D03*
X20500000Y-12000000D03*
X14500000Y-12000000D03*
X17500000Y-9000000D03*
X22500000Y-39000000D03*
X18500000Y-12000000D03*
X18500000Y-18000000D03*
X19500000Y-8000000D03*
X24500000Y-29000000D03*
X23500000Y-39000000D03*
X24500000Y-8000000D03*
X11500000Y-17000000D03*
X2500000Y-31000000D03*
X17500000Y-12000000D03*
X12500000Y-19000000D03*
X17500000Y-18000000D03*
X28500000Y-41000000D03*
X27500000Y-29000000D03*
X11500000Y-19000000D03*
X21500000Y-10000000D03*
X18500000Y-24000000D03*
X22500000Y-40000000D03*
X12500000Y-40000000D03*
X9500000Y-14000000D03*
X22500000Y-41000000D03*
X20500000Y-8000000D03*
X27500000Y-26000000D03*
X19500000Y-29000000D03*
X11500000Y-16000000D03*
X3500000Y-37000000D03*
X17500000Y-36000000D03*
X28500000Y-22000000D03*
X20500000Y-11000000D03*
X7500000Y-38000000D03*
X27500000Y-20000000D03*
X10500000Y-11000000D03*
X21500000Y-37000000D03*
X23500000Y-28000000D03*
X4500000Y-26000000D03*
X28500000Y-23000000D03*
X19500000Y-17000000D03*
X21500000Y-30000000D03*
X2175500Y-31753202D03*
X19500000Y-37000000D03*
X19500000Y-36000000D03*
X21500000Y-28000000D03*
X17500000Y-24000000D03*
X21500000Y-19000000D03*
X2712803Y-13098043D03*
X9500000Y-17000000D03*
X21500000Y-8000000D03*
X21500000Y-43000000D03*
X14500000Y-43000000D03*
X6500000Y-29000000D03*
X5500000Y-8000000D03*
X28000000Y-36200000D03*
X13500000Y-38000000D03*
X23500000Y-27000000D03*
X11500000Y-15000000D03*
X19500000Y-22000000D03*
X25500000Y-8000000D03*
X28500000Y-37000000D03*
X23500000Y-30000000D03*
X19500000Y-20000000D03*
X20500000Y-23000000D03*
X25500000Y-20000000D03*
X4500000Y-13000000D03*
X19500000Y-28000000D03*
X11500000Y-42000000D03*
X25500000Y-28000000D03*
X11500000Y-43000000D03*
X9500000Y-12000000D03*
X20500000Y-20000000D03*
X22500000Y-33000000D03*
X19500000Y-30000000D03*
X28500000Y-24000000D03*
X27500000Y-23000000D03*
X25500000Y-19000000D03*
X20500000Y-40000000D03*
X20500000Y-10000000D03*
X10500000Y-22000000D03*
X8500000Y-13000000D03*
X19500000Y-40000000D03*
X27500000Y-18000000D03*
X6800000Y-34000000D03*
X7500000Y-43000000D03*
X15500000Y-8000000D03*
X19500000Y-10000000D03*
X18500000Y-8000000D03*
X9500000Y-15000000D03*
X25500000Y-26000000D03*
X11500000Y-38000000D03*
X18500000Y-19000000D03*
X23100000Y-34900000D03*
X18500000Y-43000000D03*
X8500000Y-16000000D03*
X26500000Y-26000000D03*
X12500000Y-39000000D03*
X20400000Y-38000000D03*
X10500000Y-17000000D03*
X12500000Y-37000000D03*
X18500000Y-15000000D03*
X20500000Y-15000000D03*
X19500000Y-9000000D03*
X7500000Y-29000000D03*
X4500000Y-15000000D03*
X27500000Y-12000000D03*
X15500000Y-42000000D03*
X18500000Y-42000000D03*
X28500000Y-42000000D03*
X20500000Y-13000000D03*
X4200000Y-24900000D03*
X17500000Y-13000000D03*
X9500000Y-16000000D03*
X19500000Y-24000000D03*
X3500000Y-14000000D03*
X28500000Y-12000000D03*
X25500000Y-15000000D03*
X17500000Y-19000000D03*
X22500000Y-28000000D03*
X10500000Y-16000000D03*
X28500000Y-43000000D03*
X18500000Y-10000000D03*
X10500000Y-14000000D03*
X21500000Y-22000000D03*
X10500000Y-13000000D03*
X7500000Y-42000000D03*
X2200000Y-28800000D03*
X19500000Y-19000000D03*
X22500000Y-36000000D03*
X19500000Y-39000000D03*
X4500000Y-14000000D03*
X18500000Y-41000000D03*
X22500000Y-34000000D03*
X10500000Y-15000000D03*
X27500000Y-21000000D03*
X19500000Y-11000000D03*
X14500000Y-37000000D03*
X10500000Y-23000000D03*
X28500000Y-25000000D03*
X14500000Y-38000000D03*
X13500000Y-11000000D03*
X14500000Y-11000000D03*
X18500000Y-13000000D03*
X17500000Y-17000000D03*
X25500000Y-17000000D03*
X8500000Y-14000000D03*
X27500000Y-8000000D03*
X21500000Y-17000000D03*
X11500000Y-18000000D03*
X13000000Y-24700000D03*
X28500000Y-21000000D03*
X27500000Y-25000000D03*
X9500000Y-13000000D03*
X16500000Y-22000000D03*
X27500000Y-24000000D03*
X23500000Y-38000000D03*
X27500000Y-28000000D03*
X17500000Y-8000000D03*
X27500000Y-27000000D03*
X13500000Y-42000000D03*
X19500000Y-12000000D03*
X12500000Y-42000000D03*
X12500000Y-41000000D03*
X21500000Y-12000000D03*
X25500000Y-30000000D03*
X23500000Y-37000000D03*
X19500000Y-13000000D03*
X18500000Y-9000000D03*
X28500000Y-20000000D03*
X16500000Y-24000000D03*
X26500000Y-28000000D03*
X8500000Y-18000000D03*
X20500000Y-28000000D03*
X21500000Y-42000000D03*
X26500000Y-12000000D03*
X21500000Y-36000000D03*
X20500000Y-43000000D03*
X21500000Y-14000000D03*
X28500000Y-39000000D03*
X13500000Y-23000000D03*
X6500000Y-37000000D03*
X27500000Y-30000000D03*
X15100000Y-46500000D03*
X28500000Y-35000000D03*
X26500000Y-21000000D03*
X17500000Y-11000000D03*
X26500000Y-25000000D03*
X22500000Y-38000000D03*
X17500000Y-15000000D03*
X20500000Y-17000000D03*
X9500000Y-18000000D03*
X20500000Y-30000000D03*
X26500000Y-27000000D03*
X26500000Y-29000000D03*
X13500000Y-37000000D03*
X15500000Y-39200000D03*
X27500000Y-22000000D03*
X12500000Y-38000000D03*
X25300000Y-18000000D03*
X21500000Y-18000000D03*
X10500000Y-20000000D03*
X20500000Y-24000000D03*
X11500000Y-20000000D03*
X26500000Y-8000000D03*
X17500000Y-37000000D03*
X22500000Y-8000000D03*
X22500000Y-42000000D03*
X10500000Y-43000000D03*
X9500000Y-11000000D03*
X10500000Y-12000000D03*
X23500000Y-41000000D03*
X13500000Y-41000000D03*
X19500000Y-43000000D03*
X15500000Y-43100000D03*
X21500000Y-15000000D03*
X13500000Y-39000000D03*
X6500000Y-43000000D03*
X21500000Y-16000000D03*
X28500000Y-26000000D03*
X28500000Y-28000000D03*
X28500000Y-34000000D03*
X17500000Y-23000000D03*
X20500000Y-36000000D03*
X14500000Y-8000000D03*
X21500000Y-11000000D03*
X23500000Y-29000000D03*
X26500000Y-20000000D03*
X13900000Y-24700000D03*
X12500000Y-43000000D03*
X28500000Y-33000000D03*
X14500000Y-42000000D03*
X21500000Y-9000000D03*
X18500000Y-40000000D03*
X14800000Y-33300000D03*
X13500000Y-40000000D03*
X10500000Y-19000000D03*
X28000000Y-31500000D03*
X22500000Y-44000000D03*
X18500000Y-23000000D03*
X22500000Y-31000000D03*
X26500000Y-16000000D03*
X4500000Y-24000000D03*
X25500000Y-16000000D03*
X13500000Y-31000000D03*
X12800000Y-22400000D03*
X18500000Y-14000000D03*
X21500000Y-40000000D03*
X8500000Y-17000000D03*
X6500000Y-42000000D03*
X26500000Y-24000000D03*
X13500000Y-19000000D03*
X12500000Y-24000000D03*
X23500000Y-33000000D03*
X20500000Y-22000000D03*
X12500000Y-36200000D03*
X18500000Y-17000000D03*
X6500000Y-28000000D03*
X20500000Y-16000000D03*
X19500000Y-42000000D03*
X4500000Y-8000000D03*
X11500000Y-24000000D03*
X1000500Y-16750000D03*
X22500000Y-9000000D03*
X17500000Y-14000000D03*
X23500000Y-32000000D03*
X26500000Y-23000000D03*
X14500000Y-31000000D03*
X28500000Y-16000000D03*
X20500000Y-18000000D03*
X4500000Y-23000000D03*
X19500000Y-41000000D03*
X3500000Y-8000000D03*
X19500000Y-16000000D03*
X13500000Y-43000000D03*
X2200000Y-28200000D03*
X21500000Y-38000000D03*
X18500000Y-16000000D03*
X27500000Y-16000000D03*
X21500000Y-29000000D03*
X16500000Y-8000000D03*
X20500000Y-14000000D03*
X24500000Y-28000000D03*
X6500000Y-38000000D03*
X18500000Y-11000000D03*
X14000000Y-35800000D03*
X20500000Y-9000000D03*
X19500000Y-23000000D03*
X26500000Y-22000000D03*
X6500000Y-27000000D03*
X28500000Y-29000000D03*
X21500000Y-13000000D03*
X19500000Y-18000000D03*
X19500000Y-15000000D03*
X20500000Y-39000000D03*
X23500000Y-31000000D03*
X23700000Y-8500000D03*
X10500000Y-42000000D03*
X28500000Y-8000000D03*
X1000500Y-16000000D03*
X21500000Y-20000000D03*
X25500000Y-29000000D03*
X13500000Y-12000000D03*
X15900000Y-24700000D03*
X20500000Y-19000000D03*
X21500000Y-39000000D03*
X11500000Y-22000000D03*
X22500000Y-30000000D03*
X21500000Y-24000000D03*
X24500000Y-27000000D03*
X10500000Y-18000000D03*
X4500000Y-12000000D03*
X28500000Y-30000000D03*
X20500000Y-42000000D03*
X8500000Y-15000000D03*
X24500000Y-30000000D03*
X9500000Y-19000000D03*
X25500000Y-9000000D03*
X22500000Y-32000000D03*
%TO.N,B*%
X25500000Y-32400000D03*
X25500000Y-42000000D03*
%TO.N,+3V3*%
X14900000Y-28500000D03*
X12500000Y-35000000D03*
X11100000Y-34300000D03*
X2500000Y-11900000D03*
X1600000Y-8000000D03*
X11850000Y-34250000D03*
X6200000Y-9800000D03*
X4000000Y-9800000D03*
X11500000Y-35000000D03*
%TO.N,EN*%
X8000000Y-10000000D03*
X4800000Y-21100000D03*
%TO.N,F_RX*%
X6200000Y-17400000D03*
X2500000Y-17200000D03*
X4500000Y-17400000D03*
%TO.N,F_TX*%
X8500000Y-27700000D03*
X8500000Y-21900000D03*
%TO.N,H_TX*%
X9300000Y-44800000D03*
X9300000Y-22900000D03*
X4800000Y-19300000D03*
X9300000Y-20300000D03*
%TO.N,MB_RX*%
X17000000Y-28900000D03*
X10100000Y-24800000D03*
%TO.N,MB_TX*%
X10600000Y-26900000D03*
X20500000Y-34900000D03*
%TO.N,DIR*%
X18400000Y-30300000D03*
X19000000Y-32400000D03*
%TO.N,BOOT*%
X15900000Y-19400000D03*
X25200000Y-21100000D03*
X12000000Y-10000000D03*
%TO.N,MAIN_TX_5V*%
X3300000Y-23400000D03*
X7600000Y-45500000D03*
%TO.N,A*%
X28000000Y-45500000D03*
X24600000Y-40400000D03*
%TD*%
%TO.N,+5V*%
D18*
X28900000Y-44600000D02*
X27500000Y-44600000D01*
X27500000Y-44600000D02*
X27500000Y-38000000D01*
X27100000Y-46400000D02*
X28900000Y-46400000D01*
X23900000Y-46200000D02*
X27100000Y-46200000D01*
X27500000Y-38000000D02*
X27500000Y-37950000D01*
X27500000Y-37950000D02*
X27500000Y-38000000D01*
X14000000Y-45500000D02*
X23900000Y-45500000D01*
X27500000Y-38000000D02*
X27000000Y-38000000D01*
X23900000Y-45500000D02*
X23900000Y-46200000D01*
X27100000Y-46200000D02*
X27100000Y-46400000D01*
X2500000Y-35300000D02*
X4000000Y-35300000D01*
X2500000Y-39200000D02*
X2500000Y-35300000D01*
X27000000Y-38000000D02*
X27000000Y-37300000D01*
X28900000Y-46400000D02*
X28900000Y-44600000D01*
%TO.N,H_RX*%
D19*
X4000000Y-20300000D02*
X5500000Y-20300000D01*
X6200000Y-19900000D02*
X7700000Y-19900000D01*
X5500000Y-20100000D02*
X6200000Y-20100000D01*
X2900000Y-20600000D02*
X4000000Y-20600000D01*
X5500000Y-20300000D02*
X5500000Y-20100000D01*
X4000000Y-20600000D02*
X4000000Y-20300000D01*
X6200000Y-20100000D02*
X6200000Y-19900000D01*
X2500000Y-21200000D02*
X2500000Y-26400000D01*
%TO.N,GND*%
D18*
X10300000Y-35800000D02*
X11200000Y-35800000D01*
X17000000Y-24900000D02*
X17800000Y-24900000D01*
X13100000Y-46400000D02*
X15100000Y-46400000D01*
X3500000Y-8900000D02*
X3500000Y-8000000D01*
X6800000Y-34000000D02*
X6800000Y-24900000D01*
X17000000Y-27100000D02*
X17000000Y-27087500D01*
X15500000Y-39200000D02*
X15500000Y-38000000D01*
X2100000Y-28500000D02*
X2100000Y-28800000D01*
X13100000Y-24900000D02*
X13100000Y-24700000D01*
X11200000Y-36000000D02*
X13800000Y-36000000D01*
X15500000Y-43100000D02*
X15500000Y-44600000D01*
X15900000Y-27200000D02*
X16000000Y-27200000D01*
X2200000Y-28200000D02*
X2100000Y-28200000D01*
X25600000Y-22000000D02*
X26100000Y-22000000D01*
X17800000Y-24900000D02*
X17850000Y-24900000D01*
X17800000Y-24900000D02*
X24100000Y-24900000D01*
X13050000Y-28500000D02*
X13000000Y-28500000D01*
X25300000Y-18000000D02*
X23700000Y-18000000D01*
X24150000Y-24900000D02*
X24100000Y-24900000D01*
X24100000Y-24900000D02*
X24150000Y-24900000D01*
X6800000Y-24900000D02*
X6850000Y-24900000D01*
X13100000Y-24900000D02*
X12800000Y-24900000D01*
X13050000Y-28500000D02*
X13000000Y-28500000D01*
X15100000Y-46400000D02*
X15100000Y-46500000D01*
X12500000Y-33000000D02*
X10200000Y-33000000D01*
X13000000Y-28500000D02*
X13000000Y-24900000D01*
X27500000Y-36200000D02*
X27500000Y-36000000D01*
X3500000Y-13200000D02*
X3500000Y-10700000D01*
X26100000Y-22000000D02*
X26100000Y-18000000D01*
X15500000Y-38000000D02*
X20400000Y-38000000D01*
X10200000Y-35200000D02*
X10200000Y-33000000D01*
X13800000Y-35800000D02*
X14000000Y-35800000D01*
X13800000Y-36000000D02*
X13800000Y-35800000D01*
X18300000Y-27800000D02*
X16000000Y-27800000D01*
X13150000Y-24900000D02*
X13100000Y-24900000D01*
X15900000Y-27100000D02*
X17000000Y-27100000D01*
X19300000Y-29400000D02*
X19300000Y-31500000D01*
X11200000Y-36000000D02*
X11200000Y-35800000D01*
X18300000Y-27800000D02*
X18300000Y-29400000D01*
X24100000Y-22200000D02*
X25600000Y-22200000D01*
X16000000Y-27200000D02*
X15900000Y-27200000D01*
X2100000Y-28800000D02*
X2200000Y-28800000D01*
X11200000Y-35800000D02*
X10300000Y-35800000D01*
X27500000Y-36000000D02*
X27500000Y-36050000D01*
X18300000Y-29400000D02*
X18300000Y-27800000D01*
X15500000Y-44600000D02*
X13100000Y-44600000D01*
X6850000Y-24900000D02*
X6800000Y-24900000D01*
X2100000Y-28200000D02*
X2100000Y-28500000D01*
X12500000Y-36200000D02*
X12500000Y-36000000D01*
X19900000Y-31500000D02*
X19300000Y-31500000D01*
X13150000Y-24900000D02*
X13100000Y-24900000D01*
X3500000Y-15500000D02*
X3500000Y-14000000D01*
X10200000Y-35200000D02*
X10300000Y-35200000D01*
X10300000Y-35800000D02*
X10300000Y-35200000D01*
X25600000Y-22200000D02*
X25600000Y-22000000D01*
X12500000Y-33000000D02*
X12500000Y-33049999D01*
X24600000Y-34900000D02*
X24600000Y-31500000D01*
X24600000Y-31500000D02*
X28000000Y-31500000D01*
X2087500Y-28500000D02*
X2100000Y-28500000D01*
X15900000Y-24700000D02*
X15900000Y-27100000D01*
X16000000Y-27200000D02*
X16000000Y-27800000D01*
X17000000Y-27100000D02*
X17000000Y-24900000D01*
X13000000Y-24700000D02*
X13000000Y-28500000D01*
X4900000Y-10700000D02*
X4900000Y-8900000D01*
X19900000Y-33300000D02*
X19900000Y-31500000D01*
X16000000Y-27800000D02*
X16000000Y-27200000D01*
X10300000Y-35200000D02*
X10200000Y-35200000D01*
X12800000Y-24900000D02*
X12800000Y-22400000D01*
X12500000Y-33049999D02*
X12500000Y-33000000D01*
X19300000Y-31500000D02*
X19300000Y-29400000D01*
X3500000Y-10700000D02*
X4900000Y-10700000D01*
X24100000Y-24900000D02*
X24100000Y-22200000D01*
X15900000Y-27200000D02*
X15900000Y-24700000D01*
X17000000Y-27087500D02*
X17000000Y-27100000D01*
X13000000Y-27100000D02*
X13900000Y-27100000D01*
X13000000Y-28500000D02*
X13050000Y-28500000D01*
X28000000Y-36200000D02*
X27500000Y-36200000D01*
X13000000Y-24900000D02*
X13100000Y-24900000D01*
X14800000Y-33300000D02*
X19900000Y-33300000D01*
X19300000Y-29400000D02*
X18300000Y-29400000D01*
X13900000Y-27100000D02*
X13900000Y-24700000D01*
X6800000Y-24900000D02*
X4200000Y-24900000D01*
X4900000Y-8900000D02*
X3500000Y-8900000D01*
X18300000Y-29400000D02*
X19300000Y-29400000D01*
X10300000Y-35200000D02*
X10300000Y-35800000D01*
X13100000Y-24700000D02*
X13900000Y-24700000D01*
X12500000Y-36000000D02*
X11200000Y-36000000D01*
X17850000Y-24900000D02*
X17800000Y-24900000D01*
X26100000Y-18000000D02*
X27500000Y-18000000D01*
X12100000Y-15500000D02*
X3500000Y-15500000D01*
X23100000Y-34900000D02*
X24600000Y-34900000D01*
X13000000Y-28500000D02*
X13000000Y-27100000D01*
X10200000Y-33000000D02*
X12500000Y-33000000D01*
X2100000Y-28500000D02*
X2087500Y-28500000D01*
X19900000Y-31500000D02*
X19900000Y-33300000D01*
X15900000Y-24700000D02*
X15900000Y-27200000D01*
X12100000Y-15510000D02*
X12100000Y-15500000D01*
X23700000Y-18000000D02*
X23700000Y-8500000D01*
X19300000Y-31500000D02*
X19900000Y-31500000D01*
X13100000Y-24900000D02*
X13150000Y-24900000D01*
X13100000Y-44600000D02*
X13100000Y-46400000D01*
X16000000Y-27800000D02*
X18300000Y-27800000D01*
X11200000Y-35800000D02*
X11200000Y-36000000D01*
X10200000Y-33000000D02*
X10200000Y-35200000D01*
X19900000Y-33300000D02*
X14800000Y-33300000D01*
%TO.N,B*%
D19*
X25500000Y-42000000D02*
X25500000Y-32400000D01*
%TO.N,+3V3*%
D18*
X13600000Y-10000000D02*
X13600000Y-8400000D01*
X11100000Y-35000000D02*
X11100000Y-34300000D01*
X12500000Y-34950000D02*
X12500000Y-35000000D01*
X15800000Y-10000000D02*
X16000000Y-10000000D01*
X14900000Y-28500000D02*
X14900000Y-18500000D01*
X12500000Y-35000000D02*
X11100000Y-35000000D01*
X14900000Y-18500000D02*
X15100000Y-18500000D01*
X15100000Y-18500000D02*
X15100000Y-17800000D01*
X12500000Y-35000000D02*
X12500000Y-34950000D01*
X16000000Y-10000000D02*
X13600000Y-10000000D01*
X2500000Y-9800000D02*
X2500000Y-11900000D01*
X4000000Y-9800000D02*
X2500000Y-9800000D01*
X1600000Y-11900000D02*
X1600000Y-8000000D01*
X13600000Y-8400000D02*
X6200000Y-8400000D01*
X15100000Y-17800000D02*
X15800000Y-17800000D01*
X2500000Y-11900000D02*
X1600000Y-11900000D01*
X14900000Y-28500000D02*
X14950000Y-28500000D01*
X15800000Y-17800000D02*
X15800000Y-10000000D01*
X14950000Y-28500000D02*
X14900000Y-28500000D01*
X6200000Y-8400000D02*
X6200000Y-9800000D01*
%TO.N,EN*%
D19*
X6800000Y-21100000D02*
X13100000Y-21100000D01*
X6800000Y-21100000D02*
X6850000Y-21100000D01*
X6850000Y-21100000D02*
X6800000Y-21100000D01*
X4800000Y-21100000D02*
X6800000Y-21100000D01*
X13100000Y-21100000D02*
X13150000Y-21100000D01*
%TO.N,F_RX*%
X3100000Y-28500000D02*
X3900000Y-28500000D01*
X3400000Y-19800000D02*
X2100000Y-19800000D01*
X1100000Y-27300000D02*
X1100000Y-29700000D01*
X2100000Y-19800000D02*
X2100000Y-20400000D01*
X3900000Y-17400000D02*
X3900000Y-19700000D01*
X1100000Y-29700000D02*
X3100000Y-29700000D01*
X3900000Y-19700000D02*
X3400000Y-19700000D01*
X1700000Y-20400000D02*
X1700000Y-27300000D01*
X3100000Y-29700000D02*
X3100000Y-28500000D01*
X3900000Y-28500000D02*
X3912500Y-28500000D01*
X2100000Y-20400000D02*
X1700000Y-20400000D01*
X2500000Y-17200000D02*
X2500000Y-17400000D01*
X4500000Y-17400000D02*
X3900000Y-17400000D01*
X1700000Y-27300000D02*
X1100000Y-27300000D01*
X2500000Y-17400000D02*
X6200000Y-17400000D01*
X3400000Y-19700000D02*
X3400000Y-19800000D01*
%TO.N,F_TX*%
X8500000Y-27700000D02*
X8500000Y-21900000D01*
%TO.N,H_TX*%
X8500000Y-20300000D02*
X8500000Y-19100000D01*
X8500000Y-19100000D02*
X6200000Y-19100000D01*
X6200000Y-19300000D02*
X4800000Y-19300000D01*
X9300000Y-20300000D02*
X8500000Y-20300000D01*
X9300000Y-44800000D02*
X9300000Y-22900000D01*
X6200000Y-19100000D02*
X6200000Y-19300000D01*
%TO.N,MB_RX*%
X17000000Y-28900000D02*
X15900000Y-28900000D01*
X15900000Y-28900000D02*
X15900000Y-29700000D01*
X15900000Y-29700000D02*
X11400000Y-29700000D01*
X17000000Y-28900000D02*
X17000000Y-28912500D01*
X11400000Y-29700000D02*
X11400000Y-26100000D01*
X11400000Y-26100000D02*
X10100000Y-26100000D01*
X10100000Y-26100000D02*
X10100000Y-24800000D01*
X17000000Y-28912500D02*
X17000000Y-28900000D01*
%TO.N,MB_TX*%
X13700000Y-34900000D02*
X20500000Y-34900000D01*
X13700000Y-32100000D02*
X13700000Y-34900000D01*
X10600000Y-32100000D02*
X13700000Y-32100000D01*
X10600000Y-26900000D02*
X10600000Y-32100000D01*
%TO.N,DIR*%
X18400000Y-32400000D02*
X18400000Y-30300000D01*
X19000000Y-32400000D02*
X18400000Y-32400000D01*
%TO.N,BOOT*%
X17850000Y-21100000D02*
X17800000Y-21100000D01*
X24100000Y-21100000D02*
X17800000Y-21100000D01*
X15900000Y-21100000D02*
X15900000Y-19400000D01*
X24100000Y-21100000D02*
X25200000Y-21100000D01*
X24150000Y-21100000D02*
X24100000Y-21100000D01*
X24150000Y-21100000D02*
X24100000Y-21100000D01*
X17800000Y-21100000D02*
X15900000Y-21100000D01*
X17800000Y-21100000D02*
X17850000Y-21100000D01*
%TO.N,MAIN_TX_5V*%
X3300000Y-23400000D02*
X3300000Y-27300000D01*
X3300000Y-27300000D02*
X4900000Y-27300000D01*
X4900000Y-45500000D02*
X7600000Y-45500000D01*
X4900000Y-27300000D02*
X4900000Y-45500000D01*
%TO.N,A*%
X24600000Y-45500000D02*
X28000000Y-45500000D01*
X24600000Y-40400000D02*
X24600000Y-45500000D01*
%TD*%
%TA.AperFunction,Conductor*%
%TO.N,+3V3*%
G36*
X11536407Y-33469407D02*
G01*
X11570974Y-33514904D01*
X11581203Y-33542330D01*
X11581204Y-33542332D01*
X11663872Y-33652761D01*
X11667454Y-33657546D01*
X11667457Y-33657548D01*
X11667458Y-33657549D01*
X11782670Y-33743797D01*
X11917511Y-33794089D01*
X11917512Y-33794089D01*
X11917517Y-33794091D01*
X11977127Y-33800500D01*
X12501001Y-33800499D01*
X12559191Y-33819406D01*
X12595155Y-33868906D01*
X12600000Y-33899499D01*
X12600000Y-35450500D01*
X12581093Y-35508691D01*
X12531593Y-35544655D01*
X12501000Y-35549500D01*
X11627609Y-35549500D01*
X11569418Y-35530593D01*
X11557611Y-35520509D01*
X11476613Y-35439511D01*
X11476610Y-35439509D01*
X11476608Y-35439507D01*
X11373889Y-35380202D01*
X11373890Y-35380202D01*
X11350318Y-35373886D01*
X11259309Y-35349500D01*
X11259307Y-35349500D01*
X10849500Y-35349500D01*
X10791309Y-35330593D01*
X10755345Y-35281093D01*
X10750500Y-35250500D01*
X10750500Y-35140692D01*
X10736251Y-35087515D01*
X10719799Y-35026114D01*
X10719797Y-35026111D01*
X10719797Y-35026109D01*
X10663764Y-34929058D01*
X10650500Y-34879558D01*
X10650500Y-33549500D01*
X10669407Y-33491309D01*
X10718907Y-33455345D01*
X10749500Y-33450500D01*
X11478216Y-33450500D01*
X11536407Y-33469407D01*
G37*
%TD.AperFunction*%
%TD*%
%TA.AperFunction,Conductor*%
%TO.N,GND*%
G36*
X2232388Y-26881158D02*
G01*
X2284752Y-26911389D01*
X2287170Y-26912890D01*
X2287508Y-26912980D01*
X2287511Y-26912982D01*
X2287512Y-26912982D01*
X2287515Y-26912984D01*
X2427525Y-26950500D01*
X2427526Y-26950500D01*
X2572474Y-26950500D01*
X2572475Y-26950500D01*
X2712485Y-26912984D01*
X2712487Y-26912982D01*
X2712489Y-26912982D01*
X2762426Y-26884150D01*
X2791335Y-26873054D01*
X2802484Y-26870684D01*
X2863333Y-26877081D01*
X2908789Y-26918001D01*
X2911225Y-26922221D01*
X2924500Y-26971738D01*
X2924500Y-27250565D01*
X2924500Y-27349435D01*
X2927863Y-27361985D01*
X2950092Y-27444944D01*
X2974665Y-27487505D01*
X2999523Y-27530559D01*
X2999525Y-27530562D01*
X3069438Y-27600475D01*
X3069440Y-27600476D01*
X3069992Y-27600874D01*
X3072012Y-27601961D01*
X3151071Y-27647606D01*
X3155490Y-27650313D01*
X3161842Y-27654438D01*
X3162834Y-27655091D01*
X3166129Y-27657287D01*
X3166481Y-27657450D01*
X3174425Y-27662608D01*
X3177444Y-27664569D01*
X3215947Y-27712120D01*
X3219152Y-27773208D01*
X3216618Y-27782671D01*
X3216567Y-27782860D01*
X3207827Y-27804693D01*
X3206203Y-27807665D01*
X3155912Y-27942505D01*
X3155910Y-27942512D01*
X3155908Y-27942520D01*
X3155908Y-27942521D01*
X3149500Y-28002132D01*
X3149500Y-28009819D01*
X3144654Y-28040412D01*
X3140532Y-28053098D01*
X3104568Y-28102598D01*
X3104561Y-28102603D01*
X3100314Y-28105688D01*
X3057613Y-28123372D01*
X3051474Y-28124344D01*
X3049934Y-28124567D01*
X3048898Y-28124753D01*
X3032549Y-28127341D01*
X3028232Y-28130400D01*
X3024416Y-28131505D01*
X2985298Y-28141988D01*
X2955053Y-28150092D01*
X2869442Y-28199521D01*
X2799521Y-28269442D01*
X2750092Y-28355054D01*
X2750091Y-28355056D01*
X2750091Y-28355057D01*
X2724501Y-28450565D01*
X2724500Y-28450567D01*
X2724500Y-29209819D01*
X2719654Y-29240412D01*
X2715532Y-29253098D01*
X2679580Y-29302589D01*
X2675459Y-29305584D01*
X2617271Y-29324500D01*
X1590180Y-29324500D01*
X1559587Y-29319654D01*
X1546901Y-29315532D01*
X1497401Y-29279568D01*
X1497394Y-29279558D01*
X1494400Y-29275436D01*
X1475500Y-29217256D01*
X1475500Y-27790180D01*
X1480343Y-27759594D01*
X1484465Y-27746905D01*
X1520423Y-27697406D01*
X1521022Y-27696971D01*
X1524563Y-27694400D01*
X1582743Y-27675500D01*
X1749433Y-27675500D01*
X1749435Y-27675500D01*
X1844938Y-27649910D01*
X1844940Y-27649908D01*
X1844942Y-27649908D01*
X1883710Y-27627525D01*
X1930562Y-27600475D01*
X2000475Y-27530562D01*
X2049910Y-27444938D01*
X2075500Y-27349435D01*
X2075500Y-26977730D01*
X2080347Y-26947133D01*
X2083868Y-26936298D01*
X2119834Y-26886800D01*
X2178021Y-26867895D01*
X2182890Y-26867895D01*
X2232388Y-26881158D01*
G37*
%TD.AperFunction*%
%TA.AperFunction,Conductor*%
G36*
X1097942Y-7504843D02*
G01*
X1108779Y-7508365D01*
X1158279Y-7544326D01*
X1177189Y-7602516D01*
X1177189Y-7605137D01*
X1165795Y-7651248D01*
X1164986Y-7652785D01*
X1159690Y-7661684D01*
X1159492Y-7661979D01*
X1087014Y-7787515D01*
X1086739Y-7788244D01*
X1086192Y-7790587D01*
X1049500Y-7927525D01*
X1049500Y-8072475D01*
X1087016Y-8212485D01*
X1129721Y-8286452D01*
X1139609Y-8310324D01*
X1142391Y-8320708D01*
X1146126Y-8334643D01*
X1149500Y-8360268D01*
X1149500Y-11959311D01*
X1153026Y-11972468D01*
X1153026Y-11972474D01*
X1153028Y-11972474D01*
X1180202Y-12073890D01*
X1239507Y-12176608D01*
X1239509Y-12176610D01*
X1239511Y-12176613D01*
X1323387Y-12260489D01*
X1323389Y-12260490D01*
X1323496Y-12260597D01*
X1323746Y-12260783D01*
X1325934Y-12261960D01*
X1423369Y-12318214D01*
X1425770Y-12319706D01*
X1426111Y-12319797D01*
X1426114Y-12319799D01*
X1540691Y-12350500D01*
X2139729Y-12350500D01*
X2165352Y-12353873D01*
X2189674Y-12360390D01*
X2213550Y-12370280D01*
X2287515Y-12412984D01*
X2427525Y-12450500D01*
X2427526Y-12450500D01*
X2572474Y-12450500D01*
X2572475Y-12450500D01*
X2712485Y-12412984D01*
X2712486Y-12412983D01*
X2712488Y-12412982D01*
X2712489Y-12412982D01*
X2831880Y-12344051D01*
X2834768Y-12342648D01*
X2835554Y-12342131D01*
X2840563Y-12339037D01*
X2841862Y-12338286D01*
X2847220Y-12331303D01*
X2940509Y-12238015D01*
X2975960Y-12176613D01*
X3012982Y-12112489D01*
X3012982Y-12112487D01*
X3012984Y-12112485D01*
X3050500Y-11972475D01*
X3050500Y-11827525D01*
X3012984Y-11687515D01*
X3012983Y-11687513D01*
X2970279Y-11613547D01*
X2960390Y-11589671D01*
X2953873Y-11565348D01*
X2950500Y-11539726D01*
X2950500Y-10365180D01*
X2955343Y-10334594D01*
X2959465Y-10321905D01*
X2995423Y-10272406D01*
X2996022Y-10271971D01*
X2999563Y-10269400D01*
X3057743Y-10250500D01*
X3639729Y-10250500D01*
X3665352Y-10253873D01*
X3689674Y-10260390D01*
X3713550Y-10270280D01*
X3787515Y-10312984D01*
X3927525Y-10350500D01*
X3927526Y-10350500D01*
X4072474Y-10350500D01*
X4072475Y-10350500D01*
X4212485Y-10312984D01*
X4212486Y-10312983D01*
X4212488Y-10312982D01*
X4212489Y-10312982D01*
X4331880Y-10244051D01*
X4334768Y-10242648D01*
X4335554Y-10242131D01*
X4340563Y-10239037D01*
X4341862Y-10238286D01*
X4347220Y-10231303D01*
X4440509Y-10138015D01*
X4463369Y-10098420D01*
X4512982Y-10012489D01*
X4512982Y-10012487D01*
X4512984Y-10012485D01*
X4550500Y-9872475D01*
X4550500Y-9727525D01*
X4512984Y-9587515D01*
X4512982Y-9587512D01*
X4512982Y-9587510D01*
X4512981Y-9587508D01*
X4512890Y-9587168D01*
X4511397Y-9584764D01*
X4441985Y-9464539D01*
X4440805Y-9462347D01*
X4440617Y-9462094D01*
X4440510Y-9461987D01*
X4440509Y-9461985D01*
X4338015Y-9359491D01*
X4338012Y-9359489D01*
X4338010Y-9359487D01*
X4269774Y-9320091D01*
X4248741Y-9296731D01*
X4182897Y-9279087D01*
X4182896Y-9279087D01*
X4072475Y-9249500D01*
X4072473Y-9249500D01*
X3927526Y-9249500D01*
X3927525Y-9249500D01*
X3874769Y-9263635D01*
X3788939Y-9286634D01*
X3787604Y-9286970D01*
X3787542Y-9287000D01*
X3787501Y-9287022D01*
X3743291Y-9312548D01*
X3743290Y-9312549D01*
X3730223Y-9320093D01*
X3713546Y-9329721D01*
X3689675Y-9339608D01*
X3665352Y-9346126D01*
X3639730Y-9349500D01*
X2559309Y-9349500D01*
X2440691Y-9349500D01*
X2405629Y-9358894D01*
X2370566Y-9368289D01*
X2370565Y-9368288D01*
X2326111Y-9380200D01*
X2326108Y-9380201D01*
X2222416Y-9440069D01*
X2220644Y-9441338D01*
X2216075Y-9444384D01*
X2206107Y-9450220D01*
X2195790Y-9455477D01*
X2135358Y-9465049D01*
X2080841Y-9437273D01*
X2054577Y-9390375D01*
X2053234Y-9384780D01*
X2050500Y-9361673D01*
X2050500Y-8360270D01*
X2053872Y-8334651D01*
X2053874Y-8334643D01*
X2060390Y-8310321D01*
X2070278Y-8286451D01*
X2112984Y-8212485D01*
X2150500Y-8072475D01*
X2150500Y-7927525D01*
X2112984Y-7787515D01*
X2112982Y-7787512D01*
X2112982Y-7787510D01*
X2112981Y-7787508D01*
X2112890Y-7787168D01*
X2111397Y-7784764D01*
X2042153Y-7664830D01*
X2034566Y-7648373D01*
X2029386Y-7633743D01*
X2027787Y-7572578D01*
X2062433Y-7522164D01*
X2064514Y-7520567D01*
X2108122Y-7501519D01*
X2108758Y-7501410D01*
X2125407Y-7500000D01*
X29384820Y-7500000D01*
X29415408Y-7504843D01*
X29428095Y-7508966D01*
X29477595Y-7544927D01*
X29477596Y-7544928D01*
X29480591Y-7549050D01*
X29499500Y-7607240D01*
X29499500Y-44352210D01*
X29494652Y-44382810D01*
X29492104Y-44390650D01*
X29456137Y-44440147D01*
X29397945Y-44459050D01*
X29339773Y-44440151D01*
X29336364Y-44437675D01*
X29308807Y-44407075D01*
X29299084Y-44390235D01*
X29261971Y-44325954D01*
X29260888Y-44323941D01*
X29260490Y-44323389D01*
X29260489Y-44323387D01*
X29176613Y-44239511D01*
X29176610Y-44239509D01*
X29176608Y-44239507D01*
X29131175Y-44213276D01*
X29110142Y-44189916D01*
X29060352Y-44176574D01*
X29060351Y-44176574D01*
X28959309Y-44149500D01*
X28959307Y-44149500D01*
X28065180Y-44149500D01*
X28034587Y-44144654D01*
X28021901Y-44140532D01*
X27972401Y-44104568D01*
X27972394Y-44104558D01*
X27969400Y-44100436D01*
X27950500Y-44042256D01*
X27950500Y-38812886D01*
X27955343Y-38782300D01*
X27959465Y-38769611D01*
X27995423Y-38720112D01*
X28000988Y-38716070D01*
X28048593Y-38697733D01*
X28082483Y-38694091D01*
X28149907Y-38668943D01*
X28149910Y-38668942D01*
X28215697Y-38644406D01*
X28219030Y-38643230D01*
X28222582Y-38642047D01*
X28230167Y-38634186D01*
X28332546Y-38557546D01*
X28418796Y-38442331D01*
X28418798Y-38442327D01*
X28469089Y-38307488D01*
X28469090Y-38307485D01*
X28469091Y-38307483D01*
X28475500Y-38247873D01*
X28475499Y-37652128D01*
X28469091Y-37592517D01*
X28439241Y-37512485D01*
X28418797Y-37457670D01*
X28334156Y-37344605D01*
X28332881Y-37342802D01*
X28332633Y-37342522D01*
X28332541Y-37342449D01*
X28217330Y-37256202D01*
X28217328Y-37256201D01*
X28087428Y-37207752D01*
X28083939Y-37206234D01*
X28083025Y-37205996D01*
X28080927Y-37205540D01*
X28077206Y-37205341D01*
X28060312Y-37203524D01*
X28051249Y-37202550D01*
X28051248Y-37202549D01*
X28022876Y-37199500D01*
X28022873Y-37199500D01*
X28022870Y-37199500D01*
X27634636Y-37199500D01*
X27604043Y-37194654D01*
X27591357Y-37190532D01*
X27541858Y-37154570D01*
X27535364Y-37145632D01*
X27519831Y-37113068D01*
X27512984Y-37087515D01*
X27512982Y-37087511D01*
X27512980Y-37087509D01*
X27512980Y-37087506D01*
X27476914Y-37025039D01*
X27441976Y-36964525D01*
X27440802Y-36962343D01*
X27440617Y-36962094D01*
X27440510Y-36961987D01*
X27440509Y-36961985D01*
X27338015Y-36859491D01*
X27338012Y-36859489D01*
X27338010Y-36859487D01*
X27269774Y-36820091D01*
X27248741Y-36796731D01*
X27182897Y-36779087D01*
X27182896Y-36779087D01*
X27072475Y-36749500D01*
X27072473Y-36749500D01*
X26927523Y-36749500D01*
X26865788Y-36766041D01*
X26865787Y-36766040D01*
X26787512Y-36787015D01*
X26787506Y-36787018D01*
X26661993Y-36859483D01*
X26559483Y-36961993D01*
X26487018Y-37087505D01*
X26487015Y-37087516D01*
X26449500Y-37227525D01*
X26449500Y-37372474D01*
X26487017Y-37512489D01*
X26487018Y-37512491D01*
X26507282Y-37547588D01*
X26518382Y-37576505D01*
X26524558Y-37605559D01*
X26526155Y-37636720D01*
X26524500Y-37652115D01*
X26524500Y-38247920D01*
X26524584Y-38248648D01*
X26529281Y-38292349D01*
X26530908Y-38307480D01*
X26530909Y-38307485D01*
X26530912Y-38307492D01*
X26581200Y-38442327D01*
X26667449Y-38557541D01*
X26667522Y-38557633D01*
X26667799Y-38557879D01*
X26669588Y-38559144D01*
X26754142Y-38622441D01*
X26782668Y-38643796D01*
X26782669Y-38643796D01*
X26782670Y-38643797D01*
X26916544Y-38693728D01*
X26917985Y-38694285D01*
X26919248Y-38694467D01*
X26922770Y-38694655D01*
X26945496Y-38697099D01*
X26975390Y-38705185D01*
X26987566Y-38710641D01*
X27032933Y-38751684D01*
X27036351Y-38757636D01*
X27049500Y-38806937D01*
X27049500Y-44659311D01*
X27067778Y-44727522D01*
X27067778Y-44727524D01*
X27067779Y-44727524D01*
X27067779Y-44727525D01*
X27067780Y-44727527D01*
X27080203Y-44773893D01*
X27139508Y-44876610D01*
X27207309Y-44944412D01*
X27225516Y-44969472D01*
X27230479Y-44979213D01*
X27240049Y-45039645D01*
X27212270Y-45094161D01*
X27165391Y-45120418D01*
X27159796Y-45121762D01*
X27136673Y-45124500D01*
X25090180Y-45124500D01*
X25059587Y-45119654D01*
X25046901Y-45115532D01*
X24997401Y-45079568D01*
X24997394Y-45079558D01*
X24994400Y-45075436D01*
X24975500Y-45017256D01*
X24975500Y-42508711D01*
X24978466Y-42499582D01*
X24977273Y-42490056D01*
X24980343Y-42478125D01*
X24983723Y-42467720D01*
X24992940Y-42455032D01*
X24994407Y-42450520D01*
X24998244Y-42447732D01*
X25019683Y-42418220D01*
X25077872Y-42399309D01*
X25129612Y-42413901D01*
X25134515Y-42416906D01*
X25152783Y-42431308D01*
X25162089Y-42440613D01*
X25162345Y-42440803D01*
X25164538Y-42441984D01*
X25277107Y-42506975D01*
X25284757Y-42511392D01*
X25287064Y-42512824D01*
X25287196Y-42512897D01*
X25287509Y-42512980D01*
X25287511Y-42512982D01*
X25287512Y-42512982D01*
X25287515Y-42512984D01*
X25427525Y-42550500D01*
X25427526Y-42550500D01*
X25572474Y-42550500D01*
X25572475Y-42550500D01*
X25712485Y-42512984D01*
X25712486Y-42512983D01*
X25712488Y-42512982D01*
X25712489Y-42512982D01*
X25831880Y-42444051D01*
X25834768Y-42442648D01*
X25835554Y-42442131D01*
X25840563Y-42439037D01*
X25841862Y-42438286D01*
X25847220Y-42431303D01*
X25940509Y-42338015D01*
X26012984Y-42212485D01*
X26050500Y-42072475D01*
X26050500Y-41927525D01*
X26012984Y-41787515D01*
X26012982Y-41787512D01*
X26012982Y-41787510D01*
X26012981Y-41787508D01*
X26012890Y-41787168D01*
X26011397Y-41784764D01*
X25940516Y-41661996D01*
X25940512Y-41661989D01*
X25940507Y-41661983D01*
X25915581Y-41637056D01*
X25897377Y-41611999D01*
X25886287Y-41590234D01*
X25875500Y-41545294D01*
X25875500Y-32859711D01*
X25880344Y-32829122D01*
X25885894Y-32812040D01*
X25887891Y-32805891D01*
X25912041Y-32766482D01*
X25940509Y-32738015D01*
X25952567Y-32717130D01*
X26012982Y-32612489D01*
X26012982Y-32612487D01*
X26012984Y-32612485D01*
X26050500Y-32472475D01*
X26050500Y-32327525D01*
X26012984Y-32187515D01*
X26012982Y-32187512D01*
X26012982Y-32187510D01*
X26012981Y-32187508D01*
X26012890Y-32187168D01*
X26011397Y-32184764D01*
X25941985Y-32064539D01*
X25940805Y-32062347D01*
X25940617Y-32062094D01*
X25940510Y-32061987D01*
X25940509Y-32061985D01*
X25838015Y-31959491D01*
X25838012Y-31959489D01*
X25838010Y-31959487D01*
X25838009Y-31959486D01*
X25769775Y-31920091D01*
X25748741Y-31896730D01*
X25646891Y-31869440D01*
X25596811Y-31856021D01*
X25572475Y-31849500D01*
X25572474Y-31849500D01*
X25427526Y-31849500D01*
X25427525Y-31849500D01*
X25403189Y-31856021D01*
X25400125Y-31856842D01*
X25287505Y-31887018D01*
X25161993Y-31959483D01*
X25059483Y-32061993D01*
X24987018Y-32187505D01*
X24971628Y-32244941D01*
X24949500Y-32327525D01*
X24949500Y-32472474D01*
X24976838Y-32574500D01*
X24987018Y-32612493D01*
X25059486Y-32738010D01*
X25084419Y-32762944D01*
X25102623Y-32788000D01*
X25113709Y-32809757D01*
X25124500Y-32854703D01*
X25124500Y-39891288D01*
X25119654Y-39921882D01*
X25116274Y-39932284D01*
X25080309Y-39981784D01*
X25022118Y-40000690D01*
X24970387Y-39986098D01*
X24965484Y-39983093D01*
X24947216Y-39968691D01*
X24938015Y-39959490D01*
X24938003Y-39959483D01*
X24869774Y-39920091D01*
X24848741Y-39896731D01*
X24782897Y-39879087D01*
X24782896Y-39879087D01*
X24672475Y-39849500D01*
X24672473Y-39849500D01*
X24527523Y-39849500D01*
X24465788Y-39866041D01*
X24465787Y-39866040D01*
X24387512Y-39887015D01*
X24387506Y-39887018D01*
X24261993Y-39959483D01*
X24159483Y-40061993D01*
X24087018Y-40187505D01*
X24087017Y-40187510D01*
X24049500Y-40327525D01*
X24049500Y-40472474D01*
X24082585Y-40595949D01*
X24087018Y-40612493D01*
X24159486Y-40738010D01*
X24184419Y-40762944D01*
X24202623Y-40788000D01*
X24213709Y-40809757D01*
X24224500Y-40854703D01*
X24224500Y-44980003D01*
X24219654Y-45010597D01*
X24216133Y-45021433D01*
X24180169Y-45070933D01*
X24121979Y-45089839D01*
X24116847Y-45089839D01*
X24078961Y-45082303D01*
X24067814Y-45077685D01*
X24061298Y-45076828D01*
X24055011Y-45075143D01*
X23959309Y-45049500D01*
X23959307Y-45049500D01*
X14360269Y-45049500D01*
X14334645Y-45046126D01*
X14310328Y-45039610D01*
X14286454Y-45029721D01*
X14212485Y-44987016D01*
X14072475Y-44949500D01*
X14072474Y-44949500D01*
X13927526Y-44949500D01*
X13927525Y-44949500D01*
X13886514Y-44960489D01*
X13787505Y-44987018D01*
X13661993Y-45059483D01*
X13559483Y-45161993D01*
X13487018Y-45287505D01*
X13480191Y-45312984D01*
X13449500Y-45427525D01*
X13449500Y-45572474D01*
X13482585Y-45695949D01*
X13487018Y-45712493D01*
X13559485Y-45838008D01*
X13559487Y-45838010D01*
X13559489Y-45838012D01*
X13559491Y-45838015D01*
X13661985Y-45940509D01*
X13661987Y-45940510D01*
X13662094Y-45940617D01*
X13662345Y-45940803D01*
X13664538Y-45941984D01*
X13702261Y-45963763D01*
X13784757Y-46011392D01*
X13787170Y-46012890D01*
X13787508Y-46012980D01*
X13787511Y-46012982D01*
X13787512Y-46012982D01*
X13787515Y-46012984D01*
X13927525Y-46050500D01*
X13927526Y-46050500D01*
X14072474Y-46050500D01*
X14072475Y-46050500D01*
X14212485Y-46012984D01*
X14286451Y-45970278D01*
X14310324Y-45960390D01*
X14329158Y-45955344D01*
X14334653Y-45953872D01*
X14360271Y-45950500D01*
X23334820Y-45950500D01*
X23365408Y-45955343D01*
X23378095Y-45959466D01*
X23427595Y-45995427D01*
X23427596Y-45995428D01*
X23430591Y-45999550D01*
X23449500Y-46057740D01*
X23449500Y-46259309D01*
X23476574Y-46360351D01*
X23480202Y-46373890D01*
X23539507Y-46476608D01*
X23539509Y-46476610D01*
X23539511Y-46476613D01*
X23623387Y-46560489D01*
X23623389Y-46560490D01*
X23623496Y-46560597D01*
X23623746Y-46560783D01*
X23625934Y-46561960D01*
X23723369Y-46618214D01*
X23725770Y-46619706D01*
X23726111Y-46619797D01*
X23726114Y-46619799D01*
X23840691Y-46650500D01*
X23959309Y-46650500D01*
X26656711Y-46650500D01*
X26687302Y-46655344D01*
X26710528Y-46662891D01*
X26749939Y-46687042D01*
X26823492Y-46760594D01*
X26823746Y-46760783D01*
X26825934Y-46761960D01*
X26923369Y-46818214D01*
X26925770Y-46819706D01*
X26926111Y-46819797D01*
X26926114Y-46819799D01*
X27040691Y-46850500D01*
X27040693Y-46850500D01*
X28959307Y-46850500D01*
X28959309Y-46850500D01*
X29073886Y-46819799D01*
X29073887Y-46819798D01*
X29073889Y-46819797D01*
X29073890Y-46819797D01*
X29170473Y-46764034D01*
X29173361Y-46762631D01*
X29174145Y-46762115D01*
X29179162Y-46759016D01*
X29180460Y-46758266D01*
X29185818Y-46751283D01*
X29260489Y-46676613D01*
X29260492Y-46676608D01*
X29306926Y-46596183D01*
X29326408Y-46572123D01*
X29332546Y-46566596D01*
X29388437Y-46541712D01*
X29448285Y-46554433D01*
X29489224Y-46599897D01*
X29490938Y-46603746D01*
X29499500Y-46644019D01*
X29499500Y-47384819D01*
X29494654Y-47415412D01*
X29490532Y-47428098D01*
X29454580Y-47477589D01*
X29450459Y-47480584D01*
X29392271Y-47499500D01*
X615180Y-47499500D01*
X584587Y-47494654D01*
X571901Y-47490532D01*
X522401Y-47454568D01*
X522394Y-47454558D01*
X519400Y-47450436D01*
X500500Y-47392256D01*
X500500Y-29749435D01*
X724499Y-29749435D01*
X734569Y-29787016D01*
X750090Y-29844941D01*
X758490Y-29859489D01*
X799523Y-29930559D01*
X799525Y-29930562D01*
X869438Y-30000475D01*
X869440Y-30000476D01*
X869990Y-30000873D01*
X872001Y-30001954D01*
X898288Y-30017132D01*
X919883Y-30041115D01*
X954192Y-30049692D01*
X955795Y-30050106D01*
X1050565Y-30075500D01*
X1050567Y-30075500D01*
X3149433Y-30075500D01*
X3149435Y-30075500D01*
X3244938Y-30049910D01*
X3244940Y-30049908D01*
X3244942Y-30049908D01*
X3270377Y-30035222D01*
X3330562Y-30000475D01*
X3400475Y-29930562D01*
X3441510Y-29859487D01*
X3449908Y-29844942D01*
X3449908Y-29844940D01*
X3449910Y-29844938D01*
X3475500Y-29749435D01*
X3475500Y-29562780D01*
X3480343Y-29532194D01*
X3484465Y-29519505D01*
X3520420Y-29470009D01*
X3522388Y-29468578D01*
X3570357Y-29450196D01*
X3574686Y-29449747D01*
X3595487Y-29449785D01*
X3602127Y-29450500D01*
X4222872Y-29450499D01*
X4282483Y-29444091D01*
X4349501Y-29419095D01*
X4376218Y-29409130D01*
X4406562Y-29402981D01*
X4417951Y-29402493D01*
X4476897Y-29418890D01*
X4514948Y-29466804D01*
X4514949Y-29466807D01*
X4518259Y-29475682D01*
X4524500Y-29510277D01*
X4524500Y-34791288D01*
X4519654Y-34821882D01*
X4516274Y-34832284D01*
X4480309Y-34881784D01*
X4422118Y-34900690D01*
X4370387Y-34886098D01*
X4365484Y-34883093D01*
X4347216Y-34868691D01*
X4338015Y-34859490D01*
X4338010Y-34859487D01*
X4269774Y-34820091D01*
X4248741Y-34796731D01*
X4182897Y-34779087D01*
X4182896Y-34779087D01*
X4072475Y-34749500D01*
X4072473Y-34749500D01*
X3927526Y-34749500D01*
X3927525Y-34749500D01*
X3874769Y-34763635D01*
X3788939Y-34786634D01*
X3787604Y-34786970D01*
X3787542Y-34787000D01*
X3787501Y-34787022D01*
X3743291Y-34812548D01*
X3743290Y-34812549D01*
X3730223Y-34820093D01*
X3713546Y-34829721D01*
X3689675Y-34839608D01*
X3665352Y-34846126D01*
X3639730Y-34849500D01*
X2559309Y-34849500D01*
X2440691Y-34849500D01*
X2405629Y-34858894D01*
X2370566Y-34868289D01*
X2370565Y-34868288D01*
X2326111Y-34880200D01*
X2326108Y-34880201D01*
X2223393Y-34939505D01*
X2139503Y-35023395D01*
X2080201Y-35126109D01*
X2079924Y-35126844D01*
X2079377Y-35129185D01*
X2050219Y-35238009D01*
X2050217Y-35238015D01*
X2049501Y-35240686D01*
X2049500Y-35240694D01*
X2049500Y-38839726D01*
X2046126Y-38865352D01*
X2039608Y-38889675D01*
X2029719Y-38913549D01*
X1987016Y-38987511D01*
X1962005Y-39080854D01*
X1949500Y-39127525D01*
X1949500Y-39272474D01*
X1982585Y-39395949D01*
X1987018Y-39412493D01*
X2059485Y-39538008D01*
X2059487Y-39538010D01*
X2059489Y-39538012D01*
X2059491Y-39538015D01*
X2161985Y-39640509D01*
X2161987Y-39640510D01*
X2162094Y-39640617D01*
X2162345Y-39640803D01*
X2164538Y-39641984D01*
X2277107Y-39706975D01*
X2284757Y-39711392D01*
X2287170Y-39712890D01*
X2287508Y-39712980D01*
X2287511Y-39712982D01*
X2287512Y-39712982D01*
X2287515Y-39712984D01*
X2427525Y-39750500D01*
X2427526Y-39750500D01*
X2572474Y-39750500D01*
X2572475Y-39750500D01*
X2712485Y-39712984D01*
X2712486Y-39712983D01*
X2712488Y-39712982D01*
X2712489Y-39712982D01*
X2831880Y-39644051D01*
X2834768Y-39642648D01*
X2835554Y-39642131D01*
X2840563Y-39639037D01*
X2841862Y-39638286D01*
X2847220Y-39631303D01*
X2940509Y-39538015D01*
X2940513Y-39538008D01*
X3012982Y-39412489D01*
X3012982Y-39412487D01*
X3012984Y-39412485D01*
X3050500Y-39272475D01*
X3050500Y-39127525D01*
X3012984Y-38987515D01*
X3012983Y-38987513D01*
X2970279Y-38913547D01*
X2960390Y-38889671D01*
X2953873Y-38865348D01*
X2950500Y-38839726D01*
X2950500Y-35865180D01*
X2955343Y-35834594D01*
X2959465Y-35821905D01*
X2995423Y-35772406D01*
X2996022Y-35771971D01*
X2999563Y-35769400D01*
X3057743Y-35750500D01*
X3639729Y-35750500D01*
X3665352Y-35753873D01*
X3689674Y-35760390D01*
X3713550Y-35770280D01*
X3787515Y-35812984D01*
X3927525Y-35850500D01*
X3927526Y-35850500D01*
X4072474Y-35850500D01*
X4072475Y-35850500D01*
X4212485Y-35812984D01*
X4212486Y-35812982D01*
X4212488Y-35812982D01*
X4212489Y-35812982D01*
X4300740Y-35762029D01*
X4331872Y-35744056D01*
X4334770Y-35742648D01*
X4335560Y-35742128D01*
X4340561Y-35739039D01*
X4354131Y-35731204D01*
X4371159Y-35715045D01*
X4379218Y-35710940D01*
X4439650Y-35701373D01*
X4494165Y-35729155D01*
X4520418Y-35776030D01*
X4521762Y-35781625D01*
X4524500Y-35804748D01*
X4524500Y-45549436D01*
X4530673Y-45572472D01*
X4530673Y-45572475D01*
X4530674Y-45572475D01*
X4550091Y-45644942D01*
X4599523Y-45730559D01*
X4599525Y-45730562D01*
X4669438Y-45800475D01*
X4669440Y-45800476D01*
X4669990Y-45800873D01*
X4672001Y-45801954D01*
X4698288Y-45817132D01*
X4719883Y-45841115D01*
X4754192Y-45849692D01*
X4755795Y-45850106D01*
X4850565Y-45875500D01*
X4949435Y-45875500D01*
X7140288Y-45875500D01*
X7170879Y-45880344D01*
X7194105Y-45887891D01*
X7233514Y-45912040D01*
X7259762Y-45938286D01*
X7261983Y-45940507D01*
X7261989Y-45940512D01*
X7384779Y-46011404D01*
X7387171Y-46012891D01*
X7387512Y-46012982D01*
X7387515Y-46012984D01*
X7527525Y-46050500D01*
X7527526Y-46050500D01*
X7672474Y-46050500D01*
X7672475Y-46050500D01*
X7812485Y-46012984D01*
X7812486Y-46012983D01*
X7812488Y-46012982D01*
X7812489Y-46012982D01*
X7931880Y-45944051D01*
X7934768Y-45942648D01*
X7935554Y-45942131D01*
X7940563Y-45939037D01*
X7941862Y-45938286D01*
X7947220Y-45931303D01*
X8040509Y-45838015D01*
X8052567Y-45817130D01*
X8112982Y-45712489D01*
X8112982Y-45712487D01*
X8112984Y-45712485D01*
X8150500Y-45572475D01*
X8150500Y-45427525D01*
X8112984Y-45287515D01*
X8112982Y-45287512D01*
X8112982Y-45287510D01*
X8112981Y-45287508D01*
X8112890Y-45287168D01*
X8111397Y-45284764D01*
X8041985Y-45164539D01*
X8040805Y-45162347D01*
X8040617Y-45162094D01*
X8040510Y-45161987D01*
X8040509Y-45161985D01*
X7938015Y-45059491D01*
X7938012Y-45059489D01*
X7938010Y-45059487D01*
X7869774Y-45020091D01*
X7848741Y-44996731D01*
X7782897Y-44979087D01*
X7782896Y-44979087D01*
X7672475Y-44949500D01*
X7672473Y-44949500D01*
X7527526Y-44949500D01*
X7527525Y-44949500D01*
X7486514Y-44960489D01*
X7387505Y-44987018D01*
X7261996Y-45059482D01*
X7261988Y-45059488D01*
X7261982Y-45059492D01*
X7261978Y-45059496D01*
X7237054Y-45084419D01*
X7212000Y-45102621D01*
X7190242Y-45113708D01*
X7145295Y-45124500D01*
X5390180Y-45124500D01*
X5359587Y-45119654D01*
X5346901Y-45115532D01*
X5297401Y-45079568D01*
X5297394Y-45079558D01*
X5294400Y-45075436D01*
X5275500Y-45017256D01*
X5275500Y-27250569D01*
X5275500Y-27250566D01*
X5272136Y-27238010D01*
X5249910Y-27155062D01*
X5249908Y-27155059D01*
X5249908Y-27155057D01*
X5249906Y-27155054D01*
X5249816Y-27154716D01*
X5248322Y-27152310D01*
X5201957Y-27072004D01*
X5200875Y-27069994D01*
X5200476Y-27069440D01*
X5200475Y-27069438D01*
X5130562Y-26999525D01*
X5130559Y-26999523D01*
X5102228Y-26983166D01*
X5081193Y-26959803D01*
X5007886Y-26940160D01*
X5007886Y-26940161D01*
X4949435Y-26924500D01*
X4949433Y-26924500D01*
X3790180Y-26924500D01*
X3759587Y-26919654D01*
X3746901Y-26915532D01*
X3697401Y-26879568D01*
X3697394Y-26879558D01*
X3694400Y-26875436D01*
X3675500Y-26817256D01*
X3675500Y-23859711D01*
X3680344Y-23829122D01*
X3687891Y-23805891D01*
X3712041Y-23766482D01*
X3740509Y-23738015D01*
X3812984Y-23612485D01*
X3850500Y-23472475D01*
X3850500Y-23327525D01*
X3812984Y-23187515D01*
X3812982Y-23187512D01*
X3812982Y-23187510D01*
X3812981Y-23187508D01*
X3812890Y-23187168D01*
X3811397Y-23184764D01*
X3741985Y-23064539D01*
X3740805Y-23062347D01*
X3740617Y-23062094D01*
X3740510Y-23061987D01*
X3740509Y-23061985D01*
X3638015Y-22959491D01*
X3638012Y-22959489D01*
X3638010Y-22959487D01*
X3638009Y-22959486D01*
X3569775Y-22920091D01*
X3548741Y-22896730D01*
X3406182Y-22858532D01*
X3406182Y-22858531D01*
X3406180Y-22858531D01*
X3372477Y-22849500D01*
X3372475Y-22849500D01*
X3227525Y-22849500D01*
X3193822Y-22858531D01*
X3193818Y-22858532D01*
X3087509Y-22887017D01*
X3037578Y-22915845D01*
X3008664Y-22926944D01*
X2997520Y-22929313D01*
X2936670Y-22922919D01*
X2891200Y-22881979D01*
X2888760Y-22877753D01*
X2875500Y-22828259D01*
X2875500Y-21659711D01*
X2880344Y-21629122D01*
X2882008Y-21624000D01*
X2887891Y-21605891D01*
X2912041Y-21566482D01*
X2940509Y-21538015D01*
X2941289Y-21536664D01*
X2953040Y-21516311D01*
X2953041Y-21516309D01*
X3012982Y-21412489D01*
X3012982Y-21412487D01*
X3012984Y-21412485D01*
X3050500Y-21272475D01*
X3050500Y-21220488D01*
X3055343Y-21189902D01*
X3060125Y-21175183D01*
X3092995Y-21128023D01*
X3105368Y-21118270D01*
X3111868Y-21113563D01*
X3114435Y-21111857D01*
X3238015Y-21040509D01*
X3256022Y-21022501D01*
X3269938Y-21008585D01*
X3278172Y-21003118D01*
X3281297Y-21002246D01*
X3287997Y-20997379D01*
X3309763Y-20986288D01*
X3354705Y-20975500D01*
X4049433Y-20975500D01*
X4049434Y-20975500D01*
X4049435Y-20975500D01*
X4109737Y-20959341D01*
X4140526Y-20956104D01*
X4152821Y-20956748D01*
X4209939Y-20978671D01*
X4242561Y-21027489D01*
X4245421Y-21037142D01*
X4249500Y-21065265D01*
X4249500Y-21172477D01*
X4258163Y-21204806D01*
X4258163Y-21204808D01*
X4258164Y-21204808D01*
X4287018Y-21312493D01*
X4359485Y-21438008D01*
X4359487Y-21438010D01*
X4359489Y-21438012D01*
X4359491Y-21438015D01*
X4461985Y-21540509D01*
X4461987Y-21540510D01*
X4462094Y-21540617D01*
X4462345Y-21540803D01*
X4464538Y-21541984D01*
X4520049Y-21574033D01*
X4584757Y-21611392D01*
X4587170Y-21612890D01*
X4587508Y-21612980D01*
X4587511Y-21612982D01*
X4587512Y-21612982D01*
X4587515Y-21612984D01*
X4727525Y-21650500D01*
X4727526Y-21650500D01*
X4872474Y-21650500D01*
X4872475Y-21650500D01*
X5012485Y-21612984D01*
X5012486Y-21612983D01*
X5012488Y-21612982D01*
X5012489Y-21612982D01*
X5131880Y-21544051D01*
X5134768Y-21542648D01*
X5135554Y-21542131D01*
X5140563Y-21539037D01*
X5141863Y-21538286D01*
X5147225Y-21531299D01*
X5162164Y-21516360D01*
X5162216Y-21516308D01*
X5162895Y-21515628D01*
X5187995Y-21497379D01*
X5209764Y-21486288D01*
X5254705Y-21475500D01*
X5634820Y-21475500D01*
X5665408Y-21480343D01*
X5678095Y-21484466D01*
X5727595Y-21520427D01*
X5727596Y-21520428D01*
X5730591Y-21524550D01*
X5749500Y-21582740D01*
X5749500Y-21624678D01*
X5749500Y-21624682D01*
X5749501Y-21624684D01*
X5755371Y-21654192D01*
X5761452Y-21684764D01*
X5764033Y-21697736D01*
X5764035Y-21697742D01*
X5819397Y-21780599D01*
X5819399Y-21780601D01*
X5819402Y-21780603D01*
X5819404Y-21780605D01*
X5902260Y-21835966D01*
X5957807Y-21847015D01*
X5957808Y-21847015D01*
X5969240Y-21849289D01*
X5971405Y-21849863D01*
X5973579Y-21850216D01*
X5975152Y-21850500D01*
X5975326Y-21850500D01*
X5975327Y-21850500D01*
X7724673Y-21850500D01*
X7724674Y-21850500D01*
X7724675Y-21850499D01*
X7724682Y-21850499D01*
X7774831Y-21840523D01*
X7781750Y-21841341D01*
X7807514Y-21834073D01*
X7807515Y-21834075D01*
X7821552Y-21830115D01*
X7882688Y-21832514D01*
X7930730Y-21870378D01*
X7932803Y-21873479D01*
X7949500Y-21928498D01*
X7949500Y-21972474D01*
X7982585Y-22095949D01*
X7987018Y-22112493D01*
X8059486Y-22238010D01*
X8084419Y-22262944D01*
X8102623Y-22288000D01*
X8113709Y-22309757D01*
X8124500Y-22354703D01*
X8124500Y-27240287D01*
X8119654Y-27270881D01*
X8112107Y-27294107D01*
X8087959Y-27333514D01*
X8059496Y-27361978D01*
X8059494Y-27361981D01*
X8059492Y-27361983D01*
X8059488Y-27361988D01*
X8059482Y-27361996D01*
X7987018Y-27487505D01*
X7982803Y-27503235D01*
X7949500Y-27627525D01*
X7949500Y-27772474D01*
X7982585Y-27895949D01*
X7987018Y-27912493D01*
X8059485Y-28038008D01*
X8059487Y-28038010D01*
X8059489Y-28038012D01*
X8059491Y-28038015D01*
X8161985Y-28140509D01*
X8161987Y-28140510D01*
X8162094Y-28140617D01*
X8162345Y-28140803D01*
X8164538Y-28141984D01*
X8191850Y-28157752D01*
X8284757Y-28211392D01*
X8287170Y-28212890D01*
X8287508Y-28212980D01*
X8287511Y-28212982D01*
X8287512Y-28212982D01*
X8287515Y-28212984D01*
X8427525Y-28250500D01*
X8427526Y-28250500D01*
X8572474Y-28250500D01*
X8572475Y-28250500D01*
X8712485Y-28212984D01*
X8712487Y-28212982D01*
X8712489Y-28212982D01*
X8762426Y-28184150D01*
X8791335Y-28173054D01*
X8802484Y-28170684D01*
X8863333Y-28177081D01*
X8908789Y-28218001D01*
X8911225Y-28222221D01*
X8924500Y-28271738D01*
X8924500Y-44340287D01*
X8919654Y-44370881D01*
X8912107Y-44394107D01*
X8887959Y-44433514D01*
X8859496Y-44461978D01*
X8859492Y-44461982D01*
X8859488Y-44461988D01*
X8859482Y-44461996D01*
X8787018Y-44587505D01*
X8767778Y-44659309D01*
X8749500Y-44727525D01*
X8749500Y-44872475D01*
X8750609Y-44876613D01*
X8787018Y-45012493D01*
X8859485Y-45138008D01*
X8859487Y-45138010D01*
X8859489Y-45138012D01*
X8859491Y-45138015D01*
X8961985Y-45240509D01*
X8961987Y-45240510D01*
X8962094Y-45240617D01*
X8962345Y-45240803D01*
X8964538Y-45241984D01*
X9043392Y-45287510D01*
X9084757Y-45311392D01*
X9087170Y-45312890D01*
X9087508Y-45312980D01*
X9087511Y-45312982D01*
X9087512Y-45312982D01*
X9087515Y-45312984D01*
X9227525Y-45350500D01*
X9227526Y-45350500D01*
X9372474Y-45350500D01*
X9372475Y-45350500D01*
X9512485Y-45312984D01*
X9512486Y-45312983D01*
X9512488Y-45312982D01*
X9512489Y-45312982D01*
X9631880Y-45244051D01*
X9634768Y-45242648D01*
X9635554Y-45242131D01*
X9640563Y-45239037D01*
X9641862Y-45238286D01*
X9647220Y-45231303D01*
X9740509Y-45138015D01*
X9773182Y-45081424D01*
X9812982Y-45012489D01*
X9812982Y-45012487D01*
X9812984Y-45012485D01*
X9850500Y-44872475D01*
X9850500Y-44727525D01*
X9812984Y-44587515D01*
X9812982Y-44587512D01*
X9812982Y-44587510D01*
X9812981Y-44587508D01*
X9812890Y-44587168D01*
X9811397Y-44584764D01*
X9740516Y-44461996D01*
X9740512Y-44461989D01*
X9740507Y-44461983D01*
X9715581Y-44437056D01*
X9697377Y-44411999D01*
X9686287Y-44390234D01*
X9675500Y-44345294D01*
X9675500Y-26461224D01*
X9678368Y-26452395D01*
X9677156Y-26443191D01*
X9680343Y-26430638D01*
X9683723Y-26420233D01*
X9692940Y-26407545D01*
X9694407Y-26403033D01*
X9698244Y-26400245D01*
X9719683Y-26370733D01*
X9777872Y-26351822D01*
X9829612Y-26366414D01*
X9834515Y-26369419D01*
X9852784Y-26383822D01*
X9868648Y-26399685D01*
X9869438Y-26400475D01*
X9869440Y-26400476D01*
X9955058Y-26449908D01*
X9955056Y-26449908D01*
X9955060Y-26449909D01*
X9955062Y-26449910D01*
X10043004Y-26473474D01*
X10059989Y-26479740D01*
X10072257Y-26485591D01*
X10075741Y-26487253D01*
X10120122Y-26529372D01*
X10131271Y-26589528D01*
X10130204Y-26597634D01*
X10117788Y-26634214D01*
X10087017Y-26687509D01*
X10054244Y-26809819D01*
X10049500Y-26827525D01*
X10049500Y-26972474D01*
X10076169Y-27072004D01*
X10087018Y-27112493D01*
X10159486Y-27238010D01*
X10184419Y-27262944D01*
X10202623Y-27288000D01*
X10213709Y-27309757D01*
X10224500Y-27354703D01*
X10224500Y-32149434D01*
X10234701Y-32187509D01*
X10250090Y-32244941D01*
X10250091Y-32244942D01*
X10299523Y-32330559D01*
X10299525Y-32330562D01*
X10369438Y-32400475D01*
X10369440Y-32400476D01*
X10369990Y-32400873D01*
X10372001Y-32401954D01*
X10398288Y-32417132D01*
X10419883Y-32441115D01*
X10454192Y-32449692D01*
X10455795Y-32450106D01*
X10550565Y-32475500D01*
X10649435Y-32475500D01*
X13209820Y-32475500D01*
X13240408Y-32480343D01*
X13253095Y-32484466D01*
X13302595Y-32520427D01*
X13302596Y-32520428D01*
X13305591Y-32524550D01*
X13324500Y-32582740D01*
X13324500Y-34137907D01*
X13319654Y-34168501D01*
X13316133Y-34179337D01*
X13280169Y-34228837D01*
X13221979Y-34247743D01*
X13212508Y-34247743D01*
X13177912Y-34241501D01*
X13154535Y-34232782D01*
X13082483Y-34205909D01*
X13082479Y-34205908D01*
X13082477Y-34205908D01*
X13082460Y-34205906D01*
X13078381Y-34205403D01*
X13077206Y-34205341D01*
X13060312Y-34203524D01*
X13051249Y-34202550D01*
X13051248Y-34202549D01*
X13022876Y-34199500D01*
X13022873Y-34199500D01*
X13022870Y-34199500D01*
X12954500Y-34199500D01*
X12896309Y-34180593D01*
X12860345Y-34131093D01*
X12855500Y-34100500D01*
X12855500Y-33899505D01*
X12855500Y-33899499D01*
X12852355Y-33859534D01*
X12847510Y-33828941D01*
X12843595Y-33809260D01*
X12801859Y-33718726D01*
X12792868Y-33706351D01*
X12765898Y-33669229D01*
X12765896Y-33669227D01*
X12765895Y-33669226D01*
X12725125Y-33625122D01*
X12686857Y-33603690D01*
X12638146Y-33576411D01*
X12579950Y-33557502D01*
X12501004Y-33544999D01*
X12501001Y-33544999D01*
X11998654Y-33544999D01*
X11964057Y-33538757D01*
X11919714Y-33522218D01*
X11894982Y-33508713D01*
X11861373Y-33483553D01*
X11841449Y-33463630D01*
X11807191Y-33417868D01*
X11799723Y-33406292D01*
X11792232Y-33392689D01*
X11774417Y-33360336D01*
X11774414Y-33360332D01*
X11774413Y-33360330D01*
X11739856Y-33314847D01*
X11739848Y-33314836D01*
X11702339Y-33275121D01*
X11655048Y-33248638D01*
X11615359Y-33226412D01*
X11577961Y-33214261D01*
X11557163Y-33207503D01*
X11478219Y-33195000D01*
X11478216Y-33195000D01*
X10749500Y-33195000D01*
X10709535Y-33198145D01*
X10681045Y-33202656D01*
X10678929Y-33202992D01*
X10659259Y-33206905D01*
X10568731Y-33248638D01*
X10568726Y-33248641D01*
X10519230Y-33284601D01*
X10519227Y-33284604D01*
X10475122Y-33325376D01*
X10475121Y-33325377D01*
X10455544Y-33360336D01*
X10426412Y-33412357D01*
X10420109Y-33431754D01*
X10407503Y-33470552D01*
X10395000Y-33549496D01*
X10395000Y-33549500D01*
X10395000Y-34879558D01*
X10395861Y-34886098D01*
X10403706Y-34945684D01*
X10403706Y-34945687D01*
X10416971Y-34995191D01*
X10442492Y-35056804D01*
X10442495Y-35056809D01*
X10475194Y-35113446D01*
X10485081Y-35137313D01*
X10487778Y-35147376D01*
X10487779Y-35147381D01*
X10491626Y-35161737D01*
X10495000Y-35187363D01*
X10495000Y-35250500D01*
X10498145Y-35290465D01*
X10501562Y-35312040D01*
X10502992Y-35321070D01*
X10506905Y-35340740D01*
X10548638Y-35431268D01*
X10548641Y-35431273D01*
X10584601Y-35480769D01*
X10584604Y-35480772D01*
X10584605Y-35480773D01*
X10625376Y-35524878D01*
X10712357Y-35573588D01*
X10770548Y-35592495D01*
X10770549Y-35592495D01*
X10770552Y-35592496D01*
X10849497Y-35605000D01*
X10849500Y-35605000D01*
X11212636Y-35605000D01*
X11238257Y-35608373D01*
X11262678Y-35614916D01*
X11286558Y-35624807D01*
X11308440Y-35637441D01*
X11328942Y-35653173D01*
X11369860Y-35694090D01*
X11376945Y-35701175D01*
X11391678Y-35714794D01*
X11403485Y-35724878D01*
X11490466Y-35773588D01*
X11548657Y-35792495D01*
X11548658Y-35792495D01*
X11548661Y-35792496D01*
X11627606Y-35805000D01*
X11627609Y-35805000D01*
X12500994Y-35805000D01*
X12501000Y-35805000D01*
X12540965Y-35801855D01*
X12571558Y-35797010D01*
X12591239Y-35793095D01*
X12681773Y-35751359D01*
X12718222Y-35724877D01*
X12725753Y-35719406D01*
X12783943Y-35700499D01*
X13022867Y-35700499D01*
X13022872Y-35700499D01*
X13082483Y-35694091D01*
X13149907Y-35668943D01*
X13149910Y-35668942D01*
X13215697Y-35644406D01*
X13219030Y-35643230D01*
X13222582Y-35642047D01*
X13230167Y-35634186D01*
X13332546Y-35557546D01*
X13418796Y-35442331D01*
X13459497Y-35333202D01*
X13474720Y-35306245D01*
X13483019Y-35295795D01*
X13534006Y-35261987D01*
X13540412Y-35260204D01*
X13592562Y-35259958D01*
X13650565Y-35275500D01*
X13749435Y-35275500D01*
X20040288Y-35275500D01*
X20070879Y-35280344D01*
X20094105Y-35287891D01*
X20133514Y-35312040D01*
X20159762Y-35338286D01*
X20161983Y-35340507D01*
X20161989Y-35340512D01*
X20284779Y-35411404D01*
X20287171Y-35412891D01*
X20287512Y-35412982D01*
X20287515Y-35412984D01*
X20427525Y-35450500D01*
X20427526Y-35450500D01*
X20572474Y-35450500D01*
X20572475Y-35450500D01*
X20712485Y-35412984D01*
X20712486Y-35412983D01*
X20712488Y-35412982D01*
X20712489Y-35412982D01*
X20831880Y-35344051D01*
X20834768Y-35342648D01*
X20835554Y-35342131D01*
X20840563Y-35339037D01*
X20841862Y-35338286D01*
X20847220Y-35331303D01*
X20940509Y-35238015D01*
X21002588Y-35130492D01*
X21012982Y-35112489D01*
X21012982Y-35112487D01*
X21012984Y-35112485D01*
X21050500Y-34972475D01*
X21050500Y-34827525D01*
X21012984Y-34687515D01*
X21012982Y-34687512D01*
X21012982Y-34687510D01*
X21012981Y-34687508D01*
X21012890Y-34687168D01*
X21011397Y-34684764D01*
X20941985Y-34564539D01*
X20940805Y-34562347D01*
X20940617Y-34562094D01*
X20940510Y-34561987D01*
X20940509Y-34561985D01*
X20838015Y-34459491D01*
X20838012Y-34459489D01*
X20838010Y-34459487D01*
X20838009Y-34459486D01*
X20769775Y-34420091D01*
X20748741Y-34396730D01*
X20658214Y-34372474D01*
X20634202Y-34366040D01*
X20572475Y-34349500D01*
X20572474Y-34349500D01*
X20427523Y-34349500D01*
X20365788Y-34366041D01*
X20365787Y-34366040D01*
X20287512Y-34387015D01*
X20287506Y-34387018D01*
X20161996Y-34459482D01*
X20161988Y-34459488D01*
X20161982Y-34459492D01*
X20161978Y-34459496D01*
X20137054Y-34484419D01*
X20112000Y-34502621D01*
X20090242Y-34513708D01*
X20045295Y-34524500D01*
X14190180Y-34524500D01*
X14159587Y-34519654D01*
X14146901Y-34515532D01*
X14097401Y-34479568D01*
X14097394Y-34479558D01*
X14094400Y-34475436D01*
X14075500Y-34417256D01*
X14075500Y-32050566D01*
X14075500Y-32050565D01*
X14049910Y-31955062D01*
X14049908Y-31955059D01*
X14049908Y-31955057D01*
X14049906Y-31955054D01*
X14049816Y-31954717D01*
X14048322Y-31952310D01*
X14001957Y-31872004D01*
X14000875Y-31869994D01*
X14000476Y-31869440D01*
X14000475Y-31869438D01*
X13930562Y-31799525D01*
X13930559Y-31799523D01*
X13902228Y-31783166D01*
X13881193Y-31759803D01*
X13807886Y-31740160D01*
X13807886Y-31740161D01*
X13749435Y-31724500D01*
X13749433Y-31724500D01*
X11090180Y-31724500D01*
X11059587Y-31719654D01*
X11046901Y-31715532D01*
X10997401Y-31679568D01*
X10997394Y-31679558D01*
X10994400Y-31675436D01*
X10975500Y-31617256D01*
X10975500Y-30227525D01*
X17849500Y-30227525D01*
X17849500Y-30372474D01*
X17882585Y-30495949D01*
X17887018Y-30512493D01*
X17959486Y-30638010D01*
X17984419Y-30662944D01*
X18002623Y-30688000D01*
X18013709Y-30709757D01*
X18024500Y-30754703D01*
X18024500Y-32449436D01*
X18030673Y-32472472D01*
X18030673Y-32472475D01*
X18030674Y-32472475D01*
X18050091Y-32544942D01*
X18099523Y-32630559D01*
X18099525Y-32630562D01*
X18169438Y-32700475D01*
X18169440Y-32700476D01*
X18169990Y-32700873D01*
X18172001Y-32701954D01*
X18198288Y-32717132D01*
X18219883Y-32741115D01*
X18254192Y-32749692D01*
X18255795Y-32750106D01*
X18350565Y-32775500D01*
X18540288Y-32775500D01*
X18570879Y-32780344D01*
X18594105Y-32787891D01*
X18633514Y-32812040D01*
X18659762Y-32838286D01*
X18661983Y-32840507D01*
X18661989Y-32840512D01*
X18784779Y-32911404D01*
X18787171Y-32912891D01*
X18787512Y-32912982D01*
X18787515Y-32912984D01*
X18927525Y-32950500D01*
X18927526Y-32950500D01*
X19072474Y-32950500D01*
X19072475Y-32950500D01*
X19212485Y-32912984D01*
X19212486Y-32912983D01*
X19212488Y-32912982D01*
X19212489Y-32912982D01*
X19331880Y-32844051D01*
X19334768Y-32842648D01*
X19335554Y-32842131D01*
X19340563Y-32839037D01*
X19341862Y-32838286D01*
X19347220Y-32831303D01*
X19440509Y-32738015D01*
X19452567Y-32717130D01*
X19512982Y-32612489D01*
X19512982Y-32612487D01*
X19512984Y-32612485D01*
X19550500Y-32472475D01*
X19550500Y-32327525D01*
X19512984Y-32187515D01*
X19512982Y-32187512D01*
X19512982Y-32187510D01*
X19512981Y-32187508D01*
X19512890Y-32187168D01*
X19511397Y-32184764D01*
X19441985Y-32064539D01*
X19440805Y-32062347D01*
X19440617Y-32062094D01*
X19440510Y-32061987D01*
X19440509Y-32061985D01*
X19338015Y-31959491D01*
X19338012Y-31959489D01*
X19338010Y-31959487D01*
X19338009Y-31959486D01*
X19269775Y-31920091D01*
X19248741Y-31896730D01*
X19146891Y-31869440D01*
X19096811Y-31856021D01*
X19072475Y-31849500D01*
X19072474Y-31849500D01*
X18927521Y-31849500D01*
X18915266Y-31852784D01*
X18884463Y-31856021D01*
X18872176Y-31855377D01*
X18815055Y-31833450D01*
X18782433Y-31784623D01*
X18779573Y-31774968D01*
X18775500Y-31746861D01*
X18775500Y-30759711D01*
X18780344Y-30729122D01*
X18780532Y-30728544D01*
X18787891Y-30705891D01*
X18812041Y-30666482D01*
X18840509Y-30638015D01*
X18840512Y-30638010D01*
X18912982Y-30512489D01*
X18912982Y-30512487D01*
X18912984Y-30512485D01*
X18950500Y-30372475D01*
X18950500Y-30227525D01*
X18912984Y-30087515D01*
X18912982Y-30087512D01*
X18912982Y-30087510D01*
X18912981Y-30087508D01*
X18912890Y-30087168D01*
X18911397Y-30084764D01*
X18841985Y-29964539D01*
X18840805Y-29962347D01*
X18840617Y-29962094D01*
X18840510Y-29961987D01*
X18840509Y-29961985D01*
X18738015Y-29859491D01*
X18738012Y-29859489D01*
X18738010Y-29859487D01*
X18669774Y-29820091D01*
X18648741Y-29796731D01*
X18582897Y-29779087D01*
X18582896Y-29779087D01*
X18472475Y-29749500D01*
X18472473Y-29749500D01*
X18327523Y-29749500D01*
X18265788Y-29766041D01*
X18265787Y-29766040D01*
X18187512Y-29787015D01*
X18187506Y-29787018D01*
X18061993Y-29859483D01*
X17959483Y-29961993D01*
X17887018Y-30087505D01*
X17866042Y-30165787D01*
X17849500Y-30227525D01*
X10975500Y-30227525D01*
X10975500Y-30061224D01*
X10980343Y-30030638D01*
X10980509Y-30030128D01*
X10983723Y-30020233D01*
X11019683Y-29970733D01*
X11077872Y-29951822D01*
X11129612Y-29966414D01*
X11134515Y-29969419D01*
X11152784Y-29983822D01*
X11169436Y-30000473D01*
X11169438Y-30000475D01*
X11169440Y-30000476D01*
X11169990Y-30000873D01*
X11172001Y-30001954D01*
X11198288Y-30017132D01*
X11209991Y-30030128D01*
X11224799Y-30039438D01*
X11226093Y-30042667D01*
X11254192Y-30049692D01*
X11255795Y-30050106D01*
X11350565Y-30075500D01*
X11350567Y-30075500D01*
X15949433Y-30075500D01*
X15949435Y-30075500D01*
X16044938Y-30049910D01*
X16044940Y-30049908D01*
X16044942Y-30049908D01*
X16070377Y-30035222D01*
X16130562Y-30000475D01*
X16200475Y-29930562D01*
X16249910Y-29844938D01*
X16274920Y-29751596D01*
X16276384Y-29746658D01*
X16277522Y-29743154D01*
X16277523Y-29743155D01*
X16283867Y-29723631D01*
X16319833Y-29674133D01*
X16378020Y-29655228D01*
X16387488Y-29655228D01*
X16422084Y-29661469D01*
X16442517Y-29669091D01*
X16502127Y-29675500D01*
X17497872Y-29675499D01*
X17557483Y-29669091D01*
X17624907Y-29643943D01*
X17624910Y-29643942D01*
X17690697Y-29619406D01*
X17694030Y-29618230D01*
X17697582Y-29617047D01*
X17705167Y-29609186D01*
X17807546Y-29532546D01*
X17893796Y-29417331D01*
X17944091Y-29282483D01*
X17950500Y-29222873D01*
X17950499Y-28602128D01*
X17944091Y-28542517D01*
X17909796Y-28450566D01*
X17893797Y-28407670D01*
X17809156Y-28294605D01*
X17807881Y-28292802D01*
X17807633Y-28292522D01*
X17807541Y-28292449D01*
X17692330Y-28206202D01*
X17692328Y-28206201D01*
X17562428Y-28157752D01*
X17558939Y-28156234D01*
X17558025Y-28155996D01*
X17555927Y-28155540D01*
X17552206Y-28155341D01*
X17535312Y-28153524D01*
X17526249Y-28152550D01*
X17526248Y-28152549D01*
X17497876Y-28149500D01*
X17497873Y-28149500D01*
X17497870Y-28149500D01*
X16502133Y-28149500D01*
X16502129Y-28149500D01*
X16493938Y-28149500D01*
X16487975Y-28151021D01*
X16479069Y-28151978D01*
X16442520Y-28155907D01*
X16442514Y-28155908D01*
X16442514Y-28155909D01*
X16442506Y-28155912D01*
X16307671Y-28206200D01*
X16192456Y-28292451D01*
X16192448Y-28292459D01*
X16106205Y-28407664D01*
X16106204Y-28407667D01*
X16097559Y-28430845D01*
X16097558Y-28430847D01*
X16097557Y-28430848D01*
X16097558Y-28430848D01*
X16092127Y-28445408D01*
X16076899Y-28472375D01*
X16067878Y-28483735D01*
X16018921Y-28516956D01*
X16007864Y-28520288D01*
X15979298Y-28524500D01*
X15850560Y-28524500D01*
X15836548Y-28528254D01*
X15832751Y-28528961D01*
X15828881Y-28528454D01*
X15809458Y-28530495D01*
X15797175Y-28529851D01*
X15775239Y-28521430D01*
X15772083Y-28521017D01*
X15770666Y-28519674D01*
X15740054Y-28507923D01*
X15707435Y-28459104D01*
X15704576Y-28449452D01*
X15700499Y-28421335D01*
X15700499Y-27977133D01*
X15700499Y-27977132D01*
X15700499Y-27977128D01*
X15694091Y-27917517D01*
X15692214Y-27912485D01*
X15653121Y-27807669D01*
X15643798Y-27782671D01*
X15617025Y-27746908D01*
X15559156Y-27669605D01*
X15557807Y-27667696D01*
X15557637Y-27667522D01*
X15537426Y-27652392D01*
X15537424Y-27652390D01*
X15442332Y-27581203D01*
X15429593Y-27576452D01*
X15402625Y-27561222D01*
X15391264Y-27552200D01*
X15358041Y-27503237D01*
X15354709Y-27492182D01*
X15350500Y-27463621D01*
X15350500Y-21267717D01*
X15355345Y-21237126D01*
X15357631Y-21230090D01*
X15393594Y-21180589D01*
X15451784Y-21161681D01*
X15509975Y-21180587D01*
X15541217Y-21218217D01*
X15541283Y-21218356D01*
X15547478Y-21235193D01*
X15549464Y-21242605D01*
X15550090Y-21244941D01*
X15550091Y-21244942D01*
X15599523Y-21330559D01*
X15599525Y-21330562D01*
X15669438Y-21400475D01*
X15669440Y-21400476D01*
X15669990Y-21400873D01*
X15672001Y-21401954D01*
X15698288Y-21417132D01*
X15719883Y-21441115D01*
X15754192Y-21449692D01*
X15755795Y-21450106D01*
X15850565Y-21475500D01*
X16634820Y-21475500D01*
X16665408Y-21480343D01*
X16678095Y-21484466D01*
X16727595Y-21520427D01*
X16727596Y-21520428D01*
X16730591Y-21524550D01*
X16749500Y-21582740D01*
X16749500Y-21624678D01*
X16749500Y-21624682D01*
X16749501Y-21624684D01*
X16755371Y-21654192D01*
X16761452Y-21684764D01*
X16764033Y-21697736D01*
X16764035Y-21697742D01*
X16819397Y-21780599D01*
X16819399Y-21780601D01*
X16819402Y-21780603D01*
X16819404Y-21780605D01*
X16902260Y-21835966D01*
X16957807Y-21847015D01*
X16957808Y-21847015D01*
X16969240Y-21849289D01*
X16971405Y-21849863D01*
X16973579Y-21850216D01*
X16975152Y-21850500D01*
X16975326Y-21850500D01*
X16975327Y-21850500D01*
X18724673Y-21850500D01*
X18724674Y-21850500D01*
X18797740Y-21835966D01*
X18880601Y-21780601D01*
X18935966Y-21697740D01*
X18950500Y-21624674D01*
X18950500Y-21590180D01*
X18955343Y-21559594D01*
X18959465Y-21546905D01*
X18995423Y-21497406D01*
X18996022Y-21496971D01*
X18999563Y-21494400D01*
X19057743Y-21475500D01*
X22934820Y-21475500D01*
X22965408Y-21480343D01*
X22978095Y-21484466D01*
X23027595Y-21520427D01*
X23027596Y-21520428D01*
X23030591Y-21524550D01*
X23049500Y-21582740D01*
X23049500Y-21624678D01*
X23049500Y-21624682D01*
X23049501Y-21624684D01*
X23055371Y-21654192D01*
X23061452Y-21684764D01*
X23064033Y-21697736D01*
X23064035Y-21697742D01*
X23119397Y-21780599D01*
X23119399Y-21780601D01*
X23119402Y-21780603D01*
X23119404Y-21780605D01*
X23202260Y-21835966D01*
X23257807Y-21847015D01*
X23257808Y-21847015D01*
X23269240Y-21849289D01*
X23271405Y-21849863D01*
X23273579Y-21850216D01*
X23275152Y-21850500D01*
X23275326Y-21850500D01*
X23275327Y-21850500D01*
X25024673Y-21850500D01*
X25024674Y-21850500D01*
X25097740Y-21835966D01*
X25180601Y-21780601D01*
X25228019Y-21709634D01*
X25235045Y-21700351D01*
X25243174Y-21690829D01*
X25243175Y-21690830D01*
X25259170Y-21672096D01*
X25308830Y-21640757D01*
X25412485Y-21612984D01*
X25412487Y-21612982D01*
X25412489Y-21612982D01*
X25531880Y-21544051D01*
X25534768Y-21542648D01*
X25535554Y-21542131D01*
X25540563Y-21539037D01*
X25541862Y-21538286D01*
X25547220Y-21531303D01*
X25640509Y-21438015D01*
X25640512Y-21438010D01*
X25712982Y-21312489D01*
X25712982Y-21312487D01*
X25712984Y-21312485D01*
X25750500Y-21172475D01*
X25750500Y-21027525D01*
X25712984Y-20887515D01*
X25712982Y-20887512D01*
X25712982Y-20887510D01*
X25712981Y-20887508D01*
X25712890Y-20887168D01*
X25711397Y-20884764D01*
X25641985Y-20764539D01*
X25640805Y-20762347D01*
X25640617Y-20762094D01*
X25640510Y-20761987D01*
X25640509Y-20761985D01*
X25538015Y-20659491D01*
X25538012Y-20659489D01*
X25538010Y-20659487D01*
X25538009Y-20659486D01*
X25412490Y-20587017D01*
X25315718Y-20561087D01*
X25287423Y-20548488D01*
X25268164Y-20535981D01*
X25239775Y-20507961D01*
X25180602Y-20419400D01*
X25180599Y-20419397D01*
X25180595Y-20419394D01*
X25180593Y-20419392D01*
X25097748Y-20364038D01*
X25097737Y-20364032D01*
X25097534Y-20363964D01*
X25095997Y-20363687D01*
X25024694Y-20349503D01*
X25024684Y-20349501D01*
X25024679Y-20349500D01*
X25024676Y-20349500D01*
X25024674Y-20349500D01*
X23275326Y-20349500D01*
X23275325Y-20349500D01*
X23275322Y-20349500D01*
X23275318Y-20349500D01*
X23275315Y-20349501D01*
X23239039Y-20356717D01*
X23202261Y-20364033D01*
X23202256Y-20364035D01*
X23119403Y-20419394D01*
X23119394Y-20419403D01*
X23064035Y-20502256D01*
X23064033Y-20502261D01*
X23049500Y-20575320D01*
X23049500Y-20609819D01*
X23044654Y-20640412D01*
X23040532Y-20653098D01*
X23004580Y-20702589D01*
X23000459Y-20705584D01*
X22942271Y-20724500D01*
X19065180Y-20724500D01*
X19034587Y-20719654D01*
X19021901Y-20715532D01*
X18972401Y-20679568D01*
X18972394Y-20679558D01*
X18969400Y-20675436D01*
X18950500Y-20617256D01*
X18950500Y-20575328D01*
X18950497Y-20575311D01*
X18945363Y-20549499D01*
X18945363Y-20549498D01*
X18935966Y-20502260D01*
X18935965Y-20502258D01*
X18880604Y-20419403D01*
X18880602Y-20419400D01*
X18880599Y-20419397D01*
X18880595Y-20419394D01*
X18880593Y-20419392D01*
X18797748Y-20364038D01*
X18797737Y-20364032D01*
X18797534Y-20363964D01*
X18795997Y-20363687D01*
X18724694Y-20349503D01*
X18724684Y-20349501D01*
X18724679Y-20349500D01*
X18724676Y-20349500D01*
X18724674Y-20349500D01*
X16975326Y-20349500D01*
X16975325Y-20349500D01*
X16975322Y-20349500D01*
X16975318Y-20349500D01*
X16975315Y-20349501D01*
X16939039Y-20356717D01*
X16902261Y-20364033D01*
X16902256Y-20364035D01*
X16819403Y-20419394D01*
X16819394Y-20419403D01*
X16764035Y-20502256D01*
X16764033Y-20502261D01*
X16749500Y-20575320D01*
X16749500Y-20609819D01*
X16744654Y-20640412D01*
X16740532Y-20653098D01*
X16704580Y-20702589D01*
X16700459Y-20705584D01*
X16642271Y-20724500D01*
X16390180Y-20724500D01*
X16359587Y-20719654D01*
X16346901Y-20715532D01*
X16297401Y-20679568D01*
X16297394Y-20679558D01*
X16294400Y-20675436D01*
X16275500Y-20617256D01*
X16275500Y-19859711D01*
X16280344Y-19829122D01*
X16282110Y-19823686D01*
X16287891Y-19805891D01*
X16312041Y-19766482D01*
X16340509Y-19738015D01*
X16412984Y-19612485D01*
X16450500Y-19472475D01*
X16450500Y-19327525D01*
X16412984Y-19187515D01*
X16412982Y-19187512D01*
X16412982Y-19187510D01*
X16412981Y-19187508D01*
X16412890Y-19187168D01*
X16411397Y-19184764D01*
X16341985Y-19064539D01*
X16340805Y-19062347D01*
X16340617Y-19062094D01*
X16340510Y-19061987D01*
X16340509Y-19061985D01*
X16238015Y-18959491D01*
X16238012Y-18959489D01*
X16238010Y-18959487D01*
X16238009Y-18959486D01*
X16169775Y-18920091D01*
X16148741Y-18896730D01*
X16046891Y-18869440D01*
X16011836Y-18860047D01*
X15972475Y-18849500D01*
X15972474Y-18849500D01*
X15827525Y-18849500D01*
X15790249Y-18859487D01*
X15790250Y-18859488D01*
X15687510Y-18887017D01*
X15687508Y-18887017D01*
X15687504Y-18887019D01*
X15561017Y-18960047D01*
X15559243Y-18961317D01*
X15556694Y-18963016D01*
X15551616Y-18969859D01*
X15530588Y-18990886D01*
X15505532Y-19009090D01*
X15500971Y-19011414D01*
X15440539Y-19020986D01*
X15386022Y-18993209D01*
X15358244Y-18938693D01*
X15361872Y-18892609D01*
X15362894Y-18889464D01*
X15387042Y-18850058D01*
X15460489Y-18776613D01*
X15466593Y-18766041D01*
X15519797Y-18673890D01*
X15519797Y-18673888D01*
X15519799Y-18673886D01*
X15550500Y-18559309D01*
X15550500Y-18365180D01*
X15555343Y-18334594D01*
X15559465Y-18321905D01*
X15595423Y-18272406D01*
X15596022Y-18271971D01*
X15599563Y-18269400D01*
X15657743Y-18250500D01*
X15859307Y-18250500D01*
X15859309Y-18250500D01*
X15973886Y-18219799D01*
X15973887Y-18219798D01*
X15973889Y-18219797D01*
X15973890Y-18219797D01*
X16070473Y-18164034D01*
X16073361Y-18162631D01*
X16074145Y-18162115D01*
X16079162Y-18159016D01*
X16080460Y-18158266D01*
X16085818Y-18151283D01*
X16160489Y-18076613D01*
X16219799Y-17973886D01*
X16250500Y-17859309D01*
X16250500Y-11321069D01*
X16255344Y-11290480D01*
X16259467Y-11277790D01*
X16295425Y-11228293D01*
X16306221Y-11220450D01*
X16333816Y-11206390D01*
X16480025Y-11158884D01*
X16655405Y-11069524D01*
X16814646Y-10953828D01*
X16953828Y-10814646D01*
X17069524Y-10655405D01*
X17158884Y-10480025D01*
X17219709Y-10292826D01*
X17222944Y-10272405D01*
X17224312Y-10263765D01*
X17224312Y-10263764D01*
X17250500Y-10098422D01*
X17250500Y-9901575D01*
X17219711Y-9707184D01*
X17219710Y-9707178D01*
X17219709Y-9707174D01*
X17158884Y-9519975D01*
X17069524Y-9344595D01*
X16953828Y-9185354D01*
X16814646Y-9046172D01*
X16814642Y-9046169D01*
X16814640Y-9046167D01*
X16661706Y-8935053D01*
X16661438Y-8934824D01*
X16655405Y-8930476D01*
X16655404Y-8930475D01*
X16655402Y-8930474D01*
X16655401Y-8930473D01*
X16655395Y-8930469D01*
X16655139Y-8930340D01*
X16480025Y-8841116D01*
X16292815Y-8780287D01*
X16098424Y-8749500D01*
X16098420Y-8749500D01*
X16098417Y-8749500D01*
X15901583Y-8749500D01*
X15901580Y-8749500D01*
X15901576Y-8749500D01*
X15707182Y-8780287D01*
X15519973Y-8841116D01*
X15344597Y-8930473D01*
X15344591Y-8930477D01*
X15185360Y-9046166D01*
X15046166Y-9185360D01*
X14930475Y-9344594D01*
X14912333Y-9380202D01*
X14860929Y-9481091D01*
X14860799Y-9481346D01*
X14860604Y-9481726D01*
X14842530Y-9506528D01*
X14830095Y-9518964D01*
X14783207Y-9545225D01*
X14776802Y-9546763D01*
X14753689Y-9549500D01*
X14165180Y-9549500D01*
X14134587Y-9544654D01*
X14121901Y-9540532D01*
X14072401Y-9504568D01*
X14072394Y-9504558D01*
X14069400Y-9500436D01*
X14050500Y-9442256D01*
X14050500Y-8340693D01*
X14050499Y-8340689D01*
X14045146Y-8320708D01*
X14045146Y-8320707D01*
X14019707Y-8225772D01*
X14018224Y-8223384D01*
X13961960Y-8125934D01*
X13960783Y-8123746D01*
X13960597Y-8123496D01*
X13960490Y-8123389D01*
X13960489Y-8123387D01*
X13876613Y-8039511D01*
X13876610Y-8039509D01*
X13876608Y-8039507D01*
X13831175Y-8013276D01*
X13810142Y-7989916D01*
X13760352Y-7976574D01*
X13760351Y-7976574D01*
X13659309Y-7949500D01*
X13659307Y-7949500D01*
X6140692Y-7949500D01*
X6140691Y-7949500D01*
X6105629Y-7958894D01*
X6070566Y-7968289D01*
X6070565Y-7968288D01*
X6026111Y-7980200D01*
X6026108Y-7980201D01*
X5923393Y-8039505D01*
X5839505Y-8123393D01*
X5780203Y-8226106D01*
X5780202Y-8226108D01*
X5780202Y-8226109D01*
X5764034Y-8286452D01*
X5749500Y-8340693D01*
X5749500Y-9439726D01*
X5746126Y-9465352D01*
X5739608Y-9489675D01*
X5729719Y-9513549D01*
X5687015Y-9587514D01*
X5676672Y-9626113D01*
X5676673Y-9626114D01*
X5654951Y-9707184D01*
X5649500Y-9727526D01*
X5649500Y-9872476D01*
X5657299Y-9901580D01*
X5657299Y-9901583D01*
X5657300Y-9901583D01*
X5687018Y-10012493D01*
X5759485Y-10138008D01*
X5759487Y-10138010D01*
X5759489Y-10138012D01*
X5759491Y-10138015D01*
X5861985Y-10240509D01*
X5861987Y-10240510D01*
X5862094Y-10240617D01*
X5862345Y-10240803D01*
X5864538Y-10241984D01*
X5949972Y-10291309D01*
X5984757Y-10311392D01*
X5987170Y-10312890D01*
X5987508Y-10312980D01*
X5987511Y-10312982D01*
X5987512Y-10312982D01*
X5987515Y-10312984D01*
X6127525Y-10350500D01*
X6127526Y-10350500D01*
X6272474Y-10350500D01*
X6272475Y-10350500D01*
X6412485Y-10312984D01*
X6412486Y-10312983D01*
X6412488Y-10312982D01*
X6412489Y-10312982D01*
X6531880Y-10244051D01*
X6534767Y-10242649D01*
X6535549Y-10242134D01*
X6540562Y-10239038D01*
X6541861Y-10238287D01*
X6547220Y-10231303D01*
X6591538Y-10186984D01*
X6616591Y-10168782D01*
X6626744Y-10163609D01*
X6687175Y-10154039D01*
X6741675Y-10181801D01*
X6743902Y-10184027D01*
X6771692Y-10238537D01*
X6771695Y-10238560D01*
X6780288Y-10292819D01*
X6780289Y-10292825D01*
X6820205Y-10415669D01*
X6841116Y-10480025D01*
X6853613Y-10504553D01*
X6930476Y-10655405D01*
X7046172Y-10814646D01*
X7185354Y-10953828D01*
X7344595Y-11069524D01*
X7519975Y-11158884D01*
X7706974Y-11219644D01*
X7707169Y-11219708D01*
X7707172Y-11219708D01*
X7707174Y-11219709D01*
X7707175Y-11219709D01*
X7707178Y-11219710D01*
X7813577Y-11236561D01*
X7901577Y-11250500D01*
X8098420Y-11250500D01*
X8098423Y-11250500D01*
X8175711Y-11238258D01*
X8292821Y-11219710D01*
X8292821Y-11219709D01*
X8292823Y-11219709D01*
X8292826Y-11219709D01*
X8292829Y-11219708D01*
X8295405Y-11219300D01*
X8300212Y-11217308D01*
X8480025Y-11158884D01*
X8655405Y-11069524D01*
X8814646Y-10953828D01*
X8953828Y-10814646D01*
X9069524Y-10655405D01*
X9158884Y-10480025D01*
X9219709Y-10292826D01*
X9222944Y-10272405D01*
X9224312Y-10263765D01*
X9224312Y-10263764D01*
X9250500Y-10098422D01*
X9250500Y-9901575D01*
X9219711Y-9707184D01*
X9219710Y-9707178D01*
X9219709Y-9707174D01*
X9158884Y-9519975D01*
X9069524Y-9344595D01*
X8953828Y-9185354D01*
X8814646Y-9046172D01*
X8814642Y-9046169D01*
X8814641Y-9046168D01*
X8814640Y-9046167D01*
X8814639Y-9046166D01*
X8804516Y-9038812D01*
X8782610Y-9016907D01*
X8777764Y-9010237D01*
X8758857Y-8952047D01*
X8777765Y-8893856D01*
X8827262Y-8857893D01*
X8835110Y-8855343D01*
X8865697Y-8850500D01*
X11134303Y-8850500D01*
X11164891Y-8855343D01*
X11172733Y-8857891D01*
X11222233Y-8893853D01*
X11241143Y-8952043D01*
X11222238Y-9010234D01*
X11222235Y-9010239D01*
X11217391Y-9016906D01*
X11195489Y-9038808D01*
X11185353Y-9046171D01*
X11046169Y-9185356D01*
X10930477Y-9344591D01*
X10930473Y-9344597D01*
X10841116Y-9519973D01*
X10780287Y-9707183D01*
X10749500Y-9901574D01*
X10749500Y-10098423D01*
X10780288Y-10292821D01*
X10780289Y-10292825D01*
X10820205Y-10415669D01*
X10841116Y-10480025D01*
X10853613Y-10504553D01*
X10930476Y-10655405D01*
X11046172Y-10814646D01*
X11185354Y-10953828D01*
X11344595Y-11069524D01*
X11519975Y-11158884D01*
X11706974Y-11219644D01*
X11707169Y-11219708D01*
X11707172Y-11219708D01*
X11707174Y-11219709D01*
X11707175Y-11219709D01*
X11707178Y-11219710D01*
X11813577Y-11236561D01*
X11901577Y-11250500D01*
X12098420Y-11250500D01*
X12098423Y-11250500D01*
X12175711Y-11238258D01*
X12292821Y-11219710D01*
X12292821Y-11219709D01*
X12292823Y-11219709D01*
X12292826Y-11219709D01*
X12292829Y-11219708D01*
X12295405Y-11219300D01*
X12300212Y-11217308D01*
X12480025Y-11158884D01*
X12655405Y-11069524D01*
X12814646Y-10953828D01*
X12953828Y-10814646D01*
X13069524Y-10655405D01*
X13158884Y-10480025D01*
X13174950Y-10430577D01*
X13189008Y-10402984D01*
X13196748Y-10392332D01*
X13246247Y-10356372D01*
X13302450Y-10354898D01*
X13310859Y-10357150D01*
X13334727Y-10367036D01*
X13426114Y-10419799D01*
X13540691Y-10450500D01*
X14749725Y-10450500D01*
X14780313Y-10455343D01*
X14797038Y-10460778D01*
X14841733Y-10490644D01*
X14846007Y-10495649D01*
X14858932Y-10514993D01*
X14930476Y-10655405D01*
X15046172Y-10814646D01*
X15185354Y-10953828D01*
X15296009Y-11034224D01*
X15317906Y-11056121D01*
X15330591Y-11073580D01*
X15349500Y-11131769D01*
X15349500Y-17234819D01*
X15344654Y-17265412D01*
X15340532Y-17278098D01*
X15304580Y-17327589D01*
X15300459Y-17330584D01*
X15242271Y-17349500D01*
X15159309Y-17349500D01*
X15040691Y-17349500D01*
X15005629Y-17358894D01*
X14970566Y-17368289D01*
X14970565Y-17368288D01*
X14926111Y-17380200D01*
X14926108Y-17380201D01*
X14823393Y-17439505D01*
X14739503Y-17523395D01*
X14680201Y-17626109D01*
X14679924Y-17626844D01*
X14679377Y-17629185D01*
X14650219Y-17738009D01*
X14650217Y-17738015D01*
X14649501Y-17740686D01*
X14649500Y-17740694D01*
X14649500Y-18056709D01*
X14644654Y-18087303D01*
X14637107Y-18110529D01*
X14612957Y-18149938D01*
X14539515Y-18223380D01*
X14539507Y-18223389D01*
X14480203Y-18326106D01*
X14480202Y-18326108D01*
X14480202Y-18326109D01*
X14473935Y-18349500D01*
X14449500Y-18440693D01*
X14449500Y-27522082D01*
X14444654Y-27552676D01*
X14437921Y-27573397D01*
X14403097Y-27622055D01*
X14342454Y-27667453D01*
X14342451Y-27667456D01*
X14342450Y-27667458D01*
X14336430Y-27675500D01*
X14256200Y-27782671D01*
X14205912Y-27917504D01*
X14205910Y-27917508D01*
X14205910Y-27917511D01*
X14205908Y-27917522D01*
X14199500Y-27977129D01*
X14199500Y-29022866D01*
X14199501Y-29022870D01*
X14205908Y-29082480D01*
X14205909Y-29082485D01*
X14218896Y-29117305D01*
X14218897Y-29117309D01*
X14240867Y-29176212D01*
X14247018Y-29206568D01*
X14247506Y-29217949D01*
X14231109Y-29276896D01*
X14191308Y-29308504D01*
X14188325Y-29311749D01*
X14186847Y-29312046D01*
X14183196Y-29314947D01*
X14174322Y-29318257D01*
X14139723Y-29324500D01*
X11890180Y-29324500D01*
X11859587Y-29319654D01*
X11846901Y-29315532D01*
X11797401Y-29279568D01*
X11797394Y-29279558D01*
X11794400Y-29275436D01*
X11775500Y-29217256D01*
X11775500Y-26050564D01*
X11774271Y-26045979D01*
X11774269Y-26045973D01*
X11749818Y-25954720D01*
X11748322Y-25952310D01*
X11701957Y-25872004D01*
X11700875Y-25869994D01*
X11700476Y-25869440D01*
X11700475Y-25869438D01*
X11630562Y-25799525D01*
X11630559Y-25799523D01*
X11602228Y-25783166D01*
X11581193Y-25759803D01*
X11507886Y-25740160D01*
X11507886Y-25740161D01*
X11449435Y-25724500D01*
X11449433Y-25724500D01*
X10590180Y-25724500D01*
X10559587Y-25719654D01*
X10546901Y-25715532D01*
X10497401Y-25679568D01*
X10497394Y-25679558D01*
X10494400Y-25675436D01*
X10475500Y-25617256D01*
X10475500Y-25259711D01*
X10480344Y-25229122D01*
X10487891Y-25205891D01*
X10512041Y-25166482D01*
X10540509Y-25138015D01*
X10612984Y-25012485D01*
X10650500Y-24872475D01*
X10650500Y-24727525D01*
X10612984Y-24587515D01*
X10612982Y-24587512D01*
X10612982Y-24587510D01*
X10612981Y-24587508D01*
X10612890Y-24587168D01*
X10611397Y-24584764D01*
X10541985Y-24464539D01*
X10540805Y-24462347D01*
X10540617Y-24462094D01*
X10540510Y-24461987D01*
X10540509Y-24461985D01*
X10438015Y-24359491D01*
X10438012Y-24359489D01*
X10438010Y-24359487D01*
X10438009Y-24359486D01*
X10369775Y-24320091D01*
X10348741Y-24296730D01*
X10206182Y-24258532D01*
X10206182Y-24258531D01*
X10206180Y-24258531D01*
X10172477Y-24249500D01*
X10172475Y-24249500D01*
X10027525Y-24249500D01*
X9993822Y-24258531D01*
X9993818Y-24258532D01*
X9887509Y-24287017D01*
X9837578Y-24315845D01*
X9808664Y-24326944D01*
X9797520Y-24329313D01*
X9736670Y-24322919D01*
X9691200Y-24281979D01*
X9688760Y-24277753D01*
X9675500Y-24228259D01*
X9675500Y-23359711D01*
X9680344Y-23329122D01*
X9680863Y-23327525D01*
X9687891Y-23305891D01*
X9712041Y-23266482D01*
X9740509Y-23238015D01*
X9812984Y-23112485D01*
X9850500Y-22972475D01*
X9850500Y-22827525D01*
X9812984Y-22687515D01*
X9812982Y-22687512D01*
X9812982Y-22687510D01*
X9812981Y-22687508D01*
X9812890Y-22687168D01*
X9811397Y-22684764D01*
X9741985Y-22564539D01*
X9740805Y-22562347D01*
X9740617Y-22562094D01*
X9740510Y-22561987D01*
X9740509Y-22561985D01*
X9638015Y-22459491D01*
X9638012Y-22459489D01*
X9638010Y-22459487D01*
X9569774Y-22420091D01*
X9548741Y-22396731D01*
X9482897Y-22379087D01*
X9482896Y-22379087D01*
X9372475Y-22349500D01*
X9372473Y-22349500D01*
X9227527Y-22349500D01*
X9227525Y-22349500D01*
X9117103Y-22379087D01*
X9100017Y-22383665D01*
X9087509Y-22387017D01*
X9051966Y-22407538D01*
X9023049Y-22418638D01*
X9015813Y-22420176D01*
X8954963Y-22413780D01*
X8909494Y-22372838D01*
X8896773Y-22312990D01*
X8913353Y-22267688D01*
X8913440Y-22267560D01*
X8925313Y-22253209D01*
X8940509Y-22238015D01*
X8983994Y-22162697D01*
X9012982Y-22112489D01*
X9012982Y-22112487D01*
X9012984Y-22112485D01*
X9050500Y-21972475D01*
X9050500Y-21827525D01*
X9012984Y-21687515D01*
X9012982Y-21687512D01*
X9012982Y-21687510D01*
X9012981Y-21687508D01*
X9012890Y-21687168D01*
X9011397Y-21684764D01*
X8996932Y-21659711D01*
X8984152Y-21637577D01*
X8973054Y-21608665D01*
X8970683Y-21597511D01*
X8977082Y-21536664D01*
X9018023Y-21491197D01*
X9022244Y-21488760D01*
X9071739Y-21475500D01*
X11934820Y-21475500D01*
X11965408Y-21480343D01*
X11978095Y-21484466D01*
X12027595Y-21520427D01*
X12027596Y-21520428D01*
X12030591Y-21524550D01*
X12049500Y-21582740D01*
X12049500Y-21624678D01*
X12049500Y-21624682D01*
X12049501Y-21624684D01*
X12055371Y-21654192D01*
X12061452Y-21684764D01*
X12064033Y-21697736D01*
X12064035Y-21697742D01*
X12119397Y-21780599D01*
X12119399Y-21780601D01*
X12119402Y-21780603D01*
X12119404Y-21780605D01*
X12202260Y-21835966D01*
X12257807Y-21847015D01*
X12257808Y-21847015D01*
X12269240Y-21849289D01*
X12271405Y-21849863D01*
X12273579Y-21850216D01*
X12275152Y-21850500D01*
X12275326Y-21850500D01*
X12275327Y-21850500D01*
X14024673Y-21850500D01*
X14024674Y-21850500D01*
X14097740Y-21835966D01*
X14180601Y-21780601D01*
X14235966Y-21697740D01*
X14250500Y-21624674D01*
X14250500Y-20575326D01*
X14235966Y-20502260D01*
X14235964Y-20502257D01*
X14180602Y-20419400D01*
X14180599Y-20419397D01*
X14180595Y-20419394D01*
X14180593Y-20419392D01*
X14097748Y-20364038D01*
X14097737Y-20364032D01*
X14097534Y-20363964D01*
X14095997Y-20363687D01*
X14024694Y-20349503D01*
X14024684Y-20349501D01*
X14024679Y-20349500D01*
X14024676Y-20349500D01*
X14024674Y-20349500D01*
X12275326Y-20349500D01*
X12275325Y-20349500D01*
X12275322Y-20349500D01*
X12275318Y-20349500D01*
X12275315Y-20349501D01*
X12239039Y-20356717D01*
X12202261Y-20364033D01*
X12202256Y-20364035D01*
X12119403Y-20419394D01*
X12119394Y-20419403D01*
X12064035Y-20502256D01*
X12064033Y-20502261D01*
X12049500Y-20575320D01*
X12049500Y-20609819D01*
X12044654Y-20640412D01*
X12040532Y-20653098D01*
X12004580Y-20702589D01*
X12000459Y-20705584D01*
X11942271Y-20724500D01*
X9877730Y-20724500D01*
X9847133Y-20719653D01*
X9836298Y-20716132D01*
X9786800Y-20680166D01*
X9767895Y-20621979D01*
X9767895Y-20617109D01*
X9781157Y-20567610D01*
X9812982Y-20512489D01*
X9812982Y-20512487D01*
X9812984Y-20512485D01*
X9850500Y-20372475D01*
X9850500Y-20227525D01*
X9812984Y-20087515D01*
X9812982Y-20087512D01*
X9812982Y-20087510D01*
X9812981Y-20087508D01*
X9812890Y-20087168D01*
X9811397Y-20084764D01*
X9741985Y-19964539D01*
X9740805Y-19962347D01*
X9740617Y-19962094D01*
X9740510Y-19961987D01*
X9740509Y-19961985D01*
X9638015Y-19859491D01*
X9638012Y-19859489D01*
X9638010Y-19859487D01*
X9638009Y-19859486D01*
X9569775Y-19820091D01*
X9548741Y-19796730D01*
X9406182Y-19758532D01*
X9406182Y-19758531D01*
X9406180Y-19758531D01*
X9372477Y-19749500D01*
X9372475Y-19749500D01*
X9227525Y-19749500D01*
X9193822Y-19758531D01*
X9193818Y-19758532D01*
X9087509Y-19787017D01*
X9037578Y-19815845D01*
X9008664Y-19826944D01*
X8997520Y-19829313D01*
X8936670Y-19822919D01*
X8891200Y-19781979D01*
X8888760Y-19777753D01*
X8875500Y-19728259D01*
X8875500Y-19050566D01*
X8875500Y-19050565D01*
X8849910Y-18955062D01*
X8849908Y-18955059D01*
X8849908Y-18955057D01*
X8849906Y-18955054D01*
X8849816Y-18954716D01*
X8848322Y-18952310D01*
X8804012Y-18875565D01*
X8804011Y-18875563D01*
X8800476Y-18869440D01*
X8800475Y-18869438D01*
X8730562Y-18799525D01*
X8730559Y-18799523D01*
X8702228Y-18783166D01*
X8681193Y-18759803D01*
X8607886Y-18740160D01*
X8607886Y-18740161D01*
X8549435Y-18724500D01*
X6249435Y-18724500D01*
X6150565Y-18724500D01*
X6150563Y-18724500D01*
X6092115Y-18740159D01*
X6092116Y-18740160D01*
X6055058Y-18750090D01*
X5969444Y-18799519D01*
X5899520Y-18869443D01*
X5898433Y-18870861D01*
X5886129Y-18884171D01*
X5870552Y-18898195D01*
X5824905Y-18921454D01*
X5820760Y-18922335D01*
X5800174Y-18924500D01*
X5259712Y-18924500D01*
X5229118Y-18919654D01*
X5205892Y-18912107D01*
X5166485Y-18887959D01*
X5138021Y-18859497D01*
X5138016Y-18859492D01*
X5138010Y-18859487D01*
X5069774Y-18820091D01*
X5048741Y-18796730D01*
X4973642Y-18776608D01*
X4934202Y-18766040D01*
X4872475Y-18749500D01*
X4872474Y-18749500D01*
X4727523Y-18749500D01*
X4665788Y-18766041D01*
X4665787Y-18766040D01*
X4587512Y-18787015D01*
X4587506Y-18787018D01*
X4461017Y-18860047D01*
X4459243Y-18861317D01*
X4441329Y-18873260D01*
X4440949Y-18872690D01*
X4428002Y-18885379D01*
X4420797Y-18889051D01*
X4360365Y-18898629D01*
X4305846Y-18870856D01*
X4279577Y-18823953D01*
X4278234Y-18818358D01*
X4275500Y-18795251D01*
X4275500Y-18054464D01*
X4280343Y-18023880D01*
X4282025Y-18018701D01*
X4284145Y-18012176D01*
X4320103Y-17962675D01*
X4375712Y-17943796D01*
X4385781Y-17943533D01*
X4413978Y-17946870D01*
X4417846Y-17947906D01*
X4419997Y-17948723D01*
X4427523Y-17950500D01*
X4427524Y-17950500D01*
X4427525Y-17950500D01*
X4572474Y-17950500D01*
X4572475Y-17950500D01*
X4712485Y-17912984D01*
X4712486Y-17912982D01*
X4712488Y-17912982D01*
X4712489Y-17912982D01*
X4831872Y-17844056D01*
X4834770Y-17842648D01*
X4835560Y-17842128D01*
X4840561Y-17839039D01*
X4841860Y-17838288D01*
X4847224Y-17831299D01*
X4856022Y-17822501D01*
X4862949Y-17815574D01*
X4887997Y-17797379D01*
X4909763Y-17786288D01*
X4954705Y-17775500D01*
X5740288Y-17775500D01*
X5770879Y-17780344D01*
X5794105Y-17787891D01*
X5833514Y-17812040D01*
X5859762Y-17838286D01*
X5861983Y-17840507D01*
X5861989Y-17840512D01*
X5984779Y-17911404D01*
X5987171Y-17912891D01*
X5987512Y-17912982D01*
X5987515Y-17912984D01*
X6127525Y-17950500D01*
X6127526Y-17950500D01*
X6272474Y-17950500D01*
X6272475Y-17950500D01*
X6412485Y-17912984D01*
X6412486Y-17912983D01*
X6412488Y-17912982D01*
X6412489Y-17912982D01*
X6531880Y-17844051D01*
X6534768Y-17842648D01*
X6535554Y-17842131D01*
X6540563Y-17839037D01*
X6541862Y-17838286D01*
X6547220Y-17831303D01*
X6640509Y-17738015D01*
X6650161Y-17721297D01*
X6712982Y-17612489D01*
X6712982Y-17612487D01*
X6712984Y-17612485D01*
X6750500Y-17472475D01*
X6750500Y-17327525D01*
X6712984Y-17187515D01*
X6712982Y-17187512D01*
X6712982Y-17187510D01*
X6712981Y-17187508D01*
X6712890Y-17187168D01*
X6711397Y-17184764D01*
X6641985Y-17064539D01*
X6640805Y-17062347D01*
X6640617Y-17062094D01*
X6640510Y-17061987D01*
X6640509Y-17061985D01*
X6538015Y-16959491D01*
X6538012Y-16959489D01*
X6538010Y-16959487D01*
X6469774Y-16920091D01*
X6448741Y-16896731D01*
X6382897Y-16879087D01*
X6382896Y-16879087D01*
X6272475Y-16849500D01*
X6272473Y-16849500D01*
X6127526Y-16849500D01*
X6127525Y-16849500D01*
X6080931Y-16861985D01*
X5987505Y-16887018D01*
X5861996Y-16959482D01*
X5861988Y-16959488D01*
X5861982Y-16959492D01*
X5861978Y-16959496D01*
X5837054Y-16984419D01*
X5812000Y-17002621D01*
X5790242Y-17013708D01*
X5745295Y-17024500D01*
X4959712Y-17024500D01*
X4929118Y-17019654D01*
X4905892Y-17012107D01*
X4866485Y-16987959D01*
X4838021Y-16959497D01*
X4838020Y-16959496D01*
X4838016Y-16959492D01*
X4838010Y-16959487D01*
X4838005Y-16959484D01*
X4769776Y-16920092D01*
X4748742Y-16896731D01*
X4682897Y-16879087D01*
X4682896Y-16879087D01*
X4572475Y-16849500D01*
X4572473Y-16849500D01*
X4427526Y-16849500D01*
X4427525Y-16849500D01*
X4380931Y-16861985D01*
X4287505Y-16887018D01*
X4161996Y-16959482D01*
X4161988Y-16959488D01*
X4161982Y-16959492D01*
X4161978Y-16959496D01*
X4137054Y-16984419D01*
X4112000Y-17002621D01*
X4090242Y-17013708D01*
X4045295Y-17024500D01*
X3107175Y-17024500D01*
X3076578Y-17019653D01*
X3058530Y-17013788D01*
X3015564Y-16985888D01*
X3012727Y-16982738D01*
X3000558Y-16965992D01*
X2941976Y-16864525D01*
X2940803Y-16862344D01*
X2940617Y-16862094D01*
X2940510Y-16861987D01*
X2940509Y-16861985D01*
X2838015Y-16759491D01*
X2838012Y-16759489D01*
X2838010Y-16759487D01*
X2769774Y-16720091D01*
X2748741Y-16696731D01*
X2682897Y-16679087D01*
X2682896Y-16679087D01*
X2572475Y-16649500D01*
X2572473Y-16649500D01*
X2427523Y-16649500D01*
X2365788Y-16666041D01*
X2365787Y-16666040D01*
X2287512Y-16687015D01*
X2287506Y-16687018D01*
X2161993Y-16759483D01*
X2059483Y-16861993D01*
X1987018Y-16987505D01*
X1967061Y-17061985D01*
X1949500Y-17127525D01*
X1949500Y-17272474D01*
X1978366Y-17380202D01*
X1987018Y-17412493D01*
X2059485Y-17538008D01*
X2059487Y-17538010D01*
X2059489Y-17538012D01*
X2059491Y-17538015D01*
X2161985Y-17640509D01*
X2161987Y-17640510D01*
X2162094Y-17640617D01*
X2162345Y-17640803D01*
X2164546Y-17641988D01*
X2264116Y-17699475D01*
X2270852Y-17706956D01*
X2281971Y-17711557D01*
X2282693Y-17711942D01*
X2284217Y-17712487D01*
X2286830Y-17713569D01*
X2287166Y-17713735D01*
X2287536Y-17713860D01*
X2293203Y-17716205D01*
X2293203Y-17716206D01*
X2299497Y-17718810D01*
X2311130Y-17724545D01*
X2355062Y-17749910D01*
X2450565Y-17775500D01*
X3409820Y-17775500D01*
X3440408Y-17780343D01*
X3453095Y-17784466D01*
X3502595Y-17820427D01*
X3502596Y-17820428D01*
X3505591Y-17824550D01*
X3524500Y-17882740D01*
X3524500Y-19209819D01*
X3519654Y-19240412D01*
X3515532Y-19253098D01*
X3479580Y-19302589D01*
X3475459Y-19305584D01*
X3417271Y-19324500D01*
X3350563Y-19324500D01*
X3292115Y-19340159D01*
X3292116Y-19340160D01*
X3255058Y-19350090D01*
X3255055Y-19350091D01*
X3199065Y-19382417D01*
X3193695Y-19383558D01*
X3194357Y-19384856D01*
X3137727Y-19413710D01*
X3092782Y-19424500D01*
X2050563Y-19424500D01*
X1992115Y-19440159D01*
X1992116Y-19440160D01*
X1955058Y-19450090D01*
X1869444Y-19499519D01*
X1799521Y-19569442D01*
X1750090Y-19655056D01*
X1750089Y-19655059D01*
X1735782Y-19708455D01*
X1724651Y-19750001D01*
X1724627Y-19750091D01*
X1724500Y-19750560D01*
X1724500Y-19913042D01*
X1719654Y-19943635D01*
X1715532Y-19956321D01*
X1679568Y-20005821D01*
X1670631Y-20012314D01*
X1638065Y-20027848D01*
X1555063Y-20050088D01*
X1469441Y-20099522D01*
X1399521Y-20169442D01*
X1350090Y-20255056D01*
X1350089Y-20255059D01*
X1335782Y-20308451D01*
X1335783Y-20308452D01*
X1324785Y-20349501D01*
X1324778Y-20349529D01*
X1324500Y-20350565D01*
X1324500Y-26809819D01*
X1319654Y-26840412D01*
X1315532Y-26853098D01*
X1279580Y-26902589D01*
X1275459Y-26905584D01*
X1217271Y-26924500D01*
X1050563Y-26924500D01*
X992115Y-26940159D01*
X992116Y-26940160D01*
X955058Y-26950090D01*
X869444Y-26999519D01*
X799521Y-27069442D01*
X750089Y-27155060D01*
X749812Y-27155793D01*
X749266Y-27158134D01*
X724500Y-27250565D01*
X724500Y-29749435D01*
X724499Y-29749435D01*
X500500Y-29749435D01*
X500500Y-7614680D01*
X505343Y-7584094D01*
X509465Y-7571405D01*
X545423Y-7521906D01*
X547265Y-7520569D01*
X549563Y-7518900D01*
X607743Y-7500000D01*
X1067354Y-7500000D01*
X1097942Y-7504843D01*
G37*
%TD.AperFunction*%
%TD*%
M02*
