%TF.GenerationSoftware,KiCad,Pcbnew,10.0.6*%
%TF.CreationDate,2026-10-01T17:26:23+07:00*%
%TF.ProjectId,samsung-rev1.0,73616d73-756e-4672-9d72-6576312e302e,rev?*%
%TF.SameCoordinates,Original*%
%TF.FileFunction,Copper,L1,Top*%
%TF.FilePolarity,Positive*%
%FSLAX46Y46*%
G04 Gerber Fmt 4.6, Leading zero omitted, Abs format (unit mm)*
G04 Created by KiCad (PCBNEW 10.0.6) date 2026-10-01 17:26:23*
%MOMM*%
%LPD*%
G01*
G04 APERTURE LIST*
G04 Aperture macros list*
%AMRoundRect*
0 Rectangle with rounded corners*
0 $1 Rounding radius*
0 $2 $3 $4 $5 $6 $7 $8 $9 X,Y pos of 4 corners*
0 Add a 4 corners polygon primitive as box body*
4,1,4,$2,$3,$4,$5,$6,$7,$8,$9,$2,$3,0*
0 Add four circle primitives for the rounded corners*
1,1,$1+$1,$2,$3*
1,1,$1+$1,$4,$5*
1,1,$1+$1,$6,$7*
1,1,$1+$1,$8,$9*
0 Add four rect primitives between the rounded corners*
20,1,$1+$1,$2,$3,$4,$5,0*
20,1,$1+$1,$4,$5,$6,$7,0*
20,1,$1+$1,$6,$7,$8,$9,0*
20,1,$1+$1,$8,$9,$2,$3,0*%
G04 Aperture macros list end*
%TA.AperFunction,SMDPad,CuDef*%
%ADD10C,2.000000*%
%TD*%
%TA.AperFunction,SMDPad,CuDef*%
%ADD11RoundRect,0.250000X0.450000X-0.262500X0.450000X0.262500X-0.450000X0.262500X-0.450000X-0.262500X0*%
%TD*%
%TA.AperFunction,SMDPad,CuDef*%
%ADD12R,1.000000X1.500000*%
%TD*%
%TA.AperFunction,SMDPad,CuDef*%
%ADD13R,1.500000X0.900000*%
%TD*%
%TA.AperFunction,SMDPad,CuDef*%
%ADD14R,0.900000X1.500000*%
%TD*%
%TA.AperFunction,HeatsinkPad*%
%ADD15C,0.600000*%
%TD*%
%TA.AperFunction,HeatsinkPad*%
%ADD16R,3.900000X3.900000*%
%TD*%
%TA.AperFunction,SMDPad,CuDef*%
%ADD17RoundRect,0.250000X-0.250000X-0.475000X0.250000X-0.475000X0.250000X0.475000X-0.250000X0.475000X0*%
%TD*%
%TA.AperFunction,SMDPad,CuDef*%
%ADD18RoundRect,0.375000X-0.625000X-0.375000X0.625000X-0.375000X0.625000X0.375000X-0.625000X0.375000X0*%
%TD*%
%TA.AperFunction,SMDPad,CuDef*%
%ADD19RoundRect,0.500000X-0.500000X-1.400000X0.500000X-1.400000X0.500000X1.400000X-0.500000X1.400000X0*%
%TD*%
%TA.AperFunction,SMDPad,CuDef*%
%ADD20RoundRect,0.250000X0.475000X-0.250000X0.475000X0.250000X-0.475000X0.250000X-0.475000X-0.250000X0*%
%TD*%
%TA.AperFunction,SMDPad,CuDef*%
%ADD21RoundRect,0.250000X-0.262500X-0.450000X0.262500X-0.450000X0.262500X0.450000X-0.262500X0.450000X0*%
%TD*%
%TA.AperFunction,SMDPad,CuDef*%
%ADD22RoundRect,0.250000X-0.785000X-0.945000X0.785000X-0.945000X0.785000X0.945000X-0.785000X0.945000X0*%
%TD*%
%TA.AperFunction,SMDPad,CuDef*%
%ADD23RoundRect,0.150000X-0.825000X-0.150000X0.825000X-0.150000X0.825000X0.150000X-0.825000X0.150000X0*%
%TD*%
%TA.AperFunction,ViaPad*%
%ADD24C,0.600000*%
%TD*%
%TA.AperFunction,Conductor*%
%ADD25C,0.250000*%
%TD*%
%TA.AperFunction,Conductor*%
%ADD26C,0.400000*%
%TD*%
G04 APERTURE END LIST*
D10*
%TO.P,TP2,1*%
%TO.N,UART0_RX*%
X27500000Y-14000000D03*
%TD*%
%TO.P,TP13,1*%
%TO.N,+5V*%
X13000000Y-45500000D03*
%TD*%
D11*
%TO.P,R3,1*%
%TO.N,H_RX*%
X2500000Y-26412500D03*
%TO.P,R3,2*%
%TO.N,GND*%
X2500000Y-24587500D03*
%TD*%
D12*
%TO.P,JP1,1*%
%TO.N,TERM*%
X24350000Y-43000000D03*
%TO.P,JP1,2*%
%TO.N,B*%
X25650000Y-43000000D03*
%TD*%
D13*
%TO.P,U1,1*%
%TO.N,GND*%
X6250000Y-8490000D03*
%TO.P,U1,2*%
%TO.N,+3V3*%
X6250000Y-9760000D03*
%TO.P,U1,3*%
%TO.N,EN*%
X6250000Y-11030000D03*
%TO.P,U1,4*%
%TO.N,N/C*%
X6250000Y-12300000D03*
%TO.P,U1,5*%
X6250000Y-13570000D03*
%TO.P,U1,6*%
X6250000Y-14840000D03*
%TO.P,U1,7*%
X6250000Y-16110000D03*
%TO.P,U1,8*%
%TO.N,F_RX*%
X6250000Y-17380000D03*
%TO.P,U1,9*%
%TO.N,F_TX*%
X6250000Y-18650000D03*
%TO.P,U1,10*%
%TO.N,H_TX*%
X6250000Y-19920000D03*
%TO.P,U1,11*%
%TO.N,H_RX*%
X6250000Y-21190000D03*
%TO.P,U1,12*%
%TO.N,MB_RX*%
X6250000Y-22460000D03*
%TO.P,U1,13*%
%TO.N,N/C*%
X6250000Y-23730000D03*
%TO.P,U1,14*%
X6250000Y-25000000D03*
D14*
%TO.P,U1,15*%
X8015000Y-26250000D03*
%TO.P,U1,16*%
X9285000Y-26250000D03*
%TO.P,U1,17*%
%TO.N,MB_TX*%
X10555000Y-26250000D03*
%TO.P,U1,18*%
%TO.N,N/C*%
X11825000Y-26250000D03*
%TO.P,U1,19*%
X13095000Y-26250000D03*
%TO.P,U1,20*%
X14365000Y-26250000D03*
%TO.P,U1,21*%
X15635000Y-26250000D03*
%TO.P,U1,22*%
X16905000Y-26250000D03*
%TO.P,U1,23*%
%TO.N,DIR*%
X18175000Y-26250000D03*
%TO.P,U1,24*%
%TO.N,N/C*%
X19445000Y-26250000D03*
%TO.P,U1,25*%
X20715000Y-26250000D03*
%TO.P,U1,26*%
X21985000Y-26250000D03*
D13*
%TO.P,U1,27*%
%TO.N,BOOT*%
X23750000Y-25000000D03*
%TO.P,U1,28*%
%TO.N,N/C*%
X23750000Y-23730000D03*
%TO.P,U1,29*%
X23750000Y-22460000D03*
%TO.P,U1,30*%
X23750000Y-21190000D03*
%TO.P,U1,31*%
X23750000Y-19920000D03*
%TO.P,U1,32*%
X23750000Y-18650000D03*
%TO.P,U1,33*%
X23750000Y-17380000D03*
%TO.P,U1,34*%
X23750000Y-16110000D03*
%TO.P,U1,35*%
X23750000Y-14840000D03*
%TO.P,U1,36*%
%TO.N,UART0_RX*%
X23750000Y-13570000D03*
%TO.P,U1,37*%
%TO.N,UART0_TX*%
X23750000Y-12300000D03*
%TO.P,U1,38*%
%TO.N,N/C*%
X23750000Y-11030000D03*
%TO.P,U1,39*%
X23750000Y-9760000D03*
%TO.P,U1,40*%
%TO.N,GND*%
X23750000Y-8490000D03*
D15*
%TO.P,U1,41*%
X12100000Y-15510000D03*
X12100000Y-16910000D03*
X12800000Y-14810000D03*
X12800000Y-16210000D03*
X12800000Y-17610000D03*
X13500000Y-15510000D03*
D16*
X13500000Y-16210000D03*
D15*
X13500000Y-16910000D03*
X14200000Y-14810000D03*
X14200000Y-16210000D03*
X14200000Y-17610000D03*
X14900000Y-15510000D03*
X14900000Y-16910000D03*
%TD*%
D17*
%TO.P,C7,1*%
%TO.N,EN*%
X1550000Y-14000000D03*
%TO.P,C7,2*%
%TO.N,GND*%
X3450000Y-14000000D03*
%TD*%
D18*
%TO.P,U2,1*%
%TO.N,GND*%
X4850000Y-30700000D03*
%TO.P,U2,2*%
%TO.N,+3V3*%
X4850000Y-33000000D03*
D19*
X11150000Y-33000000D03*
D18*
%TO.P,U2,3*%
%TO.N,+5V*%
X4850000Y-35300000D03*
%TD*%
D20*
%TO.P,C2,1*%
%TO.N,+5V*%
X2500000Y-33950000D03*
%TO.P,C2,2*%
%TO.N,GND*%
X2500000Y-32050000D03*
%TD*%
D10*
%TO.P,TP12,1*%
%TO.N,H_TX*%
X10400000Y-45500000D03*
%TD*%
%TO.P,TP9,1*%
%TO.N,+5V*%
X2000000Y-45500000D03*
%TD*%
%TO.P,TP14,1*%
%TO.N,GND*%
X15800000Y-45500000D03*
%TD*%
D21*
%TO.P,R6,1*%
%TO.N,DIR*%
X18587500Y-38000000D03*
%TO.P,R6,2*%
%TO.N,GND*%
X20412500Y-38000000D03*
%TD*%
D11*
%TO.P,R1,1*%
%TO.N,+3V3*%
X2500000Y-11912500D03*
%TO.P,R1,2*%
%TO.N,EN*%
X2500000Y-10087500D03*
%TD*%
D22*
%TO.P,C3,1*%
%TO.N,+3V3*%
X10530000Y-40000000D03*
%TO.P,C3,2*%
%TO.N,GND*%
X15470000Y-40000000D03*
%TD*%
D10*
%TO.P,TP10,1*%
%TO.N,GND*%
X4800000Y-45500000D03*
%TD*%
D11*
%TO.P,R2,1*%
%TO.N,MAIN_TX_5V*%
X2500000Y-22412500D03*
%TO.P,R2,2*%
%TO.N,H_RX*%
X2500000Y-20587500D03*
%TD*%
%TO.P,R8,1*%
%TO.N,FACTORY_TX*%
X2500000Y-18412500D03*
%TO.P,R8,2*%
%TO.N,F_RX*%
X2500000Y-16587500D03*
%TD*%
D17*
%TO.P,C5,1*%
%TO.N,+3V3*%
X1550000Y-8000000D03*
%TO.P,C5,2*%
%TO.N,GND*%
X3450000Y-8000000D03*
%TD*%
D10*
%TO.P,TP3,1*%
%TO.N,GND*%
X27500000Y-18000000D03*
%TD*%
%TO.P,TP16,1*%
%TO.N,F_TX*%
X21400000Y-45500000D03*
%TD*%
D11*
%TO.P,R4,1*%
%TO.N,RO_5V*%
X17000000Y-32912500D03*
%TO.P,R4,2*%
%TO.N,MB_RX*%
X17000000Y-31087500D03*
%TD*%
D23*
%TO.P,U3,1*%
%TO.N,RO_5V*%
X20525000Y-31095000D03*
%TO.P,U3,2*%
%TO.N,DIR*%
X20525000Y-32365000D03*
%TO.P,U3,3*%
X20525000Y-33635000D03*
%TO.P,U3,4*%
%TO.N,MB_TX*%
X20525000Y-34905000D03*
%TO.P,U3,5*%
%TO.N,GND*%
X25475000Y-34905000D03*
%TO.P,U3,6*%
%TO.N,A*%
X25475000Y-33635000D03*
%TO.P,U3,7*%
%TO.N,B*%
X25475000Y-32365000D03*
%TO.P,U3,8*%
%TO.N,+5V*%
X25475000Y-31095000D03*
%TD*%
D10*
%TO.P,TP7,1*%
%TO.N,A*%
X28000000Y-45500000D03*
%TD*%
D21*
%TO.P,R7,1*%
%TO.N,A*%
X24587500Y-40000000D03*
%TO.P,R7,2*%
%TO.N,TERM*%
X26412500Y-40000000D03*
%TD*%
D10*
%TO.P,TP8,1*%
%TO.N,B*%
X24500000Y-45500000D03*
%TD*%
D22*
%TO.P,C1,1*%
%TO.N,+5V*%
X2530000Y-40000000D03*
%TO.P,C1,2*%
%TO.N,GND*%
X7470000Y-40000000D03*
%TD*%
D10*
%TO.P,TP11,1*%
%TO.N,MAIN_TX_5V*%
X7600000Y-45500000D03*
%TD*%
%TO.P,TP1,1*%
%TO.N,UART0_TX*%
X27500000Y-10000000D03*
%TD*%
%TO.P,TP15,1*%
%TO.N,FACTORY_TX*%
X18600000Y-45500000D03*
%TD*%
D24*
%TO.N,+5V*%
X4000000Y-35300000D03*
X27000000Y-37300000D03*
X2500000Y-39200000D03*
X14000000Y-45500000D03*
%TO.N,H_RX*%
X2900000Y-20600000D03*
X7700000Y-19900000D03*
X2500000Y-21200000D03*
X2500000Y-26400000D03*
%TO.N,GND*%
X19500000Y-14000000D03*
X3425500Y-36200500D03*
X21500000Y-41000000D03*
X16500000Y-23000000D03*
X28500000Y-40000000D03*
X22500000Y-43000000D03*
X3500000Y-13200000D03*
X22500000Y-37000000D03*
X21500000Y-23000000D03*
X7500000Y-28000000D03*
X20500000Y-29000000D03*
X26500000Y-30000000D03*
X20500000Y-37000000D03*
X8500000Y-12000000D03*
X13500000Y-24000000D03*
X17500000Y-16000000D03*
X11500000Y-23000000D03*
X2950500Y-41912411D03*
X20500000Y-41000000D03*
X22500000Y-29000000D03*
X28500000Y-27000000D03*
X25500000Y-13000000D03*
X25500000Y-27000000D03*
X20500000Y-12000000D03*
X14500000Y-12000000D03*
X17500000Y-9000000D03*
X22500000Y-39000000D03*
X18500000Y-12000000D03*
X18500000Y-18000000D03*
X19500000Y-8000000D03*
X24500000Y-29000000D03*
X23500000Y-39000000D03*
X24500000Y-8000000D03*
X11500000Y-17000000D03*
X2500000Y-31000000D03*
X17500000Y-12000000D03*
X12500000Y-19000000D03*
X17500000Y-18000000D03*
X28500000Y-41000000D03*
X27500000Y-29000000D03*
X11500000Y-19000000D03*
X21500000Y-10000000D03*
X18500000Y-24000000D03*
X22500000Y-40000000D03*
X12500000Y-40000000D03*
X9500000Y-14000000D03*
X22500000Y-41000000D03*
X20500000Y-8000000D03*
X27500000Y-26000000D03*
X19500000Y-29000000D03*
X11500000Y-16000000D03*
X3500000Y-37000000D03*
X17500000Y-36000000D03*
X28500000Y-22000000D03*
X20500000Y-11000000D03*
X7500000Y-38000000D03*
X27500000Y-20000000D03*
X10500000Y-11000000D03*
X21500000Y-37000000D03*
X23500000Y-28000000D03*
X4500000Y-26000000D03*
X28500000Y-23000000D03*
X19500000Y-17000000D03*
X21500000Y-30000000D03*
X2175500Y-31753202D03*
X19500000Y-37000000D03*
X19500000Y-36000000D03*
X21500000Y-28000000D03*
X17500000Y-24000000D03*
X21500000Y-19000000D03*
X2712803Y-13098043D03*
X9500000Y-17000000D03*
X21500000Y-8000000D03*
X21500000Y-43000000D03*
X14500000Y-43000000D03*
X6500000Y-29000000D03*
X5500000Y-8000000D03*
X28000000Y-36200000D03*
X13500000Y-38000000D03*
X23500000Y-27000000D03*
X11500000Y-15000000D03*
X19500000Y-22000000D03*
X25500000Y-8000000D03*
X28500000Y-37000000D03*
X23500000Y-30000000D03*
X19500000Y-20000000D03*
X20500000Y-23000000D03*
X25500000Y-20000000D03*
X4500000Y-13000000D03*
X19500000Y-28000000D03*
X11500000Y-42000000D03*
X25500000Y-28000000D03*
X11500000Y-43000000D03*
X9500000Y-12000000D03*
X20500000Y-20000000D03*
X22500000Y-33000000D03*
X19500000Y-30000000D03*
X28500000Y-24000000D03*
X27500000Y-23000000D03*
X25500000Y-19000000D03*
X20500000Y-40000000D03*
X20500000Y-10000000D03*
X10500000Y-22000000D03*
X8500000Y-13000000D03*
X19500000Y-40000000D03*
X27500000Y-18000000D03*
X6800000Y-34000000D03*
X7500000Y-43000000D03*
X15500000Y-8000000D03*
X19500000Y-10000000D03*
X18500000Y-8000000D03*
X9500000Y-15000000D03*
X25500000Y-26000000D03*
X11500000Y-38000000D03*
X18500000Y-19000000D03*
X23100000Y-34900000D03*
X18500000Y-43000000D03*
X8500000Y-16000000D03*
X26500000Y-26000000D03*
X12500000Y-39000000D03*
X20400000Y-38000000D03*
X10500000Y-17000000D03*
X12500000Y-37000000D03*
X18500000Y-15000000D03*
X20500000Y-15000000D03*
X19500000Y-9000000D03*
X7500000Y-29000000D03*
X4500000Y-15000000D03*
X27500000Y-12000000D03*
X15500000Y-42000000D03*
X18500000Y-42000000D03*
X28500000Y-42000000D03*
X20500000Y-13000000D03*
X4200000Y-24900000D03*
X17500000Y-13000000D03*
X9500000Y-16000000D03*
X19500000Y-24000000D03*
X3500000Y-14000000D03*
X28500000Y-12000000D03*
X25500000Y-15000000D03*
X17500000Y-19000000D03*
X22500000Y-28000000D03*
X10500000Y-16000000D03*
X28500000Y-43000000D03*
X18500000Y-10000000D03*
X10500000Y-14000000D03*
X21500000Y-22000000D03*
X10500000Y-13000000D03*
X7500000Y-42000000D03*
X2200000Y-28800000D03*
X19500000Y-19000000D03*
X22500000Y-36000000D03*
X19500000Y-39000000D03*
X4500000Y-14000000D03*
X18500000Y-41000000D03*
X22500000Y-34000000D03*
X10500000Y-15000000D03*
X27500000Y-21000000D03*
X19500000Y-11000000D03*
X14500000Y-37000000D03*
X10500000Y-23000000D03*
X28500000Y-25000000D03*
X14500000Y-38000000D03*
X13500000Y-11000000D03*
X14500000Y-11000000D03*
X18500000Y-13000000D03*
X17500000Y-17000000D03*
X25500000Y-17000000D03*
X8500000Y-14000000D03*
X27500000Y-8000000D03*
X21500000Y-17000000D03*
X11500000Y-18000000D03*
X13000000Y-24700000D03*
X28500000Y-21000000D03*
X27500000Y-25000000D03*
X9500000Y-13000000D03*
X16500000Y-22000000D03*
X27500000Y-24000000D03*
X23500000Y-38000000D03*
X27500000Y-28000000D03*
X17500000Y-8000000D03*
X27500000Y-27000000D03*
X13500000Y-42000000D03*
X19500000Y-12000000D03*
X12500000Y-42000000D03*
X12500000Y-41000000D03*
X21500000Y-12000000D03*
X25500000Y-30000000D03*
X23500000Y-37000000D03*
X19500000Y-13000000D03*
X18500000Y-9000000D03*
X28500000Y-20000000D03*
X16500000Y-24000000D03*
X26500000Y-28000000D03*
X8500000Y-18000000D03*
X20500000Y-28000000D03*
X21500000Y-42000000D03*
X26500000Y-12000000D03*
X21500000Y-36000000D03*
X20500000Y-43000000D03*
X21500000Y-14000000D03*
X28500000Y-39000000D03*
X13500000Y-23000000D03*
X6500000Y-37000000D03*
X27500000Y-30000000D03*
X15100000Y-46500000D03*
X28500000Y-35000000D03*
X26500000Y-21000000D03*
X17500000Y-11000000D03*
X26500000Y-25000000D03*
X22500000Y-38000000D03*
X17500000Y-15000000D03*
X20500000Y-17000000D03*
X9500000Y-18000000D03*
X20500000Y-30000000D03*
X26500000Y-27000000D03*
X26500000Y-29000000D03*
X13500000Y-37000000D03*
X15500000Y-39200000D03*
X27500000Y-22000000D03*
X12500000Y-38000000D03*
X25300000Y-18000000D03*
X21500000Y-18000000D03*
X10500000Y-20000000D03*
X20500000Y-24000000D03*
X11500000Y-20000000D03*
X26500000Y-8000000D03*
X17500000Y-37000000D03*
X22500000Y-8000000D03*
X22500000Y-42000000D03*
X10500000Y-43000000D03*
X9500000Y-11000000D03*
X10500000Y-12000000D03*
X23500000Y-41000000D03*
X13500000Y-41000000D03*
X19500000Y-43000000D03*
X15500000Y-43100000D03*
X21500000Y-15000000D03*
X13500000Y-39000000D03*
X6500000Y-43000000D03*
X21500000Y-16000000D03*
X28500000Y-26000000D03*
X28500000Y-28000000D03*
X28500000Y-34000000D03*
X17500000Y-23000000D03*
X20500000Y-36000000D03*
X14500000Y-8000000D03*
X21500000Y-11000000D03*
X23500000Y-29000000D03*
X26500000Y-20000000D03*
X13900000Y-24700000D03*
X12500000Y-43000000D03*
X28500000Y-33000000D03*
X14500000Y-42000000D03*
X21500000Y-9000000D03*
X18500000Y-40000000D03*
X14800000Y-33300000D03*
X13500000Y-40000000D03*
X10500000Y-19000000D03*
X28000000Y-31500000D03*
X22500000Y-44000000D03*
X18500000Y-23000000D03*
X22500000Y-31000000D03*
X26500000Y-16000000D03*
X4500000Y-24000000D03*
X25500000Y-16000000D03*
X13500000Y-31000000D03*
X12800000Y-22400000D03*
X18500000Y-14000000D03*
X21500000Y-40000000D03*
X8500000Y-17000000D03*
X6500000Y-42000000D03*
X26500000Y-24000000D03*
X13500000Y-19000000D03*
X12500000Y-24000000D03*
X23500000Y-33000000D03*
X20500000Y-22000000D03*
X12500000Y-36200000D03*
X18500000Y-17000000D03*
X6500000Y-28000000D03*
X20500000Y-16000000D03*
X19500000Y-42000000D03*
X4500000Y-8000000D03*
X11500000Y-24000000D03*
X1000500Y-16750000D03*
X22500000Y-9000000D03*
X17500000Y-14000000D03*
X23500000Y-32000000D03*
X26500000Y-23000000D03*
X14500000Y-31000000D03*
X28500000Y-16000000D03*
X20500000Y-18000000D03*
X4500000Y-23000000D03*
X19500000Y-41000000D03*
X3500000Y-8000000D03*
X19500000Y-16000000D03*
X13500000Y-43000000D03*
X2200000Y-28200000D03*
X21500000Y-38000000D03*
X18500000Y-16000000D03*
X27500000Y-16000000D03*
X21500000Y-29000000D03*
X16500000Y-8000000D03*
X20500000Y-14000000D03*
X24500000Y-28000000D03*
X6500000Y-38000000D03*
X18500000Y-11000000D03*
X14000000Y-35800000D03*
X20500000Y-9000000D03*
X19500000Y-23000000D03*
X26500000Y-22000000D03*
X6500000Y-27000000D03*
X28500000Y-29000000D03*
X21500000Y-13000000D03*
X19500000Y-18000000D03*
X19500000Y-15000000D03*
X20500000Y-39000000D03*
X23500000Y-31000000D03*
X23700000Y-8500000D03*
X10500000Y-42000000D03*
X28500000Y-8000000D03*
X1000500Y-16000000D03*
X21500000Y-20000000D03*
X25500000Y-29000000D03*
X13500000Y-12000000D03*
X15900000Y-24700000D03*
X20500000Y-19000000D03*
X21500000Y-39000000D03*
X11500000Y-22000000D03*
X22500000Y-30000000D03*
X21500000Y-24000000D03*
X24500000Y-27000000D03*
X10500000Y-18000000D03*
X4500000Y-12000000D03*
X28500000Y-30000000D03*
X20500000Y-42000000D03*
X8500000Y-15000000D03*
X24500000Y-30000000D03*
X9500000Y-19000000D03*
X25500000Y-9000000D03*
X22500000Y-32000000D03*
%TO.N,B*%
X25500000Y-32400000D03*
X25500000Y-42000000D03*
%TO.N,+3V3*%
X14900000Y-28500000D03*
X12500000Y-35000000D03*
X11100000Y-34300000D03*
X2500000Y-11900000D03*
X1600000Y-8000000D03*
X11850000Y-34250000D03*
X6200000Y-9800000D03*
X4000000Y-9800000D03*
X11500000Y-35000000D03*
%TO.N,EN*%
X8000000Y-10000000D03*
X4800000Y-21100000D03*
%TO.N,F_RX*%
X6200000Y-17400000D03*
X2500000Y-17200000D03*
X4500000Y-17400000D03*
%TO.N,F_TX*%
X8500000Y-27700000D03*
X8500000Y-21900000D03*
%TO.N,H_TX*%
X9300000Y-44800000D03*
X9300000Y-22900000D03*
X4800000Y-19300000D03*
X9300000Y-20300000D03*
%TO.N,MB_RX*%
X17000000Y-28900000D03*
X10100000Y-24800000D03*
%TO.N,MB_TX*%
X10600000Y-26900000D03*
X20500000Y-34900000D03*
%TO.N,DIR*%
X18400000Y-30300000D03*
X19000000Y-32400000D03*
%TO.N,BOOT*%
X15900000Y-19400000D03*
X25200000Y-21100000D03*
X12000000Y-10000000D03*
%TO.N,MAIN_TX_5V*%
X3300000Y-23400000D03*
X7600000Y-45500000D03*
%TO.N,A*%
X28000000Y-45500000D03*
X24600000Y-40400000D03*
%TD*%
%TO.N,UART0_RX*%
D25*
X23700000Y-13600000D02*
X23750000Y-13570000D01*
X27500000Y-14000000D02*
X25000000Y-14000000D01*
X25000000Y-14000000D02*
X25000000Y-13900000D01*
X25000000Y-13900000D02*
X23700000Y-13900000D01*
X23700000Y-13900000D02*
X23700000Y-13600000D01*
%TO.N,+5V*%
D26*
X2500000Y-40000000D02*
X2500000Y-39200000D01*
X2000000Y-45500000D02*
X3200000Y-45500000D01*
X12000000Y-45500000D02*
X13000000Y-45500000D01*
X2500000Y-40000000D02*
X2000000Y-40000000D01*
X13000000Y-45500000D02*
X14000000Y-45500000D01*
X4800000Y-35300000D02*
X4850000Y-35300000D01*
X2530000Y-40000000D02*
X2500000Y-40000000D01*
X2500000Y-34000000D02*
X2500000Y-33950000D01*
X4800000Y-35300000D02*
X2500000Y-35300000D01*
X3200000Y-47100000D02*
X12000000Y-47100000D01*
X2500000Y-35300000D02*
X2500000Y-34000000D01*
X27000000Y-37300000D02*
X27000000Y-31500000D01*
X4850000Y-35300000D02*
X4800000Y-35300000D01*
X2530000Y-40000000D02*
X2500000Y-40000000D01*
X12000000Y-47100000D02*
X12000000Y-45500000D01*
X3200000Y-45500000D02*
X3200000Y-47100000D01*
X25500000Y-31100000D02*
X25475000Y-31095000D01*
X25500000Y-31500000D02*
X25500000Y-31100000D01*
X2000000Y-40000000D02*
X2000000Y-45500000D01*
X27000000Y-31500000D02*
X25500000Y-31500000D01*
X4000000Y-35300000D02*
X4800000Y-35300000D01*
%TO.N,H_RX*%
D25*
X6200000Y-20900000D02*
X6200000Y-21200000D01*
X6200000Y-21200000D02*
X6250000Y-21190000D01*
X2500000Y-20600000D02*
X2900000Y-20600000D01*
X7500000Y-19900000D02*
X7500000Y-20900000D01*
X2500000Y-20600000D02*
X2500000Y-21200000D01*
X2500000Y-20587500D02*
X2500000Y-20600000D01*
X7700000Y-19900000D02*
X7500000Y-19900000D01*
X7500000Y-20900000D02*
X6200000Y-20900000D01*
X2500000Y-26400000D02*
X2500000Y-26412500D01*
X2500000Y-20587500D02*
X2500000Y-20600000D01*
%TO.N,GND*%
D26*
X14000000Y-33300000D02*
X14800000Y-33300000D01*
X14900000Y-16900000D02*
X14900000Y-16910000D01*
X15100000Y-45500000D02*
X15800000Y-45500000D01*
X12500000Y-40000000D02*
X12500000Y-36200000D01*
X7500000Y-40000000D02*
X8900000Y-40000000D01*
X26100000Y-38200000D02*
X27900000Y-38200000D01*
X13900000Y-24700000D02*
X15900000Y-24700000D01*
X12100000Y-41800000D02*
X12100000Y-40000000D01*
X12800000Y-16200000D02*
X12800000Y-16210000D01*
X2500000Y-30700000D02*
X2500000Y-32000000D01*
X12800000Y-22400000D02*
X12800000Y-17600000D01*
X12800000Y-15500000D02*
X12800000Y-14800000D01*
X8900000Y-40000000D02*
X8900000Y-41800000D01*
X20400000Y-35800000D02*
X22100000Y-35800000D01*
X2500000Y-25300000D02*
X3800000Y-25300000D01*
X13500000Y-17600000D02*
X14200000Y-17600000D01*
X15470000Y-40000000D02*
X15500000Y-40000000D01*
X13500000Y-15500000D02*
X13500000Y-14800000D01*
X12800000Y-16900000D02*
X13500000Y-16900000D01*
X12800000Y-14800000D02*
X12100000Y-14800000D01*
X14200000Y-14800000D02*
X14200000Y-15500000D01*
X15470000Y-40000000D02*
X15500000Y-40000000D01*
X13500000Y-16210000D02*
X13500000Y-16200000D01*
X13500000Y-16900000D02*
X13500000Y-16910000D01*
X12800000Y-17600000D02*
X12800000Y-16900000D01*
X12100000Y-35900000D02*
X12100000Y-41800000D01*
X15500000Y-40000000D02*
X15470000Y-40000000D01*
X14900000Y-15500000D02*
X14900000Y-15510000D01*
X6800000Y-41800000D02*
X6800000Y-34000000D01*
X15500000Y-40000000D02*
X15500000Y-39200000D01*
X15900000Y-24700000D02*
X13000000Y-24700000D01*
X14200000Y-16200000D02*
X14200000Y-16900000D01*
X13500000Y-16900000D02*
X13500000Y-16200000D01*
X12100000Y-16900000D02*
X12100000Y-16910000D01*
X4800000Y-30700000D02*
X4850000Y-30700000D01*
X14200000Y-16200000D02*
X14200000Y-16210000D01*
X28000000Y-31500000D02*
X27900000Y-31500000D01*
X13500000Y-16210000D02*
X13500000Y-16200000D01*
X27900000Y-38200000D02*
X25500000Y-38200000D01*
X20400000Y-38000000D02*
X20412500Y-38000000D01*
X14200000Y-14810000D02*
X14200000Y-14800000D01*
X15100000Y-46500000D02*
X15100000Y-45500000D01*
X13500000Y-16200000D02*
X12800000Y-16200000D01*
X14200000Y-16900000D02*
X14900000Y-16900000D01*
X2200000Y-27500000D02*
X2200000Y-28200000D01*
X12800000Y-14810000D02*
X12800000Y-14800000D01*
X12100000Y-40000000D02*
X15500000Y-40000000D01*
X15500000Y-40000000D02*
X15500000Y-43100000D01*
X12800000Y-17600000D02*
X12100000Y-17600000D01*
X13500000Y-14800000D02*
X14200000Y-14800000D01*
X3500000Y-14000000D02*
X3450000Y-14000000D01*
X14200000Y-15500000D02*
X14900000Y-15500000D01*
X25500000Y-38200000D02*
X25500000Y-34900000D01*
X12100000Y-14800000D02*
X12100000Y-15500000D01*
X2500000Y-24587500D02*
X2500000Y-24600000D01*
X4850000Y-30700000D02*
X4800000Y-30700000D01*
X12800000Y-17610000D02*
X12800000Y-17600000D01*
X2500000Y-32000000D02*
X2500000Y-32049999D01*
X8900000Y-41800000D02*
X12100000Y-41800000D01*
X25475000Y-34905000D02*
X25500000Y-34900000D01*
X13400000Y-35900000D02*
X12100000Y-35900000D01*
X13500000Y-16200000D02*
X13500000Y-15500000D01*
X14200000Y-16210000D02*
X14200000Y-16200000D01*
X2200000Y-30700000D02*
X4800000Y-30700000D01*
X13500000Y-15510000D02*
X13500000Y-15500000D01*
X14200000Y-17600000D02*
X14200000Y-17610000D01*
X2200000Y-28800000D02*
X2200000Y-30700000D01*
X3450000Y-14000000D02*
X3500000Y-14000000D01*
X13500000Y-15500000D02*
X13500000Y-15510000D01*
X6200000Y-8500000D02*
X6250000Y-8490000D01*
X2500000Y-24600000D02*
X2500000Y-24587500D01*
X4800000Y-30700000D02*
X2500000Y-30700000D01*
X13500000Y-15510000D02*
X13500000Y-15500000D01*
X12100000Y-17600000D02*
X12100000Y-16900000D01*
X13500000Y-16200000D02*
X14200000Y-16200000D01*
X3450000Y-8000000D02*
X3500000Y-8000000D01*
X13900000Y-24700000D02*
X15900000Y-24700000D01*
X15470000Y-40000000D02*
X15500000Y-40000000D01*
X3800000Y-25300000D02*
X3800000Y-27500000D01*
X27500000Y-18000000D02*
X25300000Y-18000000D01*
X27900000Y-31500000D02*
X27900000Y-38200000D01*
X25500000Y-34900000D02*
X25500000Y-36000000D01*
X2500000Y-24900000D02*
X2500000Y-24600000D01*
X14200000Y-14800000D02*
X14200000Y-14810000D01*
X25500000Y-34900000D02*
X25475000Y-34905000D01*
X26100000Y-36000000D02*
X26100000Y-38200000D01*
X12100000Y-15500000D02*
X12100000Y-15510000D01*
X20412500Y-38000000D02*
X20400000Y-38000000D01*
X25500000Y-36000000D02*
X26100000Y-36000000D01*
X13500000Y-16210000D02*
X13500000Y-16200000D01*
X3500000Y-14000000D02*
X3500000Y-13200000D01*
X27900000Y-36200000D02*
X28000000Y-36200000D01*
X3500000Y-8500000D02*
X6200000Y-8500000D01*
X13400000Y-33300000D02*
X13400000Y-35900000D01*
X3500000Y-8000000D02*
X3500000Y-8500000D01*
X15500000Y-40000000D02*
X12500000Y-40000000D01*
X22100000Y-34900000D02*
X23100000Y-34900000D01*
X12800000Y-17600000D02*
X12800000Y-17610000D01*
X22100000Y-35800000D02*
X22100000Y-34900000D01*
X13500000Y-16900000D02*
X13500000Y-17600000D01*
X2500000Y-24600000D02*
X2500000Y-25300000D01*
X23700000Y-8500000D02*
X23750000Y-8490000D01*
X7470000Y-40000000D02*
X7500000Y-40000000D01*
X12100000Y-41800000D02*
X6800000Y-41800000D01*
X14800000Y-33300000D02*
X13400000Y-33300000D01*
X13500000Y-16910000D02*
X13500000Y-16900000D01*
X4200000Y-24900000D02*
X2500000Y-24900000D01*
X14000000Y-35800000D02*
X14000000Y-33300000D01*
X3500000Y-8000000D02*
X3450000Y-8000000D01*
X27900000Y-38200000D02*
X27900000Y-36200000D01*
X12800000Y-14800000D02*
X12800000Y-14810000D01*
X13500000Y-15500000D02*
X12800000Y-15500000D01*
X12800000Y-17610000D02*
X12800000Y-17600000D01*
X20400000Y-38000000D02*
X20400000Y-35800000D01*
X13500000Y-16910000D02*
X13500000Y-16900000D01*
X3800000Y-27500000D02*
X2200000Y-27500000D01*
X13500000Y-16200000D02*
X13500000Y-16210000D01*
%TO.N,TERM*%
D25*
X25600000Y-40000000D02*
X26400000Y-40000000D01*
X24400000Y-41200000D02*
X25600000Y-41200000D01*
X25600000Y-41200000D02*
X25600000Y-40000000D01*
X24350000Y-43000000D02*
X24400000Y-43000000D01*
X26400000Y-40000000D02*
X26412500Y-40000000D01*
X24400000Y-43000000D02*
X24400000Y-41200000D01*
%TO.N,B*%
X25300000Y-44200000D02*
X24500000Y-44200000D01*
X25650000Y-43000000D02*
X25600000Y-43000000D01*
X25300000Y-43000000D02*
X25300000Y-44200000D01*
X25500000Y-32400000D02*
X25475000Y-32365000D01*
X24500000Y-44200000D02*
X24500000Y-45500000D01*
X25600000Y-43000000D02*
X25500000Y-43000000D01*
X25500000Y-43000000D02*
X25500000Y-42000000D01*
X25650000Y-43000000D02*
X25600000Y-43000000D01*
X25600000Y-43000000D02*
X25300000Y-43000000D01*
%TO.N,+3V3*%
D26*
X11100000Y-33000000D02*
X11100000Y-28500000D01*
X10530000Y-40000000D02*
X10500000Y-40000000D01*
X6200000Y-9800000D02*
X4000000Y-9800000D01*
X6200000Y-9800000D02*
X6250000Y-9760000D01*
X11100000Y-34300000D02*
X11100000Y-33000000D01*
X4800000Y-33000000D02*
X4850000Y-33000000D01*
X2500000Y-11900000D02*
X2500000Y-11912500D01*
X11150000Y-33000000D02*
X11100000Y-33000000D01*
X11100000Y-28500000D02*
X14900000Y-28500000D01*
X11100000Y-33000000D02*
X4800000Y-33000000D01*
X10500000Y-40000000D02*
X10500000Y-35000000D01*
X2500000Y-11912500D02*
X2500000Y-11900000D01*
X11100000Y-33000000D02*
X11150000Y-33000000D01*
X6250000Y-9760000D02*
X6200000Y-9800000D01*
X1600000Y-8000000D02*
X1550000Y-8000000D01*
X11150000Y-33000000D02*
X11100000Y-33000000D01*
X10500000Y-35000000D02*
X12500000Y-35000000D01*
%TO.N,EN*%
D25*
X2500000Y-10900000D02*
X3700000Y-10900000D01*
X6200000Y-11000000D02*
X6250000Y-11030000D01*
X1300000Y-12900000D02*
X1300000Y-10100000D01*
X6250000Y-11030000D02*
X6200000Y-11000000D01*
X7500000Y-10700000D02*
X7500000Y-10000000D01*
X2500000Y-10100000D02*
X2500000Y-10900000D01*
X1550000Y-14000000D02*
X1600000Y-14000000D01*
X1600000Y-12900000D02*
X1300000Y-12900000D01*
X1600000Y-14000000D02*
X1600000Y-12900000D01*
X6200000Y-11000000D02*
X6200000Y-10700000D01*
X6200000Y-10700000D02*
X7500000Y-10700000D01*
X3700000Y-15600000D02*
X3700000Y-21100000D01*
X1600000Y-14000000D02*
X1600000Y-15600000D01*
X3700000Y-11000000D02*
X6200000Y-11000000D01*
X2500000Y-10100000D02*
X2500000Y-10087500D01*
X2500000Y-10087500D02*
X2500000Y-10100000D01*
X7500000Y-10000000D02*
X8000000Y-10000000D01*
X1600000Y-15600000D02*
X3700000Y-15600000D01*
X3700000Y-10900000D02*
X3700000Y-11000000D01*
X1300000Y-10100000D02*
X2500000Y-10100000D01*
X1550000Y-14000000D02*
X1600000Y-14000000D01*
X3700000Y-21100000D02*
X4800000Y-21100000D01*
%TO.N,F_RX*%
X6200000Y-17400000D02*
X6250000Y-17380000D01*
X6250000Y-17380000D02*
X6200000Y-17400000D01*
X2500000Y-16600000D02*
X2500000Y-17200000D01*
X2500000Y-16587499D02*
X2500000Y-16600000D01*
X6200000Y-17400000D02*
X4500000Y-17400000D01*
%TO.N,F_TX*%
X7500000Y-19000000D02*
X6200000Y-19000000D01*
X17900000Y-43400000D02*
X17000000Y-43400000D01*
X20100000Y-44000000D02*
X17900000Y-44000000D01*
X8500000Y-19100000D02*
X7500000Y-19100000D01*
X15700000Y-27700000D02*
X8500000Y-27700000D01*
X21400000Y-45500000D02*
X20100000Y-45500000D01*
X20100000Y-45500000D02*
X20100000Y-44000000D01*
X15700000Y-38300000D02*
X15700000Y-27700000D01*
X8500000Y-21900000D02*
X8500000Y-19100000D01*
X6200000Y-18600000D02*
X6250000Y-18650000D01*
X17000000Y-38300000D02*
X15700000Y-38300000D01*
X6200000Y-19000000D02*
X6200000Y-18600000D01*
X7500000Y-19100000D02*
X7500000Y-19000000D01*
X17000000Y-43400000D02*
X17000000Y-38300000D01*
X17900000Y-44000000D02*
X17900000Y-43400000D01*
%TO.N,H_TX*%
X4800000Y-19300000D02*
X4800000Y-19900000D01*
X9300000Y-45500000D02*
X9300000Y-44800000D01*
X4800000Y-19900000D02*
X6200000Y-19900000D01*
X9300000Y-22900000D02*
X9300000Y-20300000D01*
X6200000Y-19900000D02*
X6250000Y-19920000D01*
X10400000Y-45500000D02*
X9300000Y-45500000D01*
%TO.N,MB_RX*%
X17000000Y-31100000D02*
X17000000Y-28900000D01*
X6200000Y-22800000D02*
X6200000Y-22500000D01*
X6200000Y-22500000D02*
X6250000Y-22460000D01*
X10100000Y-24800000D02*
X7500000Y-24800000D01*
X7500000Y-22800000D02*
X6200000Y-22800000D01*
X7500000Y-24800000D02*
X7500000Y-22800000D01*
X17000000Y-31087500D02*
X17000000Y-31100000D01*
%TO.N,MB_TX*%
X10600000Y-26200000D02*
X10600000Y-26900000D01*
X10555000Y-26250000D02*
X10600000Y-26200000D01*
X20500000Y-34900000D02*
X20525000Y-34905000D01*
%TO.N,DIR*%
X18400000Y-30300000D02*
X18200000Y-30300000D01*
X18200000Y-26200000D02*
X18175000Y-26250000D01*
X20500000Y-33600000D02*
X20525000Y-33635000D01*
X20500000Y-33600000D02*
X20500000Y-32400000D01*
X20525000Y-33635000D02*
X20500000Y-33600000D01*
X20500000Y-32400000D02*
X20525000Y-32365000D01*
X18200000Y-30300000D02*
X18200000Y-26200000D01*
X18587500Y-38000000D02*
X18600000Y-38000000D01*
X18600000Y-33600000D02*
X20500000Y-33600000D01*
X20500000Y-32400000D02*
X19000000Y-32400000D01*
X20525000Y-32365000D02*
X20500000Y-32400000D01*
X18600000Y-38000000D02*
X18600000Y-33600000D01*
%TO.N,BOOT*%
X25200000Y-21100000D02*
X25000000Y-21100000D01*
X25000000Y-21100000D02*
X25000000Y-24700000D01*
X23700000Y-25000000D02*
X23750000Y-25000000D01*
X15900000Y-13800000D02*
X12000000Y-13800000D01*
X12000000Y-13800000D02*
X12000000Y-10000000D01*
X15900000Y-19400000D02*
X15900000Y-13800000D01*
X25000000Y-24700000D02*
X23700000Y-24700000D01*
X23700000Y-24700000D02*
X23700000Y-25000000D01*
%TO.N,UART0_TX*%
X27500000Y-10000000D02*
X25000000Y-10000000D01*
X25000000Y-10000000D02*
X25000000Y-12000000D01*
X25000000Y-12000000D02*
X23700000Y-12000000D01*
X23700000Y-12000000D02*
X23700000Y-12300000D01*
X23700000Y-12300000D02*
X23750000Y-12300000D01*
%TO.N,MAIN_TX_5V*%
X2500000Y-23400000D02*
X3300000Y-23400000D01*
X2500000Y-22400000D02*
X2500000Y-23400000D01*
X2500000Y-22412500D02*
X2500000Y-22400000D01*
%TO.N,FACTORY_TX*%
X1300000Y-19600000D02*
X1300000Y-38300000D01*
X4000000Y-38300000D02*
X4000000Y-44000000D01*
X17300000Y-44000000D02*
X17300000Y-45500000D01*
X2500000Y-18412500D02*
X2500000Y-18400000D01*
X1300000Y-38300000D02*
X4000000Y-38300000D01*
X2500000Y-18400000D02*
X2500000Y-19600000D01*
X2500000Y-19600000D02*
X1300000Y-19600000D01*
X17300000Y-45500000D02*
X18600000Y-45500000D01*
X4000000Y-44000000D02*
X17300000Y-44000000D01*
%TO.N,RO_5V*%
X17000000Y-32900000D02*
X17000000Y-32100000D01*
X18200000Y-31100000D02*
X20500000Y-31100000D01*
X20500000Y-31100000D02*
X20525000Y-31095000D01*
X17000000Y-32100000D02*
X18200000Y-32100000D01*
X18200000Y-32100000D02*
X18200000Y-31100000D01*
X17000000Y-32912500D02*
X17000000Y-32900000D01*
%TO.N,A*%
X25500000Y-33600000D02*
X25475000Y-33635000D01*
X24587500Y-40000000D02*
X24600000Y-40000000D01*
X24587500Y-40000000D02*
X24600000Y-40000000D01*
X24600000Y-40000000D02*
X24600000Y-35700000D01*
X24600000Y-40000000D02*
X24600000Y-40400000D01*
X24600000Y-35700000D02*
X24000000Y-35700000D01*
X24000000Y-35700000D02*
X24000000Y-33600000D01*
X24000000Y-33600000D02*
X25500000Y-33600000D01*
%TD*%
%TA.AperFunction,Conductor*%
%TO.N,+3V3*%
G36*
X12559191Y-30018907D02*
G01*
X12595155Y-30068407D01*
X12600000Y-30099000D01*
X12600000Y-35350500D01*
X12581093Y-35408691D01*
X12531593Y-35444655D01*
X12501000Y-35449500D01*
X12159309Y-35449500D01*
X12040691Y-35449500D01*
X11970567Y-35468289D01*
X11926109Y-35480202D01*
X11823391Y-35539507D01*
X11739507Y-35623391D01*
X11680202Y-35726109D01*
X11649500Y-35840692D01*
X11649500Y-36301000D01*
X11630593Y-36359191D01*
X11581093Y-36395155D01*
X11550500Y-36400000D01*
X7349500Y-36400000D01*
X7291309Y-36381093D01*
X7255345Y-36331593D01*
X7250500Y-36301000D01*
X7250500Y-34347236D01*
X7263763Y-34297737D01*
X7312984Y-34212485D01*
X7350500Y-34072475D01*
X7350500Y-33927525D01*
X7312984Y-33787515D01*
X7312982Y-33787512D01*
X7312982Y-33787510D01*
X7240512Y-33661989D01*
X7240510Y-33661987D01*
X7240509Y-33661985D01*
X7138015Y-33559491D01*
X7138012Y-33559489D01*
X7138010Y-33559487D01*
X7012488Y-33487017D01*
X7012489Y-33487017D01*
X6963484Y-33473886D01*
X6872475Y-33449500D01*
X6727525Y-33449500D01*
X6665790Y-33466041D01*
X6587510Y-33487017D01*
X6461989Y-33559487D01*
X6359487Y-33661989D01*
X6287017Y-33787510D01*
X6287016Y-33787515D01*
X6249500Y-33927525D01*
X6249500Y-34072475D01*
X6287016Y-34212485D01*
X6336236Y-34297737D01*
X6349500Y-34347236D01*
X6349500Y-36301000D01*
X6330593Y-36359191D01*
X6281093Y-36395155D01*
X6250500Y-36400000D01*
X5839755Y-36400000D01*
X5781564Y-36381093D01*
X5745600Y-36331593D01*
X5745600Y-36270407D01*
X5781564Y-36220907D01*
X5789360Y-36215787D01*
X5855598Y-36176613D01*
X5861420Y-36173170D01*
X5973170Y-36061420D01*
X6053618Y-35925390D01*
X6097709Y-35773627D01*
X6100500Y-35738163D01*
X6100499Y-34861838D01*
X6097709Y-34826373D01*
X6053618Y-34674610D01*
X5984386Y-34557546D01*
X5973172Y-34538583D01*
X5973171Y-34538582D01*
X5973170Y-34538580D01*
X5861420Y-34426830D01*
X5861417Y-34426828D01*
X5861416Y-34426827D01*
X5725392Y-34346383D01*
X5725391Y-34346382D01*
X5725390Y-34346382D01*
X5637026Y-34320710D01*
X5573625Y-34302290D01*
X5550894Y-34300502D01*
X5538163Y-34299500D01*
X5538157Y-34299500D01*
X4161842Y-34299500D01*
X4126373Y-34302291D01*
X4126368Y-34302292D01*
X3974606Y-34346383D01*
X3838583Y-34426827D01*
X3838580Y-34426829D01*
X3838580Y-34426830D01*
X3769001Y-34496408D01*
X3714487Y-34524184D01*
X3654055Y-34514613D01*
X3610790Y-34471348D01*
X3600000Y-34426403D01*
X3600000Y-31573597D01*
X3618907Y-31515406D01*
X3668407Y-31479442D01*
X3729593Y-31479442D01*
X3769001Y-31503591D01*
X3838580Y-31573170D01*
X3974610Y-31653618D01*
X4126373Y-31697709D01*
X4161837Y-31700500D01*
X5538162Y-31700499D01*
X5573627Y-31697709D01*
X5725390Y-31653618D01*
X5861420Y-31573170D01*
X5973170Y-31461420D01*
X6053618Y-31325390D01*
X6097709Y-31173627D01*
X6100500Y-31138163D01*
X6100499Y-30261838D01*
X6097709Y-30226373D01*
X6068728Y-30126619D01*
X6070650Y-30065466D01*
X6108150Y-30017119D01*
X6163797Y-30000000D01*
X12501000Y-30000000D01*
X12559191Y-30018907D01*
G37*
%TD.AperFunction*%
%TD*%
%TA.AperFunction,Conductor*%
%TO.N,GND*%
G36*
X715408Y-7504843D02*
G01*
X728095Y-7508966D01*
X777595Y-7544927D01*
X777596Y-7544928D01*
X780591Y-7549050D01*
X799500Y-7607240D01*
X799500Y-8522920D01*
X799584Y-8523648D01*
X804281Y-8567349D01*
X805908Y-8582480D01*
X805909Y-8582485D01*
X805912Y-8582492D01*
X856200Y-8717327D01*
X903334Y-8780289D01*
X942522Y-8832637D01*
X942695Y-8832806D01*
X944588Y-8834144D01*
X1029142Y-8897441D01*
X1057668Y-8918796D01*
X1057669Y-8918796D01*
X1057670Y-8918797D01*
X1191544Y-8968728D01*
X1192985Y-8969285D01*
X1194247Y-8969466D01*
X1197767Y-8969655D01*
X1252127Y-8975500D01*
X1847872Y-8975499D01*
X1907483Y-8969091D01*
X1974907Y-8943943D01*
X1974910Y-8943942D01*
X2040697Y-8919406D01*
X2044030Y-8918230D01*
X2047582Y-8917047D01*
X2055167Y-8909186D01*
X2157546Y-8832546D01*
X2243796Y-8717331D01*
X2243798Y-8717327D01*
X2294089Y-8582488D01*
X2294090Y-8582485D01*
X2294091Y-8582483D01*
X2300500Y-8522873D01*
X2300499Y-7614679D01*
X2305342Y-7584094D01*
X2305755Y-7582822D01*
X2309464Y-7571405D01*
X2345422Y-7521906D01*
X2346021Y-7521471D01*
X2349562Y-7518900D01*
X2407742Y-7500000D01*
X29384820Y-7500000D01*
X29415408Y-7504843D01*
X29428095Y-7508966D01*
X29477595Y-7544927D01*
X29477596Y-7544928D01*
X29480591Y-7549050D01*
X29499500Y-7607240D01*
X29499500Y-47384819D01*
X29494654Y-47415412D01*
X29490532Y-47428098D01*
X29454580Y-47477589D01*
X29450459Y-47480584D01*
X29392271Y-47499500D01*
X12476694Y-47499500D01*
X12446097Y-47494653D01*
X12435262Y-47491132D01*
X12385764Y-47455166D01*
X12366859Y-47396979D01*
X12366859Y-47392109D01*
X12380122Y-47342610D01*
X12384179Y-47335582D01*
X12419797Y-47273890D01*
X12419797Y-47273888D01*
X12419799Y-47273886D01*
X12450500Y-47159309D01*
X12450500Y-46788251D01*
X12455347Y-46757654D01*
X12458868Y-46746819D01*
X12494834Y-46697321D01*
X12553021Y-46678416D01*
X12564406Y-46678416D01*
X12594999Y-46683261D01*
X12707174Y-46719709D01*
X12707175Y-46719709D01*
X12707178Y-46719710D01*
X12901577Y-46750500D01*
X13098420Y-46750500D01*
X13098423Y-46750500D01*
X13175711Y-46738258D01*
X13292821Y-46719710D01*
X13292821Y-46719709D01*
X13292823Y-46719709D01*
X13292826Y-46719709D01*
X13292829Y-46719708D01*
X13295405Y-46719300D01*
X13300212Y-46717308D01*
X13480025Y-46658884D01*
X13655405Y-46569524D01*
X13814646Y-46453828D01*
X13953828Y-46314646D01*
X14069524Y-46155405D01*
X14103834Y-46088064D01*
X14122029Y-46063020D01*
X14138517Y-46046531D01*
X14182897Y-46020911D01*
X14212485Y-46012984D01*
X14338015Y-45940509D01*
X14440509Y-45838015D01*
X14477144Y-45774562D01*
X14512982Y-45712489D01*
X14512982Y-45712487D01*
X14512984Y-45712485D01*
X14550500Y-45572475D01*
X14550500Y-45427525D01*
X14512984Y-45287515D01*
X14512982Y-45287512D01*
X14512982Y-45287510D01*
X14512981Y-45287508D01*
X14512890Y-45287168D01*
X14511397Y-45284764D01*
X14441985Y-45164539D01*
X14440805Y-45162347D01*
X14440617Y-45162094D01*
X14440510Y-45161987D01*
X14440509Y-45161985D01*
X14338015Y-45059491D01*
X14338012Y-45059489D01*
X14338010Y-45059487D01*
X14338009Y-45059486D01*
X14212496Y-44987020D01*
X14212484Y-44987015D01*
X14212480Y-44987014D01*
X14188677Y-44980635D01*
X14160384Y-44968038D01*
X14140839Y-44955345D01*
X14106549Y-44917262D01*
X14069587Y-44844719D01*
X14069526Y-44844598D01*
X14069521Y-44844589D01*
X13953832Y-44685359D01*
X13953829Y-44685356D01*
X13953828Y-44685354D01*
X13824060Y-44555586D01*
X13805857Y-44530531D01*
X13800891Y-44520784D01*
X13791322Y-44460354D01*
X13819101Y-44405838D01*
X13866000Y-44379577D01*
X13871596Y-44378234D01*
X13894699Y-44375500D01*
X16809820Y-44375500D01*
X16840408Y-44380343D01*
X16853095Y-44384466D01*
X16902595Y-44420427D01*
X16902596Y-44420428D01*
X16905591Y-44424550D01*
X16924500Y-44482740D01*
X16924500Y-45549436D01*
X16930673Y-45572472D01*
X16930673Y-45572475D01*
X16930674Y-45572475D01*
X16950091Y-45644942D01*
X16999523Y-45730559D01*
X16999525Y-45730562D01*
X17069438Y-45800475D01*
X17069440Y-45800476D01*
X17069990Y-45800873D01*
X17072001Y-45801954D01*
X17098288Y-45817132D01*
X17119883Y-45841115D01*
X17154192Y-45849692D01*
X17155795Y-45850106D01*
X17250565Y-45875500D01*
X17319546Y-45875500D01*
X17350134Y-45880343D01*
X17362821Y-45884466D01*
X17412321Y-45920427D01*
X17412325Y-45920432D01*
X17420164Y-45931222D01*
X17434224Y-45958818D01*
X17441111Y-45980014D01*
X17441116Y-45980026D01*
X17530477Y-46155408D01*
X17530478Y-46155409D01*
X17530482Y-46155415D01*
X17646167Y-46314640D01*
X17646169Y-46314642D01*
X17646172Y-46314646D01*
X17785354Y-46453828D01*
X17944595Y-46569524D01*
X18119975Y-46658884D01*
X18306974Y-46719644D01*
X18307169Y-46719708D01*
X18307172Y-46719708D01*
X18307174Y-46719709D01*
X18307175Y-46719709D01*
X18307178Y-46719710D01*
X18413577Y-46736561D01*
X18501577Y-46750500D01*
X18698420Y-46750500D01*
X18698423Y-46750500D01*
X18775711Y-46738258D01*
X18892821Y-46719710D01*
X18892821Y-46719709D01*
X18892823Y-46719709D01*
X18892826Y-46719709D01*
X18892829Y-46719708D01*
X18895405Y-46719300D01*
X18900212Y-46717308D01*
X19080025Y-46658884D01*
X19255405Y-46569524D01*
X19414646Y-46453828D01*
X19553828Y-46314646D01*
X19669524Y-46155405D01*
X19758884Y-45980025D01*
X19782847Y-45906272D01*
X19796907Y-45878678D01*
X19804645Y-45868028D01*
X19854145Y-45832066D01*
X19910357Y-45830594D01*
X19918758Y-45832845D01*
X19942633Y-45842735D01*
X19955053Y-45849906D01*
X19955058Y-45849908D01*
X19955062Y-45849910D01*
X20050565Y-45875500D01*
X20119546Y-45875500D01*
X20150134Y-45880343D01*
X20162821Y-45884466D01*
X20212321Y-45920427D01*
X20212325Y-45920432D01*
X20220164Y-45931222D01*
X20234224Y-45958818D01*
X20241111Y-45980014D01*
X20241116Y-45980026D01*
X20330477Y-46155408D01*
X20330478Y-46155409D01*
X20330482Y-46155415D01*
X20446167Y-46314640D01*
X20446169Y-46314642D01*
X20446172Y-46314646D01*
X20585354Y-46453828D01*
X20744595Y-46569524D01*
X20919975Y-46658884D01*
X21106974Y-46719644D01*
X21107169Y-46719708D01*
X21107172Y-46719708D01*
X21107174Y-46719709D01*
X21107175Y-46719709D01*
X21107178Y-46719710D01*
X21213577Y-46736561D01*
X21301577Y-46750500D01*
X21498420Y-46750500D01*
X21498423Y-46750500D01*
X21575711Y-46738258D01*
X21692821Y-46719710D01*
X21692821Y-46719709D01*
X21692823Y-46719709D01*
X21692826Y-46719709D01*
X21692829Y-46719708D01*
X21695405Y-46719300D01*
X21700212Y-46717308D01*
X21880025Y-46658884D01*
X22055405Y-46569524D01*
X22214646Y-46453828D01*
X22353828Y-46314646D01*
X22469524Y-46155405D01*
X22558884Y-45980025D01*
X22619709Y-45792826D01*
X22626411Y-45750511D01*
X22630255Y-45726241D01*
X22630255Y-45726239D01*
X22632434Y-45712485D01*
X22643132Y-45644942D01*
X22650500Y-45598421D01*
X22650500Y-45401575D01*
X22650500Y-45401574D01*
X23249500Y-45401574D01*
X23249500Y-45598424D01*
X23280286Y-45792811D01*
X23280288Y-45792819D01*
X23280289Y-45792821D01*
X23312308Y-45891363D01*
X23341116Y-45980025D01*
X23430476Y-46155405D01*
X23546172Y-46314646D01*
X23685354Y-46453828D01*
X23844595Y-46569524D01*
X24019975Y-46658884D01*
X24206974Y-46719644D01*
X24207169Y-46719708D01*
X24207172Y-46719708D01*
X24207174Y-46719709D01*
X24207175Y-46719709D01*
X24207178Y-46719710D01*
X24313577Y-46736561D01*
X24401577Y-46750500D01*
X24598420Y-46750500D01*
X24598423Y-46750500D01*
X24675711Y-46738258D01*
X24792821Y-46719710D01*
X24792821Y-46719709D01*
X24792823Y-46719709D01*
X24792826Y-46719709D01*
X24792829Y-46719708D01*
X24795405Y-46719300D01*
X24800212Y-46717308D01*
X24980025Y-46658884D01*
X25155405Y-46569524D01*
X25314646Y-46453828D01*
X25453828Y-46314646D01*
X25569524Y-46155405D01*
X25658884Y-45980025D01*
X25719709Y-45792826D01*
X25726411Y-45750511D01*
X25730255Y-45726241D01*
X25730255Y-45726239D01*
X25732434Y-45712485D01*
X25743132Y-45644942D01*
X25750500Y-45598421D01*
X25750500Y-45401575D01*
X25750500Y-45401574D01*
X26749500Y-45401574D01*
X26749500Y-45598424D01*
X26780286Y-45792811D01*
X26780288Y-45792819D01*
X26780289Y-45792821D01*
X26812308Y-45891363D01*
X26841116Y-45980025D01*
X26930476Y-46155405D01*
X27046172Y-46314646D01*
X27185354Y-46453828D01*
X27344595Y-46569524D01*
X27519975Y-46658884D01*
X27706974Y-46719644D01*
X27707169Y-46719708D01*
X27707172Y-46719708D01*
X27707174Y-46719709D01*
X27707175Y-46719709D01*
X27707178Y-46719710D01*
X27813577Y-46736561D01*
X27901577Y-46750500D01*
X28098420Y-46750500D01*
X28098423Y-46750500D01*
X28175711Y-46738258D01*
X28292821Y-46719710D01*
X28292821Y-46719709D01*
X28292823Y-46719709D01*
X28292826Y-46719709D01*
X28292829Y-46719708D01*
X28295405Y-46719300D01*
X28300212Y-46717308D01*
X28480025Y-46658884D01*
X28655405Y-46569524D01*
X28814646Y-46453828D01*
X28953828Y-46314646D01*
X29069524Y-46155405D01*
X29158884Y-45980025D01*
X29219709Y-45792826D01*
X29226411Y-45750511D01*
X29230255Y-45726241D01*
X29230255Y-45726239D01*
X29232434Y-45712485D01*
X29243132Y-45644942D01*
X29250500Y-45598421D01*
X29250500Y-45401575D01*
X29219711Y-45207184D01*
X29219710Y-45207178D01*
X29205856Y-45164539D01*
X29158884Y-45019975D01*
X29069524Y-44844595D01*
X28953828Y-44685354D01*
X28814646Y-44546172D01*
X28814642Y-44546169D01*
X28814640Y-44546167D01*
X28661706Y-44435053D01*
X28661438Y-44434824D01*
X28655405Y-44430476D01*
X28655404Y-44430475D01*
X28655402Y-44430474D01*
X28655401Y-44430473D01*
X28655395Y-44430469D01*
X28655139Y-44430340D01*
X28480025Y-44341116D01*
X28292815Y-44280287D01*
X28098424Y-44249500D01*
X28098420Y-44249500D01*
X28098417Y-44249500D01*
X27901583Y-44249500D01*
X27901580Y-44249500D01*
X27901576Y-44249500D01*
X27707182Y-44280287D01*
X27519973Y-44341116D01*
X27344597Y-44430473D01*
X27344591Y-44430477D01*
X27185360Y-44546166D01*
X27046166Y-44685360D01*
X26930477Y-44844591D01*
X26930473Y-44844597D01*
X26841116Y-45019973D01*
X26780287Y-45207183D01*
X26749500Y-45401574D01*
X25750500Y-45401574D01*
X25719711Y-45207184D01*
X25719710Y-45207178D01*
X25705856Y-45164539D01*
X25658884Y-45019975D01*
X25569524Y-44844595D01*
X25506171Y-44757398D01*
X25461866Y-44696417D01*
X25453747Y-44683169D01*
X25451032Y-44677841D01*
X25443228Y-44662524D01*
X25433659Y-44602093D01*
X25459627Y-44549436D01*
X25466562Y-44542128D01*
X25488866Y-44524547D01*
X25530562Y-44500475D01*
X25600475Y-44430562D01*
X25644901Y-44353614D01*
X25644902Y-44353611D01*
X25644904Y-44353610D01*
X25649907Y-44344943D01*
X25649908Y-44344942D01*
X25649908Y-44344940D01*
X25649910Y-44344938D01*
X25675500Y-44249435D01*
X25675500Y-44115180D01*
X25680343Y-44084594D01*
X25684465Y-44071905D01*
X25720423Y-44022406D01*
X25721022Y-44021971D01*
X25724563Y-44019400D01*
X25782743Y-44000500D01*
X26174673Y-44000500D01*
X26174674Y-44000500D01*
X26247740Y-43985966D01*
X26330601Y-43930601D01*
X26385966Y-43847740D01*
X26400500Y-43774674D01*
X26400500Y-42225326D01*
X26385966Y-42152260D01*
X26330601Y-42069399D01*
X26330599Y-42069397D01*
X26330595Y-42069394D01*
X26330593Y-42069392D01*
X26247748Y-42014038D01*
X26247737Y-42014032D01*
X26247534Y-42013964D01*
X26245997Y-42013687D01*
X26174694Y-41999503D01*
X26174684Y-41999501D01*
X26174679Y-41999500D01*
X26174676Y-41999500D01*
X26174674Y-41999500D01*
X26174673Y-41999500D01*
X26161431Y-41999500D01*
X26130838Y-41994654D01*
X26118152Y-41990532D01*
X26068652Y-41954568D01*
X26068650Y-41954565D01*
X26062156Y-41945626D01*
X26046624Y-41913062D01*
X26043258Y-41900500D01*
X26012984Y-41787515D01*
X26012982Y-41787512D01*
X26012982Y-41787510D01*
X26012981Y-41787508D01*
X26012890Y-41787168D01*
X26011397Y-41784764D01*
X25941985Y-41664539D01*
X25940805Y-41662347D01*
X25940614Y-41662090D01*
X25885866Y-41607341D01*
X25867662Y-41582285D01*
X25861607Y-41570401D01*
X25852036Y-41509979D01*
X25852834Y-41504939D01*
X25880606Y-41450429D01*
X25900475Y-41430562D01*
X25949910Y-41344938D01*
X25975500Y-41249435D01*
X25975500Y-41062780D01*
X25980343Y-41032194D01*
X25984465Y-41019505D01*
X26020420Y-40970009D01*
X26022388Y-40968578D01*
X26070357Y-40950196D01*
X26074686Y-40949747D01*
X26095487Y-40949785D01*
X26102127Y-40950500D01*
X26722872Y-40950499D01*
X26782483Y-40944091D01*
X26849962Y-40918923D01*
X26915750Y-40894385D01*
X26919009Y-40893237D01*
X26922581Y-40892048D01*
X26930164Y-40884189D01*
X27032546Y-40807546D01*
X27118796Y-40692331D01*
X27118798Y-40692327D01*
X27169089Y-40557488D01*
X27169090Y-40557485D01*
X27169091Y-40557483D01*
X27175500Y-40497873D01*
X27175499Y-39502128D01*
X27169091Y-39442517D01*
X27169089Y-39442511D01*
X27154587Y-39403629D01*
X27118798Y-39307671D01*
X27106461Y-39291191D01*
X27034144Y-39194588D01*
X27032879Y-39192799D01*
X27032633Y-39192522D01*
X27032541Y-39192449D01*
X26917330Y-39106202D01*
X26917328Y-39106201D01*
X26787428Y-39057752D01*
X26783939Y-39056234D01*
X26783025Y-39055996D01*
X26780927Y-39055540D01*
X26777206Y-39055341D01*
X26760312Y-39053524D01*
X26751249Y-39052550D01*
X26751248Y-39052549D01*
X26722876Y-39049500D01*
X26722873Y-39049500D01*
X26722870Y-39049500D01*
X26102133Y-39049500D01*
X26102129Y-39049500D01*
X26093938Y-39049500D01*
X26087975Y-39051021D01*
X26079069Y-39051978D01*
X26042520Y-39055907D01*
X26042514Y-39055908D01*
X26042514Y-39055909D01*
X26042506Y-39055912D01*
X25907671Y-39106200D01*
X25792456Y-39192451D01*
X25792454Y-39192453D01*
X25706200Y-39307671D01*
X25655912Y-39442504D01*
X25655910Y-39442508D01*
X25655910Y-39442511D01*
X25655908Y-39442522D01*
X25649501Y-39502127D01*
X25649500Y-39502132D01*
X25649500Y-39509819D01*
X25644654Y-39540412D01*
X25640532Y-39553098D01*
X25604568Y-39602598D01*
X25604561Y-39602603D01*
X25600314Y-39605688D01*
X25557613Y-39623372D01*
X25551474Y-39624344D01*
X25549934Y-39624567D01*
X25548898Y-39624753D01*
X25532549Y-39627341D01*
X25528232Y-39630400D01*
X25524397Y-39631511D01*
X25490270Y-39640656D01*
X25459457Y-39643893D01*
X25456296Y-39643728D01*
X25447168Y-39643249D01*
X25390048Y-39621317D01*
X25357433Y-39572498D01*
X25354575Y-39562848D01*
X25350499Y-39534735D01*
X25350499Y-39502133D01*
X25350499Y-39502132D01*
X25350499Y-39502128D01*
X25344091Y-39442517D01*
X25344089Y-39442511D01*
X25329587Y-39403629D01*
X25293798Y-39307671D01*
X25281461Y-39291191D01*
X25209144Y-39194588D01*
X25207879Y-39192799D01*
X25207633Y-39192522D01*
X25207541Y-39192449D01*
X25098005Y-39110451D01*
X25095023Y-39107867D01*
X25093055Y-39106651D01*
X25092246Y-39106141D01*
X25090696Y-39105594D01*
X25054590Y-39092126D01*
X25027624Y-39076898D01*
X25016262Y-39067875D01*
X24983041Y-39018913D01*
X24979709Y-39007858D01*
X24975500Y-38979297D01*
X24975500Y-35650566D01*
X24975500Y-35650565D01*
X24949910Y-35555062D01*
X24949908Y-35555059D01*
X24949908Y-35555057D01*
X24949906Y-35555054D01*
X24949816Y-35554717D01*
X24948322Y-35552310D01*
X24901957Y-35472004D01*
X24900875Y-35469994D01*
X24900476Y-35469440D01*
X24900475Y-35469438D01*
X24830562Y-35399525D01*
X24830559Y-35399523D01*
X24802228Y-35383166D01*
X24781193Y-35359803D01*
X24707886Y-35340160D01*
X24707886Y-35340161D01*
X24649435Y-35324500D01*
X24649433Y-35324500D01*
X24490180Y-35324500D01*
X24459587Y-35319654D01*
X24446901Y-35315532D01*
X24397401Y-35279568D01*
X24397394Y-35279558D01*
X24394400Y-35275436D01*
X24375500Y-35217256D01*
X24375500Y-34271860D01*
X24380347Y-34241263D01*
X24383868Y-34230428D01*
X24419834Y-34180930D01*
X24478021Y-34162025D01*
X24484008Y-34162025D01*
X24516750Y-34169885D01*
X24517286Y-34168238D01*
X24524696Y-34170646D01*
X24618481Y-34185500D01*
X26331518Y-34185499D01*
X26331521Y-34185499D01*
X26336594Y-34185499D01*
X26343097Y-34183665D01*
X26354938Y-34181790D01*
X26406496Y-34173626D01*
X26421953Y-34172407D01*
X26433471Y-34172403D01*
X26433472Y-34172404D01*
X26446953Y-34172400D01*
X26505149Y-34191291D01*
X26541126Y-34240778D01*
X26544645Y-34251597D01*
X26549500Y-34282219D01*
X26549500Y-36939726D01*
X26546126Y-36965352D01*
X26539608Y-36989675D01*
X26529719Y-37013549D01*
X26487015Y-37087513D01*
X26482006Y-37106206D01*
X26482007Y-37106207D01*
X26449500Y-37227525D01*
X26449500Y-37372475D01*
X26457432Y-37402078D01*
X26468268Y-37442521D01*
X26487016Y-37512488D01*
X26487018Y-37512492D01*
X26559485Y-37638008D01*
X26559487Y-37638010D01*
X26559489Y-37638012D01*
X26559491Y-37638015D01*
X26661985Y-37740509D01*
X26661987Y-37740510D01*
X26662094Y-37740617D01*
X26662345Y-37740803D01*
X26664538Y-37741984D01*
X26777107Y-37806975D01*
X26784757Y-37811392D01*
X26787170Y-37812890D01*
X26787508Y-37812980D01*
X26787511Y-37812982D01*
X26787512Y-37812982D01*
X26787515Y-37812984D01*
X26927525Y-37850500D01*
X26927526Y-37850500D01*
X27072474Y-37850500D01*
X27072475Y-37850500D01*
X27212485Y-37812984D01*
X27212486Y-37812983D01*
X27212488Y-37812982D01*
X27212489Y-37812982D01*
X27331880Y-37744051D01*
X27334768Y-37742648D01*
X27335554Y-37742131D01*
X27340563Y-37739037D01*
X27341862Y-37738286D01*
X27347220Y-37731303D01*
X27440509Y-37638015D01*
X27512984Y-37512485D01*
X27550500Y-37372475D01*
X27550500Y-37227525D01*
X27512984Y-37087515D01*
X27512483Y-37086648D01*
X27498616Y-37062628D01*
X27470278Y-37013545D01*
X27460390Y-36989671D01*
X27453873Y-36965348D01*
X27450500Y-36939726D01*
X27450500Y-31440692D01*
X27450500Y-31440691D01*
X27419799Y-31326114D01*
X27419797Y-31326111D01*
X27419797Y-31326109D01*
X27419796Y-31326108D01*
X27419706Y-31325770D01*
X27418224Y-31323384D01*
X27361960Y-31225934D01*
X27360783Y-31223746D01*
X27360597Y-31223496D01*
X27360490Y-31223389D01*
X27360489Y-31223387D01*
X27276613Y-31139511D01*
X27276610Y-31139509D01*
X27276608Y-31139507D01*
X27231175Y-31113276D01*
X27210142Y-31089916D01*
X27160352Y-31076574D01*
X27160351Y-31076574D01*
X27059309Y-31049500D01*
X27059307Y-31049500D01*
X26815179Y-31049500D01*
X26784586Y-31044654D01*
X26771900Y-31040532D01*
X26722400Y-31004568D01*
X26722393Y-31004558D01*
X26719399Y-31000436D01*
X26700499Y-30942256D01*
X26700499Y-30912764D01*
X26699917Y-30909807D01*
X26686865Y-30827389D01*
X26686559Y-30823505D01*
X26686556Y-30823492D01*
X26685900Y-30820195D01*
X26628051Y-30706660D01*
X26628050Y-30706658D01*
X26538342Y-30616950D01*
X26484243Y-30589385D01*
X26459652Y-30564793D01*
X26331524Y-30544500D01*
X26331521Y-30544500D01*
X24618478Y-30544500D01*
X24617759Y-30544500D01*
X24614808Y-30545081D01*
X24524700Y-30559352D01*
X24524676Y-30559362D01*
X24411661Y-30616947D01*
X24321948Y-30706660D01*
X24264354Y-30819693D01*
X24249500Y-30913475D01*
X24249500Y-31276522D01*
X24249508Y-31276572D01*
X24249566Y-31276937D01*
X24264352Y-31370298D01*
X24264362Y-31370322D01*
X24321948Y-31483339D01*
X24321950Y-31483342D01*
X24411658Y-31573050D01*
X24445277Y-31590180D01*
X24524690Y-31630644D01*
X24532101Y-31633051D01*
X24531828Y-31633888D01*
X24548588Y-31639333D01*
X24555932Y-31643074D01*
X24599201Y-31686334D01*
X24608779Y-31746765D01*
X24581007Y-31801284D01*
X24581000Y-31801292D01*
X24580999Y-31801293D01*
X24528568Y-31828008D01*
X24528661Y-31828385D01*
X24527064Y-31828774D01*
X24526487Y-31829069D01*
X24524704Y-31829351D01*
X24524698Y-31829352D01*
X24524698Y-31829353D01*
X24524695Y-31829354D01*
X24524693Y-31829354D01*
X24524690Y-31829356D01*
X24524685Y-31829358D01*
X24411661Y-31886947D01*
X24321948Y-31976660D01*
X24264354Y-32089693D01*
X24249500Y-32183475D01*
X24249500Y-32546522D01*
X24249508Y-32546572D01*
X24249566Y-32546937D01*
X24264352Y-32640298D01*
X24264362Y-32640322D01*
X24314140Y-32738015D01*
X24321950Y-32753342D01*
X24411658Y-32843050D01*
X24448419Y-32861780D01*
X24524690Y-32900644D01*
X24532101Y-32903051D01*
X24531828Y-32903888D01*
X24548588Y-32909333D01*
X24555932Y-32913074D01*
X24599201Y-32956334D01*
X24608779Y-33016765D01*
X24581007Y-33071284D01*
X24581000Y-33071292D01*
X24580999Y-33071293D01*
X24528568Y-33098008D01*
X24528661Y-33098385D01*
X24527064Y-33098774D01*
X24526487Y-33099069D01*
X24524704Y-33099351D01*
X24524698Y-33099352D01*
X24524698Y-33099353D01*
X24524695Y-33099354D01*
X24524693Y-33099354D01*
X24524693Y-33099355D01*
X24411971Y-33156790D01*
X24411666Y-33156943D01*
X24411653Y-33156952D01*
X24384186Y-33184419D01*
X24359132Y-33202621D01*
X24337374Y-33213708D01*
X24292427Y-33224500D01*
X23950563Y-33224500D01*
X23892115Y-33240159D01*
X23892116Y-33240160D01*
X23855058Y-33250090D01*
X23769444Y-33299519D01*
X23699521Y-33369442D01*
X23650090Y-33455057D01*
X23639181Y-33495768D01*
X23639182Y-33495769D01*
X23629329Y-33532541D01*
X23624500Y-33550565D01*
X23624500Y-35749435D01*
X23643115Y-35818907D01*
X23643114Y-35818907D01*
X23650090Y-35844941D01*
X23696100Y-35924631D01*
X23699523Y-35930559D01*
X23699525Y-35930562D01*
X23769438Y-36000475D01*
X23769440Y-36000476D01*
X23769990Y-36000873D01*
X23772001Y-36001954D01*
X23798288Y-36017132D01*
X23819883Y-36041115D01*
X23854192Y-36049692D01*
X23855795Y-36050106D01*
X23950565Y-36075500D01*
X24049435Y-36075500D01*
X24109820Y-36075500D01*
X24140408Y-36080343D01*
X24153095Y-36084466D01*
X24202595Y-36120427D01*
X24202596Y-36120428D01*
X24205591Y-36124550D01*
X24224500Y-36182740D01*
X24224500Y-38968886D01*
X24219654Y-38999479D01*
X24215171Y-39013276D01*
X24180907Y-39061513D01*
X24171717Y-39068495D01*
X24146424Y-39082423D01*
X24082669Y-39106202D01*
X23967456Y-39192451D01*
X23967454Y-39192453D01*
X23881200Y-39307671D01*
X23830912Y-39442504D01*
X23830910Y-39442508D01*
X23830910Y-39442511D01*
X23830908Y-39442522D01*
X23824501Y-39502127D01*
X23824500Y-39502132D01*
X23824500Y-40497920D01*
X23824584Y-40498648D01*
X23829281Y-40542349D01*
X23830908Y-40557480D01*
X23830909Y-40557485D01*
X23830912Y-40557492D01*
X23881200Y-40692327D01*
X23967449Y-40807541D01*
X23967525Y-40807635D01*
X23967797Y-40807878D01*
X23969597Y-40809150D01*
X24042038Y-40863380D01*
X24063621Y-40885589D01*
X24071306Y-40896490D01*
X24089382Y-40954941D01*
X24089281Y-40962043D01*
X24076027Y-41010136D01*
X24050090Y-41055058D01*
X24024500Y-41150565D01*
X24024500Y-41884819D01*
X24019654Y-41915412D01*
X24015532Y-41928098D01*
X23979580Y-41977589D01*
X23975459Y-41980584D01*
X23917271Y-41999500D01*
X23825322Y-41999500D01*
X23825318Y-41999500D01*
X23825315Y-41999501D01*
X23789039Y-42006717D01*
X23752261Y-42014033D01*
X23752256Y-42014035D01*
X23669403Y-42069394D01*
X23669394Y-42069403D01*
X23614035Y-42152256D01*
X23614033Y-42152261D01*
X23599500Y-42225320D01*
X23599500Y-43774678D01*
X23599500Y-43774682D01*
X23599501Y-43774684D01*
X23614033Y-43847736D01*
X23614035Y-43847742D01*
X23669397Y-43930599D01*
X23669400Y-43930602D01*
X23699278Y-43950565D01*
X23699279Y-43950566D01*
X23752260Y-43985966D01*
X23807807Y-43997015D01*
X23807808Y-43997015D01*
X23819240Y-43999289D01*
X23821405Y-43999863D01*
X23823579Y-44000216D01*
X23825152Y-44000500D01*
X23825326Y-44000500D01*
X24020011Y-44000500D01*
X24050596Y-44005342D01*
X24062300Y-44009145D01*
X24111801Y-44045105D01*
X24130678Y-44100714D01*
X24130941Y-44110775D01*
X24127601Y-44138986D01*
X24124500Y-44150557D01*
X24124500Y-44219545D01*
X24119654Y-44250138D01*
X24115532Y-44262824D01*
X24079568Y-44312324D01*
X24079566Y-44312326D01*
X24068773Y-44320167D01*
X24041182Y-44334224D01*
X24019978Y-44341115D01*
X24019966Y-44341119D01*
X23844597Y-44430473D01*
X23844591Y-44430477D01*
X23685360Y-44546166D01*
X23546166Y-44685360D01*
X23430477Y-44844591D01*
X23430473Y-44844597D01*
X23341116Y-45019973D01*
X23280287Y-45207183D01*
X23249500Y-45401574D01*
X22650500Y-45401574D01*
X22619711Y-45207184D01*
X22619710Y-45207178D01*
X22605856Y-45164539D01*
X22558884Y-45019975D01*
X22469524Y-44844595D01*
X22353828Y-44685354D01*
X22214646Y-44546172D01*
X22214642Y-44546169D01*
X22214640Y-44546167D01*
X22061706Y-44435053D01*
X22061438Y-44434824D01*
X22055405Y-44430476D01*
X22055404Y-44430475D01*
X22055402Y-44430474D01*
X22055401Y-44430473D01*
X22055395Y-44430469D01*
X22055139Y-44430340D01*
X21880025Y-44341116D01*
X21692815Y-44280287D01*
X21498424Y-44249500D01*
X21498420Y-44249500D01*
X21498417Y-44249500D01*
X21301583Y-44249500D01*
X21301580Y-44249500D01*
X21301576Y-44249500D01*
X21107182Y-44280287D01*
X20919973Y-44341116D01*
X20744596Y-44430474D01*
X20744592Y-44430476D01*
X20645375Y-44502562D01*
X20617782Y-44516622D01*
X20606947Y-44520143D01*
X20545761Y-44520146D01*
X20496260Y-44484184D01*
X20496239Y-44484155D01*
X20494389Y-44481607D01*
X20475500Y-44423442D01*
X20475500Y-43950566D01*
X20475499Y-43950562D01*
X20470152Y-43930604D01*
X20449818Y-43854719D01*
X20448322Y-43852310D01*
X20401957Y-43772004D01*
X20400875Y-43769994D01*
X20400476Y-43769440D01*
X20400475Y-43769438D01*
X20330562Y-43699525D01*
X20330559Y-43699523D01*
X20302228Y-43683166D01*
X20281193Y-43659803D01*
X20207886Y-43640160D01*
X20207886Y-43640161D01*
X20149435Y-43624500D01*
X20149433Y-43624500D01*
X18390180Y-43624500D01*
X18359587Y-43619654D01*
X18346901Y-43615532D01*
X18297401Y-43579568D01*
X18297394Y-43579558D01*
X18294400Y-43575436D01*
X18275500Y-43517256D01*
X18275500Y-43350566D01*
X18275500Y-43350565D01*
X18249910Y-43255062D01*
X18249908Y-43255059D01*
X18249908Y-43255057D01*
X18249906Y-43255054D01*
X18249816Y-43254717D01*
X18248322Y-43252310D01*
X18201957Y-43172004D01*
X18200875Y-43169994D01*
X18200476Y-43169440D01*
X18200475Y-43169438D01*
X18130562Y-43099525D01*
X18130559Y-43099523D01*
X18102228Y-43083166D01*
X18081193Y-43059803D01*
X18007886Y-43040160D01*
X18007886Y-43040161D01*
X17949435Y-43024500D01*
X17949433Y-43024500D01*
X17490180Y-43024500D01*
X17459587Y-43019654D01*
X17446901Y-43015532D01*
X17397401Y-42979568D01*
X17397394Y-42979558D01*
X17394400Y-42975436D01*
X17375500Y-42917256D01*
X17375500Y-38250566D01*
X17375500Y-38250565D01*
X17349910Y-38155062D01*
X17349908Y-38155059D01*
X17349908Y-38155057D01*
X17349906Y-38155054D01*
X17349816Y-38154717D01*
X17348322Y-38152310D01*
X17301957Y-38072004D01*
X17300875Y-38069994D01*
X17300476Y-38069440D01*
X17300475Y-38069438D01*
X17230562Y-37999525D01*
X17230559Y-37999523D01*
X17202228Y-37983166D01*
X17181193Y-37959803D01*
X17107886Y-37940160D01*
X17107886Y-37940161D01*
X17049435Y-37924500D01*
X17049433Y-37924500D01*
X16190180Y-37924500D01*
X16159587Y-37919654D01*
X16146901Y-37915532D01*
X16097401Y-37879568D01*
X16097394Y-37879558D01*
X16094400Y-37875436D01*
X16075500Y-37817256D01*
X16075500Y-33658452D01*
X16080347Y-33627855D01*
X16083868Y-33617020D01*
X16119834Y-33567522D01*
X16178021Y-33548617D01*
X16180950Y-33548617D01*
X16226227Y-33559578D01*
X16226297Y-33559614D01*
X16240350Y-33568401D01*
X16307666Y-33618795D01*
X16307668Y-33618795D01*
X16307670Y-33618797D01*
X16441544Y-33668728D01*
X16442985Y-33669285D01*
X16444247Y-33669466D01*
X16447767Y-33669655D01*
X16502127Y-33675500D01*
X17497872Y-33675499D01*
X17557483Y-33669091D01*
X17557489Y-33669089D01*
X17628048Y-33642772D01*
X17674644Y-33625393D01*
X17690704Y-33619402D01*
X17694009Y-33618237D01*
X17697581Y-33617048D01*
X17705164Y-33609189D01*
X17807546Y-33532546D01*
X17893796Y-33417331D01*
X17915293Y-33359696D01*
X17940911Y-33291008D01*
X17941960Y-33288829D01*
X17943568Y-33284039D01*
X17944668Y-33280934D01*
X17950680Y-33264813D01*
X17947493Y-33254237D01*
X17948035Y-33245792D01*
X17950500Y-33222873D01*
X17950499Y-32602128D01*
X17950343Y-32600681D01*
X17950380Y-32599930D01*
X17950357Y-32599483D01*
X17950403Y-32599480D01*
X17951889Y-32569734D01*
X17954632Y-32556678D01*
X17985098Y-32503623D01*
X17986909Y-32501985D01*
X18032633Y-32478592D01*
X18036885Y-32477683D01*
X18057564Y-32475500D01*
X18249436Y-32475500D01*
X18249436Y-32475499D01*
X18326083Y-32454962D01*
X18356885Y-32451724D01*
X18370206Y-32452422D01*
X18427327Y-32474349D01*
X18431286Y-32477555D01*
X18464609Y-32528868D01*
X18487015Y-32612484D01*
X18487017Y-32612488D01*
X18487019Y-32612492D01*
X18487025Y-32612504D01*
X18559486Y-32738009D01*
X18559487Y-32738010D01*
X18559489Y-32738012D01*
X18559491Y-32738015D01*
X18661985Y-32840509D01*
X18661987Y-32840510D01*
X18662094Y-32840617D01*
X18662345Y-32840803D01*
X18664538Y-32841984D01*
X18768867Y-32902218D01*
X18784757Y-32911392D01*
X18787170Y-32912890D01*
X18787508Y-32912980D01*
X18787511Y-32912982D01*
X18787512Y-32912982D01*
X18787515Y-32912984D01*
X18927525Y-32950500D01*
X18927526Y-32950500D01*
X19072474Y-32950500D01*
X19072475Y-32950500D01*
X19212485Y-32912984D01*
X19212486Y-32912982D01*
X19212488Y-32912982D01*
X19212489Y-32912982D01*
X19329732Y-32845292D01*
X19331813Y-32844849D01*
X19346163Y-32837714D01*
X19365140Y-32830991D01*
X19426300Y-32829382D01*
X19437941Y-32832828D01*
X19454783Y-32839546D01*
X19461655Y-32843047D01*
X19461657Y-32843049D01*
X19461658Y-32843050D01*
X19512967Y-32869193D01*
X19574690Y-32900644D01*
X19582101Y-32903051D01*
X19581828Y-32903888D01*
X19598588Y-32909333D01*
X19605932Y-32913074D01*
X19649201Y-32956334D01*
X19658779Y-33016765D01*
X19631007Y-33071284D01*
X19631000Y-33071292D01*
X19630999Y-33071293D01*
X19578568Y-33098008D01*
X19578661Y-33098385D01*
X19577064Y-33098774D01*
X19576487Y-33099069D01*
X19574704Y-33099351D01*
X19574698Y-33099352D01*
X19574698Y-33099353D01*
X19574695Y-33099354D01*
X19574693Y-33099354D01*
X19574693Y-33099355D01*
X19461971Y-33156790D01*
X19461666Y-33156943D01*
X19461653Y-33156952D01*
X19434186Y-33184419D01*
X19409132Y-33202621D01*
X19387374Y-33213708D01*
X19342427Y-33224500D01*
X18550563Y-33224500D01*
X18492115Y-33240159D01*
X18492116Y-33240160D01*
X18455058Y-33250090D01*
X18369444Y-33299519D01*
X18299521Y-33369442D01*
X18250092Y-33455054D01*
X18250091Y-33455056D01*
X18250091Y-33455057D01*
X18239182Y-33495770D01*
X18239182Y-33495771D01*
X18239181Y-33495770D01*
X18229328Y-33532547D01*
X18224786Y-33549500D01*
X18224500Y-33550566D01*
X18224500Y-33550567D01*
X18224500Y-36968886D01*
X18219654Y-36999479D01*
X18215171Y-37013276D01*
X18180907Y-37061513D01*
X18171717Y-37068495D01*
X18146424Y-37082423D01*
X18082669Y-37106202D01*
X17967456Y-37192451D01*
X17967454Y-37192453D01*
X17967451Y-37192456D01*
X17967450Y-37192458D01*
X17952758Y-37212082D01*
X17881200Y-37307671D01*
X17830912Y-37442504D01*
X17830908Y-37442520D01*
X17830908Y-37442521D01*
X17824500Y-37502132D01*
X17824500Y-38497920D01*
X17824584Y-38498648D01*
X17825314Y-38505436D01*
X17830908Y-38557480D01*
X17830909Y-38557485D01*
X17847497Y-38601960D01*
X17881201Y-38692328D01*
X17881201Y-38692329D01*
X17966319Y-38806031D01*
X17967520Y-38807636D01*
X17967696Y-38807806D01*
X17969595Y-38809149D01*
X18049971Y-38869318D01*
X18082668Y-38893796D01*
X18082669Y-38893796D01*
X18082670Y-38893797D01*
X18216544Y-38943728D01*
X18217985Y-38944285D01*
X18219247Y-38944466D01*
X18222767Y-38944655D01*
X18277127Y-38950500D01*
X18897872Y-38950499D01*
X18957483Y-38944091D01*
X19024907Y-38918943D01*
X19024910Y-38918942D01*
X19090697Y-38894406D01*
X19094030Y-38893230D01*
X19097582Y-38892047D01*
X19105167Y-38884186D01*
X19207546Y-38807546D01*
X19293796Y-38692331D01*
X19344091Y-38557483D01*
X19350500Y-38497873D01*
X19350499Y-37502128D01*
X19344091Y-37442517D01*
X19317967Y-37372474D01*
X19293797Y-37307670D01*
X19209156Y-37194605D01*
X19207881Y-37192802D01*
X19207633Y-37192522D01*
X19207541Y-37192449D01*
X19098005Y-37110451D01*
X19095023Y-37107867D01*
X19093055Y-37106651D01*
X19092246Y-37106141D01*
X19090696Y-37105594D01*
X19054590Y-37092126D01*
X19027624Y-37076898D01*
X19016262Y-37067875D01*
X18983041Y-37018913D01*
X18979709Y-37007858D01*
X18975500Y-36979297D01*
X18975500Y-34090180D01*
X18979150Y-34078943D01*
X18978212Y-34067165D01*
X18980343Y-34059594D01*
X18982997Y-34051425D01*
X18984465Y-34046905D01*
X18993682Y-34034217D01*
X18994407Y-34031989D01*
X18996301Y-34030612D01*
X19020423Y-33997406D01*
X19021022Y-33996971D01*
X19024563Y-33994400D01*
X19082743Y-33975500D01*
X19271226Y-33975500D01*
X19301817Y-33980345D01*
X19318542Y-33985779D01*
X19363230Y-34015638D01*
X19381231Y-34036714D01*
X19388624Y-34040123D01*
X19391396Y-34042788D01*
X19461658Y-34113050D01*
X19557776Y-34162025D01*
X19557778Y-34162026D01*
X19572298Y-34169425D01*
X19574696Y-34170646D01*
X19582107Y-34173054D01*
X19581833Y-34173894D01*
X19598600Y-34179338D01*
X19605942Y-34183079D01*
X19649206Y-34226344D01*
X19658777Y-34286776D01*
X19631000Y-34341292D01*
X19630999Y-34341293D01*
X19578568Y-34368008D01*
X19578661Y-34368385D01*
X19577064Y-34368774D01*
X19576487Y-34369069D01*
X19574704Y-34369351D01*
X19574698Y-34369352D01*
X19574698Y-34369353D01*
X19574695Y-34369354D01*
X19574693Y-34369354D01*
X19574690Y-34369356D01*
X19574685Y-34369358D01*
X19461661Y-34426947D01*
X19371948Y-34516660D01*
X19314354Y-34629693D01*
X19299500Y-34723475D01*
X19299500Y-35086522D01*
X19299508Y-35086572D01*
X19299566Y-35086937D01*
X19314352Y-35180298D01*
X19314362Y-35180322D01*
X19371948Y-35293339D01*
X19371950Y-35293342D01*
X19461658Y-35383050D01*
X19574696Y-35440646D01*
X19668481Y-35455500D01*
X21381518Y-35455499D01*
X21381521Y-35455499D01*
X21386593Y-35455499D01*
X21393092Y-35453665D01*
X21428411Y-35448072D01*
X21467615Y-35441863D01*
X21471506Y-35441557D01*
X21471509Y-35441557D01*
X21479142Y-35440038D01*
X21483064Y-35439416D01*
X21492838Y-35431711D01*
X21588342Y-35383050D01*
X21678050Y-35293342D01*
X21735646Y-35180304D01*
X21750500Y-35086519D01*
X21750499Y-34723482D01*
X21750499Y-34723478D01*
X21742759Y-34674608D01*
X21742759Y-34674607D01*
X21736865Y-34637389D01*
X21736559Y-34633505D01*
X21736556Y-34633492D01*
X21735900Y-34630195D01*
X21698883Y-34557546D01*
X21678050Y-34516658D01*
X21588342Y-34426950D01*
X21534243Y-34399385D01*
X21509650Y-34374791D01*
X21480861Y-34370233D01*
X21451404Y-34360663D01*
X21444061Y-34356922D01*
X21400795Y-34313659D01*
X21391220Y-34253228D01*
X21418993Y-34198712D01*
X21418997Y-34198708D01*
X21468097Y-34173687D01*
X21467892Y-34173054D01*
X21471892Y-34171754D01*
X21473510Y-34170930D01*
X21473507Y-34170930D01*
X21475304Y-34170646D01*
X21588342Y-34113050D01*
X21678050Y-34023342D01*
X21735646Y-33910304D01*
X21750500Y-33816519D01*
X21750499Y-33453482D01*
X21744774Y-33417331D01*
X21736865Y-33367389D01*
X21736559Y-33363505D01*
X21736556Y-33363492D01*
X21735900Y-33360195D01*
X21695514Y-33280934D01*
X21678050Y-33246658D01*
X21588342Y-33156950D01*
X21534243Y-33129385D01*
X21509650Y-33104791D01*
X21480861Y-33100233D01*
X21451404Y-33090663D01*
X21444061Y-33086922D01*
X21400795Y-33043659D01*
X21391220Y-32983228D01*
X21418993Y-32928712D01*
X21418997Y-32928708D01*
X21468097Y-32903687D01*
X21467892Y-32903054D01*
X21471892Y-32901754D01*
X21473510Y-32900930D01*
X21473507Y-32900930D01*
X21475304Y-32900646D01*
X21588342Y-32843050D01*
X21678050Y-32753342D01*
X21735646Y-32640304D01*
X21750500Y-32546519D01*
X21750499Y-32183482D01*
X21750498Y-32183477D01*
X21743770Y-32140993D01*
X21741527Y-32126830D01*
X21741527Y-32126829D01*
X21736865Y-32097390D01*
X21736558Y-32093499D01*
X21736555Y-32093484D01*
X21735901Y-32090196D01*
X21678051Y-31976660D01*
X21678050Y-31976658D01*
X21588342Y-31886950D01*
X21534243Y-31859385D01*
X21509650Y-31834791D01*
X21480861Y-31830233D01*
X21451399Y-31820660D01*
X21444057Y-31816919D01*
X21400793Y-31773654D01*
X21391222Y-31713222D01*
X21419000Y-31658706D01*
X21468098Y-31633689D01*
X21467892Y-31633054D01*
X21471905Y-31631749D01*
X21473517Y-31630929D01*
X21473517Y-31630928D01*
X21475304Y-31630646D01*
X21588342Y-31573050D01*
X21678050Y-31483342D01*
X21735646Y-31370304D01*
X21750500Y-31276519D01*
X21750499Y-30913482D01*
X21750499Y-30913269D01*
X21750288Y-30911768D01*
X21750200Y-30911058D01*
X21749819Y-30909185D01*
X21736865Y-30827388D01*
X21736559Y-30823506D01*
X21736556Y-30823492D01*
X21735900Y-30820195D01*
X21678051Y-30706660D01*
X21678050Y-30706658D01*
X21588342Y-30616950D01*
X21534243Y-30589385D01*
X21509652Y-30564793D01*
X21381524Y-30544500D01*
X21381521Y-30544500D01*
X19668478Y-30544500D01*
X19667759Y-30544500D01*
X19664808Y-30545081D01*
X19574700Y-30559352D01*
X19574694Y-30559354D01*
X19515756Y-30589385D01*
X19482834Y-30606159D01*
X19469167Y-30609440D01*
X19432662Y-30645946D01*
X19432661Y-30645946D01*
X19394190Y-30684416D01*
X19369134Y-30702620D01*
X19347374Y-30713708D01*
X19302427Y-30724500D01*
X18977730Y-30724500D01*
X18947133Y-30719653D01*
X18936298Y-30716132D01*
X18886800Y-30680166D01*
X18867895Y-30621979D01*
X18867895Y-30617109D01*
X18881158Y-30567610D01*
X18885920Y-30559362D01*
X18912982Y-30512489D01*
X18912982Y-30512487D01*
X18912984Y-30512485D01*
X18950500Y-30372475D01*
X18950500Y-30227525D01*
X18912984Y-30087515D01*
X18912982Y-30087512D01*
X18912982Y-30087510D01*
X18912981Y-30087508D01*
X18912890Y-30087168D01*
X18911397Y-30084764D01*
X18841985Y-29964539D01*
X18840805Y-29962347D01*
X18840617Y-29962094D01*
X18840510Y-29961987D01*
X18840509Y-29961985D01*
X18738015Y-29859491D01*
X18738012Y-29859489D01*
X18638577Y-29802079D01*
X18614505Y-29782585D01*
X18605798Y-29772915D01*
X18601807Y-29768482D01*
X18578543Y-29722818D01*
X18577662Y-29718672D01*
X18575500Y-29698095D01*
X18575500Y-27362181D01*
X18580343Y-27331595D01*
X18584465Y-27318906D01*
X18620423Y-27269407D01*
X18627662Y-27264148D01*
X18666533Y-27247146D01*
X18722740Y-27235966D01*
X18741962Y-27223121D01*
X18770083Y-27210156D01*
X18784984Y-27205954D01*
X18842447Y-27207082D01*
X18850576Y-27209724D01*
X18851979Y-27210180D01*
X18876387Y-27222019D01*
X18897260Y-27235966D01*
X18952807Y-27247015D01*
X18952808Y-27247015D01*
X18964240Y-27249289D01*
X18966405Y-27249863D01*
X18968579Y-27250216D01*
X18970152Y-27250500D01*
X18970326Y-27250500D01*
X18970327Y-27250500D01*
X19919673Y-27250500D01*
X19919674Y-27250500D01*
X19992740Y-27235966D01*
X20011962Y-27223121D01*
X20040083Y-27210156D01*
X20054984Y-27205954D01*
X20112447Y-27207082D01*
X20120576Y-27209724D01*
X20121979Y-27210180D01*
X20146387Y-27222019D01*
X20167260Y-27235966D01*
X20222807Y-27247015D01*
X20222808Y-27247015D01*
X20234240Y-27249289D01*
X20236405Y-27249863D01*
X20238579Y-27250216D01*
X20240152Y-27250500D01*
X20240326Y-27250500D01*
X20240327Y-27250500D01*
X21189673Y-27250500D01*
X21189674Y-27250500D01*
X21262740Y-27235966D01*
X21281962Y-27223121D01*
X21310083Y-27210156D01*
X21324984Y-27205954D01*
X21382447Y-27207082D01*
X21390576Y-27209724D01*
X21391979Y-27210180D01*
X21416387Y-27222019D01*
X21437260Y-27235966D01*
X21492807Y-27247015D01*
X21492808Y-27247015D01*
X21504240Y-27249289D01*
X21506405Y-27249863D01*
X21508579Y-27250216D01*
X21510152Y-27250500D01*
X21510326Y-27250500D01*
X21510327Y-27250500D01*
X22459673Y-27250500D01*
X22459674Y-27250500D01*
X22532740Y-27235966D01*
X22615601Y-27180601D01*
X22670966Y-27097740D01*
X22685500Y-27024674D01*
X22685500Y-25742028D01*
X22685676Y-25741483D01*
X22690347Y-25711431D01*
X22693868Y-25700596D01*
X22703081Y-25687915D01*
X22704407Y-25683837D01*
X22707877Y-25681315D01*
X22729834Y-25651098D01*
X22788021Y-25632193D01*
X22791751Y-25632193D01*
X22846752Y-25648877D01*
X22856426Y-25655341D01*
X22902260Y-25685966D01*
X22957808Y-25697015D01*
X22975315Y-25700498D01*
X22975320Y-25700498D01*
X22975326Y-25700500D01*
X22975327Y-25700500D01*
X24524673Y-25700500D01*
X24524674Y-25700500D01*
X24597740Y-25685966D01*
X24680601Y-25630601D01*
X24735966Y-25547740D01*
X24750500Y-25474674D01*
X24750500Y-25190180D01*
X24755343Y-25159594D01*
X24759465Y-25146905D01*
X24795423Y-25097406D01*
X24796022Y-25096971D01*
X24799563Y-25094400D01*
X24857743Y-25075500D01*
X25049433Y-25075500D01*
X25049435Y-25075500D01*
X25144938Y-25049910D01*
X25144940Y-25049908D01*
X25144942Y-25049908D01*
X25170377Y-25035222D01*
X25230562Y-25000475D01*
X25300475Y-24930562D01*
X25349910Y-24844938D01*
X25375500Y-24749435D01*
X25375500Y-21707175D01*
X25380345Y-21676583D01*
X25386209Y-21658535D01*
X25414111Y-21615564D01*
X25417261Y-21612727D01*
X25434009Y-21600557D01*
X25531874Y-21544054D01*
X25534766Y-21542650D01*
X25535554Y-21542131D01*
X25540563Y-21539037D01*
X25541862Y-21538286D01*
X25547220Y-21531303D01*
X25640509Y-21438015D01*
X25655249Y-21412485D01*
X25712982Y-21312489D01*
X25712982Y-21312487D01*
X25712984Y-21312485D01*
X25750500Y-21172475D01*
X25750500Y-21027525D01*
X25712984Y-20887515D01*
X25712982Y-20887512D01*
X25712982Y-20887510D01*
X25712981Y-20887508D01*
X25712890Y-20887168D01*
X25711397Y-20884764D01*
X25641985Y-20764539D01*
X25640805Y-20762347D01*
X25640617Y-20762094D01*
X25640510Y-20761987D01*
X25640509Y-20761985D01*
X25538015Y-20659491D01*
X25538012Y-20659489D01*
X25538010Y-20659487D01*
X25469774Y-20620091D01*
X25448741Y-20596731D01*
X25382897Y-20579087D01*
X25382896Y-20579087D01*
X25272475Y-20549500D01*
X25272473Y-20549500D01*
X25127526Y-20549500D01*
X25127525Y-20549500D01*
X25092493Y-20558887D01*
X25092489Y-20558888D01*
X24987508Y-20587017D01*
X24873237Y-20652993D01*
X24844321Y-20664093D01*
X24831271Y-20666867D01*
X24770421Y-20660472D01*
X24770420Y-20660471D01*
X24765056Y-20658083D01*
X24719588Y-20617142D01*
X24710043Y-20594516D01*
X24709962Y-20594229D01*
X24705954Y-20580015D01*
X24707083Y-20522550D01*
X24710182Y-20513015D01*
X24722019Y-20488613D01*
X24735964Y-20467743D01*
X24735964Y-20467742D01*
X24735966Y-20467740D01*
X24750500Y-20394674D01*
X24750500Y-19445326D01*
X24735966Y-19372260D01*
X24735962Y-19372254D01*
X24735962Y-19372253D01*
X24723122Y-19353036D01*
X24710156Y-19324913D01*
X24705954Y-19310014D01*
X24707082Y-19252554D01*
X24710182Y-19243014D01*
X24722019Y-19218613D01*
X24735966Y-19197740D01*
X24750500Y-19124674D01*
X24750500Y-18175326D01*
X24735966Y-18102260D01*
X24735962Y-18102254D01*
X24735962Y-18102253D01*
X24723122Y-18083036D01*
X24710156Y-18054913D01*
X24705954Y-18040014D01*
X24707082Y-17982554D01*
X24710182Y-17973014D01*
X24722019Y-17948613D01*
X24723120Y-17946965D01*
X24735966Y-17927740D01*
X24750500Y-17854674D01*
X24750500Y-16905326D01*
X24735966Y-16832260D01*
X24735962Y-16832254D01*
X24735962Y-16832253D01*
X24723122Y-16813036D01*
X24710156Y-16784913D01*
X24705954Y-16770014D01*
X24707082Y-16712554D01*
X24710182Y-16703014D01*
X24722019Y-16678613D01*
X24735962Y-16657746D01*
X24735966Y-16657740D01*
X24750500Y-16584674D01*
X24750500Y-15635326D01*
X24735966Y-15562260D01*
X24735962Y-15562254D01*
X24735962Y-15562253D01*
X24723122Y-15543036D01*
X24710156Y-15514913D01*
X24705954Y-15500014D01*
X24707082Y-15442554D01*
X24710182Y-15433014D01*
X24722019Y-15408613D01*
X24735962Y-15387746D01*
X24735966Y-15387740D01*
X24750500Y-15314674D01*
X24750500Y-14466591D01*
X24755343Y-14436007D01*
X24757025Y-14430828D01*
X24759145Y-14424303D01*
X24795103Y-14374802D01*
X24850711Y-14355923D01*
X24860776Y-14355660D01*
X24888980Y-14358998D01*
X24950565Y-14375500D01*
X25049435Y-14375500D01*
X26219546Y-14375500D01*
X26250134Y-14380343D01*
X26262821Y-14384466D01*
X26312321Y-14420427D01*
X26312325Y-14420432D01*
X26320164Y-14431222D01*
X26334224Y-14458818D01*
X26341111Y-14480014D01*
X26341114Y-14480022D01*
X26341115Y-14480024D01*
X26393323Y-14582488D01*
X26430476Y-14655405D01*
X26546172Y-14814646D01*
X26685354Y-14953828D01*
X26844595Y-15069524D01*
X27019975Y-15158884D01*
X27206974Y-15219644D01*
X27207169Y-15219708D01*
X27207172Y-15219708D01*
X27207174Y-15219709D01*
X27207175Y-15219709D01*
X27207178Y-15219710D01*
X27313577Y-15236561D01*
X27401577Y-15250500D01*
X27598420Y-15250500D01*
X27598423Y-15250500D01*
X27675711Y-15238258D01*
X27792821Y-15219710D01*
X27792821Y-15219709D01*
X27792823Y-15219709D01*
X27792826Y-15219709D01*
X27792829Y-15219708D01*
X27795405Y-15219300D01*
X27800212Y-15217308D01*
X27980025Y-15158884D01*
X28155405Y-15069524D01*
X28314646Y-14953828D01*
X28453828Y-14814646D01*
X28569524Y-14655405D01*
X28658884Y-14480025D01*
X28719709Y-14292826D01*
X28719800Y-14292252D01*
X28727457Y-14243908D01*
X28727457Y-14243907D01*
X28750500Y-14098422D01*
X28750500Y-13901575D01*
X28719711Y-13707184D01*
X28719709Y-13707174D01*
X28658884Y-13519975D01*
X28569524Y-13344595D01*
X28453828Y-13185354D01*
X28314646Y-13046172D01*
X28314642Y-13046169D01*
X28314640Y-13046167D01*
X28161706Y-12935053D01*
X28161438Y-12934824D01*
X28155405Y-12930476D01*
X28155404Y-12930475D01*
X28155402Y-12930474D01*
X28155401Y-12930473D01*
X28155395Y-12930469D01*
X28155139Y-12930340D01*
X27980025Y-12841116D01*
X27792815Y-12780287D01*
X27598424Y-12749500D01*
X27598420Y-12749500D01*
X27598417Y-12749500D01*
X27401583Y-12749500D01*
X27401580Y-12749500D01*
X27401576Y-12749500D01*
X27207182Y-12780287D01*
X27019973Y-12841116D01*
X26844597Y-12930473D01*
X26844591Y-12930477D01*
X26685360Y-13046166D01*
X26546166Y-13185360D01*
X26430477Y-13344591D01*
X26430473Y-13344597D01*
X26341117Y-13519970D01*
X26341114Y-13519977D01*
X26334227Y-13541176D01*
X26320163Y-13568778D01*
X26312321Y-13579571D01*
X26262830Y-13615530D01*
X26250147Y-13619652D01*
X26219547Y-13624500D01*
X25312224Y-13624500D01*
X25281631Y-13619654D01*
X25257081Y-13611677D01*
X25223378Y-13592802D01*
X25219321Y-13589337D01*
X25209235Y-13587211D01*
X25209086Y-13587125D01*
X25202226Y-13583164D01*
X25181194Y-13559804D01*
X25107886Y-13540160D01*
X25107886Y-13540161D01*
X25049435Y-13524500D01*
X25049433Y-13524500D01*
X24865180Y-13524500D01*
X24834587Y-13519654D01*
X24821901Y-13515532D01*
X24772401Y-13479568D01*
X24772394Y-13479558D01*
X24769400Y-13475436D01*
X24750500Y-13417256D01*
X24750500Y-13095328D01*
X24750496Y-13095304D01*
X24746945Y-13077451D01*
X24746945Y-13077450D01*
X24735967Y-13022266D01*
X24735966Y-13022260D01*
X24735962Y-13022254D01*
X24723122Y-13003036D01*
X24710156Y-12974913D01*
X24705954Y-12960014D01*
X24707082Y-12902554D01*
X24710182Y-12893014D01*
X24722019Y-12868613D01*
X24734076Y-12850568D01*
X24735966Y-12847740D01*
X24750500Y-12774674D01*
X24750500Y-12490180D01*
X24755343Y-12459594D01*
X24759465Y-12446905D01*
X24795423Y-12397406D01*
X24796022Y-12396971D01*
X24799563Y-12394400D01*
X24857743Y-12375500D01*
X25049433Y-12375500D01*
X25049435Y-12375500D01*
X25144938Y-12349910D01*
X25144940Y-12349908D01*
X25144942Y-12349908D01*
X25170377Y-12335222D01*
X25230562Y-12300475D01*
X25300475Y-12230562D01*
X25349910Y-12144938D01*
X25375500Y-12049435D01*
X25375500Y-10490180D01*
X25380343Y-10459594D01*
X25380595Y-10458818D01*
X25384465Y-10446905D01*
X25420423Y-10397406D01*
X25421022Y-10396971D01*
X25424563Y-10394400D01*
X25482743Y-10375500D01*
X26219546Y-10375500D01*
X26250134Y-10380343D01*
X26262821Y-10384466D01*
X26312321Y-10420427D01*
X26312325Y-10420432D01*
X26320164Y-10431222D01*
X26334224Y-10458818D01*
X26341111Y-10480014D01*
X26341114Y-10480022D01*
X26341115Y-10480024D01*
X26414729Y-10624500D01*
X26430476Y-10655405D01*
X26546172Y-10814646D01*
X26685354Y-10953828D01*
X26844595Y-11069524D01*
X27019975Y-11158884D01*
X27206974Y-11219644D01*
X27207169Y-11219708D01*
X27207172Y-11219708D01*
X27207174Y-11219709D01*
X27207175Y-11219709D01*
X27207178Y-11219710D01*
X27313577Y-11236561D01*
X27401577Y-11250500D01*
X27598420Y-11250500D01*
X27598423Y-11250500D01*
X27675711Y-11238258D01*
X27792821Y-11219710D01*
X27792821Y-11219709D01*
X27792823Y-11219709D01*
X27792826Y-11219709D01*
X27792829Y-11219708D01*
X27795405Y-11219300D01*
X27800212Y-11217308D01*
X27980025Y-11158884D01*
X28155405Y-11069524D01*
X28314646Y-10953828D01*
X28453828Y-10814646D01*
X28569524Y-10655405D01*
X28658884Y-10480025D01*
X28719709Y-10292826D01*
X28728918Y-10234684D01*
X28732433Y-10212489D01*
X28750500Y-10098423D01*
X28750500Y-9901575D01*
X28719711Y-9707184D01*
X28719710Y-9707178D01*
X28705856Y-9664539D01*
X28658884Y-9519975D01*
X28569524Y-9344595D01*
X28453828Y-9185354D01*
X28314646Y-9046172D01*
X28314642Y-9046169D01*
X28314640Y-9046167D01*
X28161706Y-8935053D01*
X28161438Y-8934824D01*
X28155405Y-8930476D01*
X28155404Y-8930475D01*
X28155402Y-8930474D01*
X28155401Y-8930473D01*
X28155395Y-8930469D01*
X28155139Y-8930340D01*
X27980025Y-8841116D01*
X27792815Y-8780287D01*
X27598424Y-8749500D01*
X27598420Y-8749500D01*
X27598417Y-8749500D01*
X27401583Y-8749500D01*
X27401580Y-8749500D01*
X27401576Y-8749500D01*
X27207182Y-8780287D01*
X27019973Y-8841116D01*
X26844597Y-8930473D01*
X26844591Y-8930477D01*
X26685360Y-9046166D01*
X26546166Y-9185360D01*
X26430477Y-9344591D01*
X26430473Y-9344597D01*
X26341117Y-9519970D01*
X26341114Y-9519977D01*
X26334227Y-9541176D01*
X26320163Y-9568778D01*
X26312321Y-9579571D01*
X26262830Y-9615530D01*
X26250147Y-9619652D01*
X26219547Y-9624500D01*
X24950563Y-9624500D01*
X24890264Y-9640656D01*
X24859460Y-9643893D01*
X24847176Y-9643249D01*
X24790055Y-9621321D01*
X24757436Y-9572502D01*
X24754577Y-9562850D01*
X24750500Y-9534733D01*
X24750500Y-9285327D01*
X24750498Y-9285315D01*
X24747015Y-9267810D01*
X24747014Y-9267804D01*
X24746663Y-9266041D01*
X24735966Y-9212260D01*
X24735963Y-9212256D01*
X24680605Y-9129404D01*
X24680603Y-9129402D01*
X24680601Y-9129399D01*
X24680599Y-9129397D01*
X24680595Y-9129394D01*
X24680593Y-9129392D01*
X24597748Y-9074038D01*
X24597737Y-9074032D01*
X24597534Y-9073964D01*
X24595997Y-9073687D01*
X24524694Y-9059503D01*
X24524684Y-9059501D01*
X24524679Y-9059500D01*
X24524676Y-9059500D01*
X24524674Y-9059500D01*
X22975326Y-9059500D01*
X22975325Y-9059500D01*
X22975322Y-9059500D01*
X22975318Y-9059500D01*
X22975315Y-9059501D01*
X22939039Y-9066717D01*
X22902261Y-9074033D01*
X22902256Y-9074035D01*
X22819403Y-9129394D01*
X22819394Y-9129403D01*
X22764035Y-9212256D01*
X22764033Y-9212261D01*
X22749500Y-9285320D01*
X22749500Y-10234678D01*
X22749500Y-10234682D01*
X22749501Y-10234684D01*
X22764033Y-10307736D01*
X22764036Y-10307745D01*
X22764037Y-10307746D01*
X22776878Y-10326965D01*
X22789842Y-10355085D01*
X22794043Y-10369982D01*
X22792915Y-10427449D01*
X22789819Y-10436977D01*
X22777981Y-10461384D01*
X22764037Y-10482252D01*
X22764032Y-10482266D01*
X22749500Y-10555320D01*
X22749500Y-11504678D01*
X22749500Y-11504682D01*
X22749501Y-11504684D01*
X22764033Y-11577736D01*
X22764036Y-11577745D01*
X22764037Y-11577746D01*
X22776878Y-11596965D01*
X22789843Y-11625088D01*
X22794043Y-11639982D01*
X22792915Y-11697449D01*
X22789819Y-11706977D01*
X22777981Y-11731384D01*
X22764037Y-11752252D01*
X22764032Y-11752266D01*
X22749500Y-11825320D01*
X22749500Y-12774678D01*
X22749500Y-12774682D01*
X22749501Y-12774684D01*
X22764033Y-12847736D01*
X22764036Y-12847745D01*
X22764037Y-12847746D01*
X22776878Y-12866965D01*
X22789843Y-12895088D01*
X22794043Y-12909982D01*
X22792915Y-12967449D01*
X22789819Y-12976977D01*
X22777981Y-13001384D01*
X22764037Y-13022252D01*
X22764032Y-13022266D01*
X22749500Y-13095320D01*
X22749500Y-14044678D01*
X22760599Y-14100476D01*
X22764033Y-14117736D01*
X22764036Y-14117745D01*
X22764037Y-14117746D01*
X22776878Y-14136965D01*
X22789843Y-14165088D01*
X22794043Y-14179982D01*
X22792915Y-14237449D01*
X22789819Y-14246977D01*
X22777981Y-14271384D01*
X22764037Y-14292252D01*
X22764032Y-14292266D01*
X22749500Y-14365320D01*
X22749500Y-15314678D01*
X22749500Y-15314682D01*
X22749501Y-15314684D01*
X22764033Y-15387736D01*
X22764036Y-15387745D01*
X22764037Y-15387746D01*
X22776878Y-15406965D01*
X22789843Y-15435088D01*
X22794043Y-15449982D01*
X22792915Y-15507449D01*
X22789819Y-15516977D01*
X22777981Y-15541384D01*
X22764037Y-15562252D01*
X22764032Y-15562266D01*
X22749500Y-15635320D01*
X22749500Y-16584678D01*
X22749500Y-16584682D01*
X22749501Y-16584684D01*
X22764033Y-16657736D01*
X22764036Y-16657745D01*
X22764037Y-16657746D01*
X22776878Y-16676965D01*
X22789843Y-16705088D01*
X22794043Y-16719982D01*
X22792915Y-16777449D01*
X22789819Y-16786977D01*
X22777981Y-16811384D01*
X22764037Y-16832252D01*
X22764032Y-16832266D01*
X22749500Y-16905320D01*
X22749500Y-17854678D01*
X22749500Y-17854682D01*
X22749501Y-17854684D01*
X22751858Y-17866533D01*
X22760041Y-17907671D01*
X22764033Y-17927736D01*
X22764036Y-17927745D01*
X22766919Y-17932059D01*
X22776878Y-17946965D01*
X22789843Y-17975088D01*
X22794043Y-17989982D01*
X22792915Y-18047449D01*
X22789819Y-18056977D01*
X22777981Y-18081384D01*
X22764037Y-18102252D01*
X22764032Y-18102266D01*
X22749500Y-18175320D01*
X22749500Y-19124678D01*
X22761452Y-19184764D01*
X22764033Y-19197736D01*
X22764036Y-19197745D01*
X22764037Y-19197746D01*
X22776878Y-19216965D01*
X22789843Y-19245088D01*
X22794043Y-19259982D01*
X22792915Y-19317449D01*
X22789819Y-19326977D01*
X22777981Y-19351384D01*
X22764037Y-19372252D01*
X22764032Y-19372266D01*
X22749500Y-19445320D01*
X22749500Y-20394678D01*
X22749500Y-20394682D01*
X22749501Y-20394684D01*
X22764033Y-20467736D01*
X22764036Y-20467745D01*
X22764037Y-20467746D01*
X22776878Y-20486965D01*
X22789843Y-20515088D01*
X22794043Y-20529982D01*
X22792915Y-20587449D01*
X22789819Y-20596977D01*
X22777981Y-20621384D01*
X22764037Y-20642252D01*
X22764032Y-20642266D01*
X22749500Y-20715320D01*
X22749500Y-21664678D01*
X22749500Y-21664682D01*
X22749501Y-21664684D01*
X22764033Y-21737736D01*
X22764036Y-21737745D01*
X22764037Y-21737746D01*
X22776878Y-21756965D01*
X22789843Y-21785088D01*
X22794043Y-21799982D01*
X22792915Y-21857449D01*
X22789819Y-21866977D01*
X22777981Y-21891384D01*
X22764037Y-21912252D01*
X22764032Y-21912266D01*
X22749500Y-21985320D01*
X22749500Y-22934678D01*
X22749500Y-22934682D01*
X22749501Y-22934684D01*
X22764033Y-23007736D01*
X22764036Y-23007745D01*
X22764037Y-23007746D01*
X22776878Y-23026965D01*
X22789843Y-23055088D01*
X22794043Y-23069982D01*
X22792915Y-23127449D01*
X22789819Y-23136977D01*
X22777981Y-23161384D01*
X22764037Y-23182252D01*
X22764032Y-23182266D01*
X22749500Y-23255320D01*
X22749500Y-24204678D01*
X22761706Y-24266041D01*
X22764033Y-24277736D01*
X22764036Y-24277745D01*
X22764037Y-24277746D01*
X22776878Y-24296965D01*
X22789843Y-24325088D01*
X22794043Y-24339982D01*
X22792915Y-24397449D01*
X22789819Y-24406977D01*
X22777981Y-24431384D01*
X22764037Y-24452252D01*
X22764032Y-24452266D01*
X22749500Y-24525320D01*
X22749500Y-25207970D01*
X22744654Y-25238564D01*
X22741133Y-25249400D01*
X22705169Y-25298900D01*
X22646979Y-25317806D01*
X22643249Y-25317806D01*
X22588249Y-25301122D01*
X22532748Y-25264038D01*
X22532737Y-25264032D01*
X22532534Y-25263964D01*
X22530997Y-25263687D01*
X22459694Y-25249503D01*
X22459684Y-25249501D01*
X22459679Y-25249500D01*
X22459676Y-25249500D01*
X22459674Y-25249500D01*
X21510326Y-25249500D01*
X21510325Y-25249500D01*
X21510322Y-25249500D01*
X21510318Y-25249500D01*
X21510315Y-25249501D01*
X21474286Y-25256668D01*
X21437266Y-25264032D01*
X21437263Y-25264032D01*
X21437263Y-25264033D01*
X21437254Y-25264036D01*
X21437253Y-25264036D01*
X21437252Y-25264037D01*
X21418036Y-25276877D01*
X21389908Y-25289844D01*
X21375017Y-25294043D01*
X21317547Y-25292914D01*
X21308020Y-25289818D01*
X21283616Y-25277981D01*
X21262746Y-25264036D01*
X21262733Y-25264031D01*
X21262529Y-25263963D01*
X21260997Y-25263687D01*
X21189694Y-25249503D01*
X21189684Y-25249501D01*
X21189679Y-25249500D01*
X21189676Y-25249500D01*
X21189674Y-25249500D01*
X20240326Y-25249500D01*
X20240325Y-25249500D01*
X20240322Y-25249500D01*
X20240318Y-25249500D01*
X20240315Y-25249501D01*
X20204286Y-25256668D01*
X20167266Y-25264032D01*
X20167263Y-25264032D01*
X20167263Y-25264033D01*
X20167254Y-25264036D01*
X20167253Y-25264036D01*
X20167252Y-25264037D01*
X20148036Y-25276877D01*
X20119908Y-25289844D01*
X20105017Y-25294043D01*
X20047547Y-25292914D01*
X20038020Y-25289818D01*
X20013616Y-25277981D01*
X19992746Y-25264036D01*
X19992733Y-25264031D01*
X19992529Y-25263963D01*
X19990997Y-25263687D01*
X19919694Y-25249503D01*
X19919684Y-25249501D01*
X19919679Y-25249500D01*
X19919676Y-25249500D01*
X19919674Y-25249500D01*
X18970326Y-25249500D01*
X18970325Y-25249500D01*
X18970322Y-25249500D01*
X18970318Y-25249500D01*
X18970315Y-25249501D01*
X18934286Y-25256668D01*
X18897266Y-25264032D01*
X18897263Y-25264032D01*
X18897263Y-25264033D01*
X18897254Y-25264036D01*
X18897253Y-25264036D01*
X18897252Y-25264037D01*
X18878036Y-25276877D01*
X18849908Y-25289844D01*
X18835017Y-25294043D01*
X18777547Y-25292914D01*
X18768020Y-25289818D01*
X18743616Y-25277981D01*
X18722746Y-25264036D01*
X18722733Y-25264031D01*
X18722529Y-25263963D01*
X18720997Y-25263687D01*
X18649694Y-25249503D01*
X18649684Y-25249501D01*
X18649679Y-25249500D01*
X18649676Y-25249500D01*
X18649674Y-25249500D01*
X17700326Y-25249500D01*
X17700325Y-25249500D01*
X17700322Y-25249500D01*
X17700318Y-25249500D01*
X17700315Y-25249501D01*
X17664286Y-25256668D01*
X17627266Y-25264032D01*
X17627263Y-25264032D01*
X17627263Y-25264033D01*
X17627254Y-25264036D01*
X17627253Y-25264036D01*
X17627252Y-25264037D01*
X17608036Y-25276877D01*
X17579908Y-25289844D01*
X17565017Y-25294043D01*
X17507547Y-25292914D01*
X17498020Y-25289818D01*
X17473616Y-25277981D01*
X17452746Y-25264036D01*
X17452733Y-25264031D01*
X17452529Y-25263963D01*
X17450997Y-25263687D01*
X17379694Y-25249503D01*
X17379684Y-25249501D01*
X17379679Y-25249500D01*
X17379676Y-25249500D01*
X17379674Y-25249500D01*
X16430326Y-25249500D01*
X16430325Y-25249500D01*
X16430322Y-25249500D01*
X16430318Y-25249500D01*
X16430315Y-25249501D01*
X16394286Y-25256668D01*
X16357266Y-25264032D01*
X16357263Y-25264032D01*
X16357263Y-25264033D01*
X16357254Y-25264036D01*
X16357253Y-25264036D01*
X16357252Y-25264037D01*
X16338036Y-25276877D01*
X16309908Y-25289844D01*
X16295017Y-25294043D01*
X16237547Y-25292914D01*
X16228020Y-25289818D01*
X16203616Y-25277981D01*
X16182746Y-25264036D01*
X16182733Y-25264031D01*
X16182529Y-25263963D01*
X16180997Y-25263687D01*
X16109694Y-25249503D01*
X16109684Y-25249501D01*
X16109679Y-25249500D01*
X16109676Y-25249500D01*
X16109674Y-25249500D01*
X15160326Y-25249500D01*
X15160325Y-25249500D01*
X15160322Y-25249500D01*
X15160318Y-25249500D01*
X15160315Y-25249501D01*
X15124286Y-25256668D01*
X15087266Y-25264032D01*
X15087263Y-25264032D01*
X15087263Y-25264033D01*
X15087254Y-25264036D01*
X15087253Y-25264036D01*
X15087252Y-25264037D01*
X15068036Y-25276877D01*
X15039908Y-25289844D01*
X15025017Y-25294043D01*
X14967547Y-25292914D01*
X14958020Y-25289818D01*
X14933616Y-25277981D01*
X14912746Y-25264036D01*
X14912733Y-25264031D01*
X14912529Y-25263963D01*
X14910997Y-25263687D01*
X14839694Y-25249503D01*
X14839684Y-25249501D01*
X14839679Y-25249500D01*
X14839676Y-25249500D01*
X14839674Y-25249500D01*
X13890326Y-25249500D01*
X13890325Y-25249500D01*
X13890322Y-25249500D01*
X13890318Y-25249500D01*
X13890315Y-25249501D01*
X13854286Y-25256668D01*
X13817266Y-25264032D01*
X13817263Y-25264032D01*
X13817263Y-25264033D01*
X13817254Y-25264036D01*
X13817253Y-25264036D01*
X13817252Y-25264037D01*
X13798036Y-25276877D01*
X13769908Y-25289844D01*
X13755017Y-25294043D01*
X13697547Y-25292914D01*
X13688020Y-25289818D01*
X13663616Y-25277981D01*
X13642746Y-25264036D01*
X13642733Y-25264031D01*
X13642529Y-25263963D01*
X13640997Y-25263687D01*
X13569694Y-25249503D01*
X13569684Y-25249501D01*
X13569679Y-25249500D01*
X13569676Y-25249500D01*
X13569674Y-25249500D01*
X12620326Y-25249500D01*
X12620325Y-25249500D01*
X12620322Y-25249500D01*
X12620318Y-25249500D01*
X12620315Y-25249501D01*
X12584286Y-25256668D01*
X12547266Y-25264032D01*
X12547263Y-25264032D01*
X12547263Y-25264033D01*
X12547254Y-25264036D01*
X12547253Y-25264036D01*
X12547252Y-25264037D01*
X12528036Y-25276877D01*
X12499908Y-25289844D01*
X12485017Y-25294043D01*
X12427547Y-25292914D01*
X12418020Y-25289818D01*
X12393616Y-25277981D01*
X12372746Y-25264036D01*
X12372733Y-25264031D01*
X12372529Y-25263963D01*
X12370997Y-25263687D01*
X12299694Y-25249503D01*
X12299684Y-25249501D01*
X12299679Y-25249500D01*
X12299676Y-25249500D01*
X12299674Y-25249500D01*
X11350326Y-25249500D01*
X11350325Y-25249500D01*
X11350322Y-25249500D01*
X11350318Y-25249500D01*
X11350315Y-25249501D01*
X11314286Y-25256668D01*
X11277266Y-25264032D01*
X11277263Y-25264032D01*
X11277263Y-25264033D01*
X11277254Y-25264036D01*
X11277253Y-25264036D01*
X11277252Y-25264037D01*
X11258036Y-25276877D01*
X11229908Y-25289844D01*
X11215017Y-25294043D01*
X11157547Y-25292914D01*
X11148020Y-25289818D01*
X11123616Y-25277981D01*
X11102746Y-25264036D01*
X11102733Y-25264031D01*
X11102529Y-25263963D01*
X11100997Y-25263687D01*
X11029694Y-25249503D01*
X11029684Y-25249501D01*
X11029679Y-25249500D01*
X11029676Y-25249500D01*
X11029674Y-25249500D01*
X11029673Y-25249500D01*
X10663296Y-25249500D01*
X10632699Y-25244653D01*
X10621864Y-25241132D01*
X10572366Y-25205166D01*
X10553461Y-25146979D01*
X10553461Y-25142108D01*
X10566724Y-25092609D01*
X10612982Y-25012489D01*
X10612982Y-25012487D01*
X10612984Y-25012485D01*
X10650500Y-24872475D01*
X10650500Y-24727525D01*
X10612984Y-24587515D01*
X10612982Y-24587512D01*
X10612982Y-24587510D01*
X10612981Y-24587508D01*
X10612890Y-24587168D01*
X10611397Y-24584764D01*
X10541985Y-24464539D01*
X10540805Y-24462347D01*
X10540617Y-24462094D01*
X10540510Y-24461987D01*
X10540509Y-24461985D01*
X10438015Y-24359491D01*
X10438012Y-24359489D01*
X10438010Y-24359487D01*
X10438009Y-24359486D01*
X10369775Y-24320091D01*
X10348741Y-24296730D01*
X10277852Y-24277736D01*
X10234202Y-24266040D01*
X10172475Y-24249500D01*
X10172474Y-24249500D01*
X10027523Y-24249500D01*
X9965788Y-24266041D01*
X9965787Y-24266040D01*
X9887512Y-24287015D01*
X9887506Y-24287018D01*
X9761996Y-24359482D01*
X9761988Y-24359488D01*
X9761982Y-24359492D01*
X9761978Y-24359496D01*
X9737054Y-24384419D01*
X9712000Y-24402621D01*
X9690242Y-24413708D01*
X9645295Y-24424500D01*
X7990180Y-24424500D01*
X7959587Y-24419654D01*
X7946901Y-24415532D01*
X7897401Y-24379568D01*
X7897394Y-24379558D01*
X7894400Y-24375436D01*
X7875500Y-24317256D01*
X7875500Y-22750565D01*
X7875499Y-22750563D01*
X7868080Y-22722871D01*
X7868080Y-22722870D01*
X7849818Y-22654719D01*
X7848322Y-22652310D01*
X7801957Y-22572004D01*
X7800875Y-22569994D01*
X7800476Y-22569440D01*
X7800475Y-22569438D01*
X7730562Y-22499525D01*
X7730559Y-22499523D01*
X7702228Y-22483166D01*
X7681193Y-22459803D01*
X7607886Y-22440160D01*
X7607886Y-22440161D01*
X7549435Y-22424500D01*
X7549433Y-22424500D01*
X7365180Y-22424500D01*
X7334587Y-22419654D01*
X7321901Y-22415532D01*
X7272401Y-22379568D01*
X7272394Y-22379558D01*
X7269400Y-22375436D01*
X7250500Y-22317256D01*
X7250500Y-21985327D01*
X7250498Y-21985315D01*
X7247015Y-21967810D01*
X7247014Y-21967804D01*
X7235966Y-21912260D01*
X7235966Y-21912259D01*
X7223122Y-21893037D01*
X7210156Y-21864913D01*
X7205954Y-21850014D01*
X7207082Y-21792554D01*
X7210182Y-21783014D01*
X7222019Y-21758613D01*
X7235962Y-21737746D01*
X7235966Y-21737740D01*
X7250500Y-21664674D01*
X7250500Y-21390180D01*
X7255343Y-21359594D01*
X7259465Y-21346905D01*
X7295423Y-21297406D01*
X7296022Y-21296971D01*
X7299563Y-21294400D01*
X7357743Y-21275500D01*
X7549433Y-21275500D01*
X7549435Y-21275500D01*
X7644938Y-21249910D01*
X7644940Y-21249908D01*
X7644942Y-21249908D01*
X7670377Y-21235222D01*
X7730562Y-21200475D01*
X7800475Y-21130562D01*
X7849910Y-21044938D01*
X7875500Y-20949435D01*
X7875500Y-20507175D01*
X7880345Y-20476583D01*
X7883218Y-20467740D01*
X7886209Y-20458534D01*
X7914111Y-20415564D01*
X7917261Y-20412727D01*
X7934002Y-20400561D01*
X7962427Y-20384150D01*
X7991333Y-20373054D01*
X8002479Y-20370685D01*
X8063329Y-20377079D01*
X8108793Y-20418009D01*
X8111230Y-20422230D01*
X8124500Y-20471739D01*
X8124500Y-21440287D01*
X8119654Y-21470881D01*
X8112107Y-21494107D01*
X8087959Y-21533514D01*
X8059496Y-21561978D01*
X8059492Y-21561982D01*
X8059488Y-21561988D01*
X8059482Y-21561996D01*
X7987018Y-21687506D01*
X7987017Y-21687508D01*
X7982007Y-21706203D01*
X7982008Y-21706204D01*
X7949500Y-21827525D01*
X7949500Y-21972475D01*
X7979087Y-22082896D01*
X7983665Y-22099982D01*
X7987017Y-22112491D01*
X7987018Y-22112492D01*
X8059485Y-22238008D01*
X8059487Y-22238010D01*
X8059489Y-22238012D01*
X8059491Y-22238015D01*
X8161985Y-22340509D01*
X8161987Y-22340510D01*
X8162094Y-22340617D01*
X8162345Y-22340803D01*
X8164538Y-22341984D01*
X8229619Y-22379558D01*
X8284757Y-22411392D01*
X8287170Y-22412890D01*
X8287508Y-22412980D01*
X8287511Y-22412982D01*
X8287512Y-22412982D01*
X8287515Y-22412984D01*
X8427525Y-22450500D01*
X8427526Y-22450500D01*
X8572474Y-22450500D01*
X8572475Y-22450500D01*
X8712485Y-22412984D01*
X8748029Y-22392461D01*
X8776948Y-22381360D01*
X8784187Y-22379822D01*
X8845037Y-22386219D01*
X8890505Y-22427162D01*
X8903224Y-22487011D01*
X8886347Y-22532745D01*
X8886259Y-22532873D01*
X8874687Y-22546786D01*
X8859497Y-22561977D01*
X8859492Y-22561982D01*
X8859488Y-22561988D01*
X8859482Y-22561996D01*
X8787018Y-22687506D01*
X8787016Y-22687510D01*
X8770120Y-22750564D01*
X8770121Y-22750565D01*
X8757479Y-22797746D01*
X8749500Y-22827525D01*
X8749500Y-22972475D01*
X8779087Y-23082896D01*
X8783372Y-23098888D01*
X8787017Y-23112491D01*
X8787018Y-23112492D01*
X8859485Y-23238008D01*
X8859487Y-23238010D01*
X8859489Y-23238012D01*
X8859491Y-23238015D01*
X8961985Y-23340509D01*
X8961987Y-23340510D01*
X8962094Y-23340617D01*
X8962345Y-23340803D01*
X8964538Y-23341984D01*
X9077107Y-23406975D01*
X9084757Y-23411392D01*
X9087170Y-23412890D01*
X9087508Y-23412980D01*
X9087511Y-23412982D01*
X9087512Y-23412982D01*
X9087515Y-23412984D01*
X9227525Y-23450500D01*
X9227526Y-23450500D01*
X9372474Y-23450500D01*
X9372475Y-23450500D01*
X9512485Y-23412984D01*
X9512486Y-23412983D01*
X9512488Y-23412982D01*
X9512489Y-23412982D01*
X9631880Y-23344051D01*
X9634768Y-23342648D01*
X9635554Y-23342131D01*
X9640563Y-23339037D01*
X9641862Y-23338286D01*
X9647220Y-23331303D01*
X9740509Y-23238015D01*
X9776603Y-23175499D01*
X9812982Y-23112489D01*
X9812982Y-23112487D01*
X9812984Y-23112485D01*
X9850500Y-22972475D01*
X9850500Y-22827525D01*
X9812984Y-22687515D01*
X9812982Y-22687512D01*
X9812982Y-22687510D01*
X9812981Y-22687508D01*
X9812890Y-22687168D01*
X9811397Y-22684764D01*
X9740516Y-22561996D01*
X9740512Y-22561989D01*
X9740507Y-22561983D01*
X9740490Y-22561966D01*
X9715581Y-22537056D01*
X9697377Y-22511999D01*
X9686287Y-22490234D01*
X9675500Y-22445294D01*
X9675500Y-20759711D01*
X9680344Y-20729122D01*
X9683420Y-20719654D01*
X9687891Y-20705891D01*
X9712041Y-20666482D01*
X9740509Y-20638015D01*
X9769953Y-20587017D01*
X9812982Y-20512489D01*
X9812982Y-20512487D01*
X9812984Y-20512485D01*
X9850500Y-20372475D01*
X9850500Y-20227525D01*
X9812984Y-20087515D01*
X9812982Y-20087512D01*
X9812982Y-20087510D01*
X9812981Y-20087508D01*
X9812890Y-20087168D01*
X9811397Y-20084764D01*
X9741985Y-19964539D01*
X9740805Y-19962347D01*
X9740617Y-19962094D01*
X9740510Y-19961987D01*
X9740509Y-19961985D01*
X9638015Y-19859491D01*
X9638012Y-19859489D01*
X9638010Y-19859487D01*
X9638009Y-19859486D01*
X9569775Y-19820091D01*
X9548741Y-19796730D01*
X9406182Y-19758532D01*
X9406182Y-19758531D01*
X9406180Y-19758531D01*
X9372477Y-19749500D01*
X9372475Y-19749500D01*
X9227525Y-19749500D01*
X9202920Y-19756093D01*
X9087509Y-19787017D01*
X9037578Y-19815845D01*
X9008664Y-19826944D01*
X8997520Y-19829313D01*
X8936670Y-19822919D01*
X8891200Y-19781979D01*
X8888760Y-19777753D01*
X8875500Y-19728259D01*
X8875500Y-19050568D01*
X8875500Y-19050566D01*
X8874343Y-19046247D01*
X8849910Y-18955062D01*
X8849908Y-18955059D01*
X8849908Y-18955057D01*
X8849906Y-18955054D01*
X8849816Y-18954717D01*
X8848322Y-18952310D01*
X8801957Y-18872004D01*
X8800875Y-18869994D01*
X8800476Y-18869440D01*
X8800475Y-18869438D01*
X8730562Y-18799525D01*
X8730559Y-18799523D01*
X8702228Y-18783166D01*
X8681193Y-18759803D01*
X8607886Y-18740160D01*
X8607886Y-18740161D01*
X8549435Y-18724500D01*
X8549433Y-18724500D01*
X7812224Y-18724500D01*
X7781631Y-18719654D01*
X7757081Y-18711677D01*
X7723378Y-18692802D01*
X7719321Y-18689337D01*
X7709235Y-18687211D01*
X7709086Y-18687125D01*
X7702226Y-18683164D01*
X7681194Y-18659804D01*
X7607886Y-18640160D01*
X7607886Y-18640161D01*
X7549435Y-18624500D01*
X7549433Y-18624500D01*
X7365180Y-18624500D01*
X7334587Y-18619654D01*
X7321901Y-18615532D01*
X7272401Y-18579568D01*
X7272394Y-18579558D01*
X7269400Y-18575436D01*
X7250500Y-18517256D01*
X7250500Y-18175327D01*
X7250498Y-18175315D01*
X7247015Y-18157810D01*
X7247014Y-18157804D01*
X7235966Y-18102260D01*
X7235966Y-18102259D01*
X7223122Y-18083037D01*
X7210156Y-18054913D01*
X7205954Y-18040014D01*
X7207082Y-17982554D01*
X7210182Y-17973014D01*
X7222019Y-17948613D01*
X7223120Y-17946965D01*
X7235966Y-17927740D01*
X7250500Y-17854674D01*
X7250500Y-16905326D01*
X7235966Y-16832260D01*
X7235962Y-16832254D01*
X7235962Y-16832253D01*
X7223122Y-16813036D01*
X7210156Y-16784913D01*
X7205954Y-16770014D01*
X7207082Y-16712554D01*
X7210182Y-16703014D01*
X7222019Y-16678613D01*
X7235962Y-16657746D01*
X7235966Y-16657740D01*
X7250500Y-16584674D01*
X7250500Y-15635326D01*
X7235966Y-15562260D01*
X7235962Y-15562254D01*
X7235962Y-15562253D01*
X7223122Y-15543036D01*
X7210156Y-15514913D01*
X7205954Y-15500014D01*
X7207082Y-15442554D01*
X7210182Y-15433014D01*
X7222019Y-15408613D01*
X7235962Y-15387746D01*
X7235966Y-15387740D01*
X7250500Y-15314674D01*
X7250500Y-14365326D01*
X7249241Y-14358999D01*
X7247015Y-14347808D01*
X7235966Y-14292260D01*
X7235962Y-14292254D01*
X7235962Y-14292253D01*
X7223122Y-14273036D01*
X7210156Y-14244913D01*
X7205954Y-14230014D01*
X7207084Y-14172547D01*
X7210183Y-14163012D01*
X7222019Y-14138613D01*
X7223120Y-14136965D01*
X7235966Y-14117740D01*
X7250500Y-14044674D01*
X7250500Y-13095326D01*
X7235966Y-13022260D01*
X7235962Y-13022254D01*
X7235962Y-13022253D01*
X7223122Y-13003036D01*
X7210156Y-12974913D01*
X7205954Y-12960014D01*
X7207082Y-12902554D01*
X7210182Y-12893014D01*
X7222019Y-12868613D01*
X7234076Y-12850568D01*
X7235966Y-12847740D01*
X7250500Y-12774674D01*
X7250500Y-11825326D01*
X7235966Y-11752260D01*
X7235962Y-11752254D01*
X7235962Y-11752253D01*
X7223122Y-11733036D01*
X7210156Y-11704913D01*
X7205954Y-11690014D01*
X7207081Y-11632557D01*
X7210182Y-11623014D01*
X7222014Y-11598619D01*
X7235966Y-11577740D01*
X7250500Y-11504674D01*
X7250500Y-11190180D01*
X7255343Y-11159594D01*
X7256540Y-11155909D01*
X7259465Y-11146905D01*
X7295423Y-11097406D01*
X7296022Y-11096971D01*
X7299563Y-11094400D01*
X7357743Y-11075500D01*
X7549433Y-11075500D01*
X7549435Y-11075500D01*
X7644938Y-11049910D01*
X7644940Y-11049908D01*
X7644942Y-11049908D01*
X7686921Y-11025671D01*
X7730562Y-11000475D01*
X7800475Y-10930562D01*
X7846699Y-10850500D01*
X7849908Y-10844942D01*
X7849908Y-10844940D01*
X7849910Y-10844938D01*
X7875500Y-10749435D01*
X7875500Y-10665180D01*
X7880343Y-10634594D01*
X7884465Y-10621905D01*
X7920423Y-10572406D01*
X7923552Y-10570134D01*
X7924563Y-10569400D01*
X7982743Y-10550500D01*
X8072474Y-10550500D01*
X8072475Y-10550500D01*
X8212485Y-10512984D01*
X8212486Y-10512983D01*
X8212488Y-10512982D01*
X8212489Y-10512982D01*
X8331880Y-10444051D01*
X8334768Y-10442648D01*
X8335554Y-10442131D01*
X8340563Y-10439037D01*
X8341862Y-10438286D01*
X8347220Y-10431303D01*
X8440509Y-10338015D01*
X8454962Y-10312982D01*
X8512982Y-10212489D01*
X8512982Y-10212487D01*
X8512984Y-10212485D01*
X8550500Y-10072475D01*
X8550500Y-9927525D01*
X11449500Y-9927525D01*
X11449500Y-10072474D01*
X11480693Y-10188889D01*
X11487018Y-10212493D01*
X11559486Y-10338010D01*
X11584419Y-10362944D01*
X11602623Y-10388000D01*
X11613709Y-10409757D01*
X11624500Y-10454703D01*
X11624500Y-13849434D01*
X11638471Y-13901578D01*
X11650090Y-13944941D01*
X11650091Y-13944942D01*
X11699523Y-14030559D01*
X11699525Y-14030562D01*
X11769438Y-14100475D01*
X11769440Y-14100476D01*
X11769990Y-14100873D01*
X11772001Y-14101954D01*
X11798288Y-14117132D01*
X11819883Y-14141115D01*
X11854192Y-14149692D01*
X11855795Y-14150106D01*
X11950565Y-14175500D01*
X12049435Y-14175500D01*
X15409820Y-14175500D01*
X15440408Y-14180343D01*
X15453095Y-14184466D01*
X15502595Y-14220427D01*
X15502596Y-14220428D01*
X15505591Y-14224550D01*
X15524500Y-14282740D01*
X15524500Y-18940287D01*
X15519654Y-18970881D01*
X15512107Y-18994107D01*
X15487959Y-19033514D01*
X15459496Y-19061978D01*
X15459492Y-19061982D01*
X15459488Y-19061988D01*
X15459482Y-19061996D01*
X15387018Y-19187505D01*
X15367702Y-19259593D01*
X15349500Y-19327525D01*
X15349500Y-19472474D01*
X15382585Y-19595949D01*
X15387018Y-19612493D01*
X15459485Y-19738008D01*
X15459487Y-19738010D01*
X15459489Y-19738012D01*
X15459491Y-19738015D01*
X15561985Y-19840509D01*
X15561987Y-19840510D01*
X15562094Y-19840617D01*
X15562345Y-19840803D01*
X15564538Y-19841984D01*
X15594862Y-19859491D01*
X15684757Y-19911392D01*
X15687170Y-19912890D01*
X15687508Y-19912980D01*
X15687511Y-19912982D01*
X15687512Y-19912982D01*
X15687515Y-19912984D01*
X15827525Y-19950500D01*
X15827526Y-19950500D01*
X15972474Y-19950500D01*
X15972475Y-19950500D01*
X16112485Y-19912984D01*
X16112486Y-19912983D01*
X16112488Y-19912982D01*
X16112489Y-19912982D01*
X16231880Y-19844051D01*
X16234768Y-19842648D01*
X16235554Y-19842131D01*
X16240563Y-19839037D01*
X16241862Y-19838286D01*
X16247220Y-19831303D01*
X16340509Y-19738015D01*
X16360711Y-19703024D01*
X16412982Y-19612489D01*
X16412982Y-19612487D01*
X16412984Y-19612485D01*
X16450500Y-19472475D01*
X16450500Y-19327525D01*
X16412984Y-19187515D01*
X16412982Y-19187512D01*
X16412982Y-19187510D01*
X16412981Y-19187508D01*
X16412890Y-19187168D01*
X16411397Y-19184764D01*
X16340516Y-19061996D01*
X16340512Y-19061989D01*
X16340507Y-19061983D01*
X16329090Y-19050566D01*
X16315581Y-19037056D01*
X16297377Y-19011999D01*
X16286287Y-18990234D01*
X16275500Y-18945294D01*
X16275500Y-13750566D01*
X16263873Y-13707174D01*
X16249818Y-13654718D01*
X16248322Y-13652310D01*
X16201957Y-13572004D01*
X16200875Y-13569994D01*
X16200476Y-13569440D01*
X16200475Y-13569438D01*
X16130562Y-13499525D01*
X16130559Y-13499523D01*
X16102228Y-13483166D01*
X16081193Y-13459803D01*
X16007886Y-13440160D01*
X16007886Y-13440161D01*
X15949435Y-13424500D01*
X15949433Y-13424500D01*
X12490180Y-13424500D01*
X12459587Y-13419654D01*
X12446901Y-13415532D01*
X12397401Y-13379568D01*
X12397394Y-13379558D01*
X12394400Y-13375436D01*
X12375500Y-13317256D01*
X12375500Y-10459711D01*
X12380344Y-10429122D01*
X12381579Y-10425322D01*
X12387891Y-10405891D01*
X12412041Y-10366482D01*
X12440509Y-10338015D01*
X12454962Y-10312982D01*
X12512982Y-10212489D01*
X12512982Y-10212487D01*
X12512984Y-10212485D01*
X12550500Y-10072475D01*
X12550500Y-9927525D01*
X12512984Y-9787515D01*
X12512982Y-9787512D01*
X12512982Y-9787510D01*
X12512981Y-9787508D01*
X12512890Y-9787168D01*
X12511397Y-9784764D01*
X12441985Y-9664539D01*
X12440805Y-9662347D01*
X12440617Y-9662094D01*
X12440510Y-9661987D01*
X12440509Y-9661985D01*
X12338015Y-9559491D01*
X12338012Y-9559489D01*
X12338010Y-9559487D01*
X12338009Y-9559486D01*
X12269775Y-9520091D01*
X12248741Y-9496730D01*
X12139479Y-9467454D01*
X12139478Y-9467453D01*
X12090428Y-9454310D01*
X12072475Y-9449500D01*
X12072474Y-9449500D01*
X11927523Y-9449500D01*
X11865788Y-9466041D01*
X11865787Y-9466040D01*
X11787512Y-9487015D01*
X11787506Y-9487018D01*
X11661993Y-9559483D01*
X11559483Y-9661993D01*
X11487018Y-9787505D01*
X11483799Y-9799519D01*
X11449500Y-9927525D01*
X8550500Y-9927525D01*
X8512984Y-9787515D01*
X8512982Y-9787512D01*
X8512982Y-9787510D01*
X8491378Y-9750091D01*
X8441985Y-9664539D01*
X8440805Y-9662347D01*
X8440617Y-9662094D01*
X8440510Y-9661987D01*
X8440509Y-9661985D01*
X8338015Y-9559491D01*
X8338012Y-9559489D01*
X8338010Y-9559487D01*
X8338009Y-9559486D01*
X8269775Y-9520091D01*
X8248741Y-9496730D01*
X8139479Y-9467454D01*
X8139478Y-9467453D01*
X8090428Y-9454310D01*
X8072475Y-9449500D01*
X8072474Y-9449500D01*
X7927523Y-9449500D01*
X7865788Y-9466041D01*
X7865787Y-9466040D01*
X7787512Y-9487015D01*
X7787506Y-9487018D01*
X7661996Y-9559482D01*
X7661988Y-9559488D01*
X7661982Y-9559492D01*
X7661978Y-9559496D01*
X7637054Y-9584419D01*
X7612000Y-9602621D01*
X7590242Y-9613708D01*
X7549958Y-9624390D01*
X7547625Y-9624500D01*
X7450565Y-9624500D01*
X7429836Y-9630053D01*
X7429832Y-9630054D01*
X7390264Y-9640656D01*
X7359460Y-9643893D01*
X7347176Y-9643249D01*
X7290055Y-9621321D01*
X7257436Y-9572502D01*
X7254577Y-9562850D01*
X7250500Y-9534733D01*
X7250500Y-9285327D01*
X7250498Y-9285315D01*
X7247015Y-9267810D01*
X7247014Y-9267804D01*
X7246663Y-9266041D01*
X7235966Y-9212260D01*
X7235963Y-9212256D01*
X7180605Y-9129404D01*
X7180603Y-9129402D01*
X7180601Y-9129399D01*
X7180599Y-9129397D01*
X7180595Y-9129394D01*
X7180593Y-9129392D01*
X7097748Y-9074038D01*
X7097737Y-9074032D01*
X7097534Y-9073964D01*
X7095997Y-9073687D01*
X7024694Y-9059503D01*
X7024684Y-9059501D01*
X7024679Y-9059500D01*
X7024676Y-9059500D01*
X7024674Y-9059500D01*
X5475326Y-9059500D01*
X5475325Y-9059500D01*
X5475322Y-9059500D01*
X5475318Y-9059500D01*
X5475315Y-9059501D01*
X5439039Y-9066717D01*
X5402261Y-9074033D01*
X5402256Y-9074035D01*
X5319403Y-9129394D01*
X5319392Y-9129405D01*
X5263969Y-9212354D01*
X5263474Y-9213891D01*
X5263121Y-9214919D01*
X5262622Y-9216914D01*
X5262612Y-9216946D01*
X5262132Y-9221821D01*
X5255642Y-9254441D01*
X5244922Y-9283497D01*
X5238406Y-9295132D01*
X5193485Y-9336660D01*
X5185370Y-9340402D01*
X5143914Y-9349500D01*
X4360269Y-9349500D01*
X4334645Y-9346126D01*
X4310328Y-9339610D01*
X4286454Y-9329721D01*
X4212485Y-9287016D01*
X4072475Y-9249500D01*
X4072474Y-9249500D01*
X3927523Y-9249500D01*
X3865788Y-9266041D01*
X3865787Y-9266040D01*
X3787512Y-9287015D01*
X3787506Y-9287018D01*
X3661993Y-9359483D01*
X3559488Y-9461988D01*
X3530888Y-9511524D01*
X3511392Y-9535598D01*
X3502926Y-9543220D01*
X3447029Y-9568103D01*
X3387182Y-9555379D01*
X3380433Y-9551482D01*
X3350684Y-9525078D01*
X3309163Y-9469614D01*
X3307811Y-9467700D01*
X3307640Y-9467525D01*
X3307546Y-9467455D01*
X3307546Y-9467454D01*
X3300243Y-9461987D01*
X3235685Y-9413658D01*
X3192327Y-9381200D01*
X3062428Y-9332752D01*
X3058939Y-9331234D01*
X3058025Y-9330996D01*
X3055927Y-9330540D01*
X3052206Y-9330341D01*
X3035312Y-9328524D01*
X3026249Y-9327550D01*
X3026248Y-9327549D01*
X2997876Y-9324500D01*
X2997873Y-9324500D01*
X2997870Y-9324500D01*
X2002133Y-9324500D01*
X2002129Y-9324500D01*
X1993982Y-9324500D01*
X1991944Y-9325514D01*
X1990750Y-9325313D01*
X1987975Y-9326021D01*
X1979069Y-9326978D01*
X1942520Y-9330907D01*
X1942514Y-9330908D01*
X1942514Y-9330909D01*
X1942506Y-9330912D01*
X1807671Y-9381200D01*
X1692456Y-9467451D01*
X1692451Y-9467456D01*
X1606202Y-9582669D01*
X1606201Y-9582671D01*
X1582803Y-9645406D01*
X1567572Y-9672378D01*
X1558552Y-9683736D01*
X1509601Y-9716954D01*
X1500663Y-9719648D01*
X1498547Y-9720286D01*
X1469973Y-9724500D01*
X1250563Y-9724500D01*
X1192115Y-9740159D01*
X1192116Y-9740160D01*
X1155058Y-9750090D01*
X1069444Y-9799519D01*
X999521Y-9869442D01*
X950089Y-9955060D01*
X949812Y-9955793D01*
X949266Y-9958134D01*
X924500Y-10050565D01*
X924500Y-12850565D01*
X924500Y-12949435D01*
X949899Y-13044226D01*
X950302Y-13045783D01*
X951246Y-13049561D01*
X951659Y-13050794D01*
X953014Y-13055853D01*
X957415Y-13067318D01*
X960188Y-13080365D01*
X953791Y-13141215D01*
X953788Y-13141223D01*
X946119Y-13158443D01*
X934935Y-13177496D01*
X856200Y-13282671D01*
X805912Y-13417504D01*
X805910Y-13417508D01*
X805910Y-13417511D01*
X805908Y-13417522D01*
X801762Y-13456093D01*
X799500Y-13477132D01*
X799500Y-14522920D01*
X799584Y-14523648D01*
X804281Y-14567349D01*
X805908Y-14582480D01*
X805909Y-14582485D01*
X805912Y-14582492D01*
X856200Y-14717327D01*
X856203Y-14717331D01*
X929054Y-14814646D01*
X929055Y-14814647D01*
X942523Y-14832638D01*
X942696Y-14832807D01*
X944605Y-14834156D01*
X1057670Y-14918797D01*
X1145407Y-14951520D01*
X1172369Y-14966745D01*
X1183735Y-14975771D01*
X1216955Y-15024724D01*
X1220287Y-15035780D01*
X1224500Y-15064351D01*
X1224500Y-15550565D01*
X1224500Y-15649435D01*
X1247067Y-15733657D01*
X1247068Y-15733660D01*
X1250090Y-15744940D01*
X1299518Y-15830551D01*
X1299520Y-15830555D01*
X1299523Y-15830559D01*
X1299525Y-15830562D01*
X1369438Y-15900475D01*
X1369440Y-15900476D01*
X1455058Y-15949908D01*
X1455056Y-15949908D01*
X1455060Y-15949909D01*
X1455062Y-15949910D01*
X1524493Y-15968513D01*
X1531446Y-15971577D01*
X1534422Y-15974236D01*
X1545447Y-15979145D01*
X1556632Y-15986409D01*
X1595131Y-16033945D01*
X1596116Y-16036510D01*
X1601549Y-16087025D01*
X1600972Y-16090783D01*
X1595879Y-16110349D01*
X1555909Y-16217518D01*
X1555908Y-16217522D01*
X1555907Y-16217526D01*
X1549500Y-16277132D01*
X1549500Y-16897920D01*
X1549584Y-16898648D01*
X1553291Y-16933132D01*
X1555908Y-16957480D01*
X1555909Y-16957485D01*
X1565683Y-16983691D01*
X1606200Y-17092327D01*
X1692449Y-17207541D01*
X1692525Y-17207635D01*
X1692799Y-17207880D01*
X1694614Y-17209163D01*
X1802005Y-17289556D01*
X1804682Y-17291876D01*
X1804690Y-17291881D01*
X1807316Y-17293704D01*
X1809295Y-17294402D01*
X1909093Y-17331624D01*
X1936058Y-17346853D01*
X1952851Y-17360189D01*
X1983762Y-17406810D01*
X1984532Y-17406492D01*
X1986166Y-17410436D01*
X1986662Y-17411184D01*
X1986909Y-17412086D01*
X1987016Y-17412486D01*
X2032875Y-17491915D01*
X2043976Y-17520834D01*
X2046345Y-17531980D01*
X2039948Y-17592830D01*
X1999015Y-17638294D01*
X1992579Y-17642010D01*
X1953658Y-17654711D01*
X1950814Y-17655016D01*
X1947788Y-17655342D01*
X1944756Y-17655504D01*
X1942511Y-17655909D01*
X1807671Y-17706200D01*
X1692456Y-17792451D01*
X1692454Y-17792453D01*
X1692451Y-17792456D01*
X1692450Y-17792458D01*
X1683438Y-17804496D01*
X1606200Y-17907671D01*
X1555912Y-18042504D01*
X1555910Y-18042508D01*
X1555910Y-18042511D01*
X1555908Y-18042522D01*
X1551553Y-18083037D01*
X1549500Y-18102132D01*
X1549500Y-18722920D01*
X1549584Y-18723648D01*
X1551359Y-18740160D01*
X1555908Y-18782480D01*
X1555909Y-18782485D01*
X1566385Y-18810574D01*
X1606200Y-18917327D01*
X1678686Y-19014156D01*
X1692524Y-19032639D01*
X1692701Y-19032811D01*
X1694619Y-19034167D01*
X1698203Y-19036850D01*
X1719786Y-19059057D01*
X1724696Y-19066022D01*
X1742773Y-19124475D01*
X1723039Y-19182391D01*
X1673714Y-19217433D01*
X1666040Y-19219867D01*
X1636109Y-19224500D01*
X1250563Y-19224500D01*
X1192115Y-19240159D01*
X1192116Y-19240160D01*
X1155058Y-19250090D01*
X1069444Y-19299519D01*
X999521Y-19369442D01*
X950090Y-19455056D01*
X950089Y-19455059D01*
X935782Y-19508454D01*
X924500Y-19550561D01*
X924500Y-19550565D01*
X924500Y-38250565D01*
X924500Y-38349435D01*
X947067Y-38433657D01*
X947068Y-38433660D01*
X950090Y-38444940D01*
X999518Y-38530551D01*
X999520Y-38530555D01*
X999523Y-38530559D01*
X999525Y-38530562D01*
X1069438Y-38600475D01*
X1069440Y-38600476D01*
X1155058Y-38649908D01*
X1155056Y-38649908D01*
X1155060Y-38649909D01*
X1155062Y-38649910D01*
X1230434Y-38670105D01*
X1237169Y-38673032D01*
X1240197Y-38675710D01*
X1251628Y-38680799D01*
X1255870Y-38683553D01*
X1262279Y-38687716D01*
X1300786Y-38735262D01*
X1304898Y-38792705D01*
X1300500Y-38812039D01*
X1296724Y-38824676D01*
X1250912Y-38947505D01*
X1250910Y-38947511D01*
X1250908Y-38947522D01*
X1245323Y-38999479D01*
X1244500Y-39007132D01*
X1244500Y-40992920D01*
X1244584Y-40993648D01*
X1247364Y-41019508D01*
X1250908Y-41052480D01*
X1250909Y-41052485D01*
X1252755Y-41057434D01*
X1301201Y-41187328D01*
X1301202Y-41187331D01*
X1347694Y-41249434D01*
X1347695Y-41249435D01*
X1387522Y-41302637D01*
X1387696Y-41302807D01*
X1389605Y-41304156D01*
X1444088Y-41344942D01*
X1488047Y-41377850D01*
X1500688Y-41389123D01*
X1521303Y-41410948D01*
X1545913Y-41457174D01*
X1547080Y-41462355D01*
X1549500Y-41484109D01*
X1549500Y-44249723D01*
X1544653Y-44280319D01*
X1539218Y-44297044D01*
X1509369Y-44341721D01*
X1504366Y-44345995D01*
X1485007Y-44358932D01*
X1344597Y-44430473D01*
X1344591Y-44430477D01*
X1185360Y-44546166D01*
X1046166Y-44685360D01*
X930477Y-44844591D01*
X930473Y-44844597D01*
X841116Y-45019973D01*
X780287Y-45207183D01*
X749500Y-45401574D01*
X749500Y-45598424D01*
X780286Y-45792811D01*
X780288Y-45792819D01*
X780289Y-45792821D01*
X812308Y-45891363D01*
X841116Y-45980025D01*
X930476Y-46155405D01*
X1046172Y-46314646D01*
X1185354Y-46453828D01*
X1344595Y-46569524D01*
X1519975Y-46658884D01*
X1706974Y-46719644D01*
X1707169Y-46719708D01*
X1707172Y-46719708D01*
X1707174Y-46719709D01*
X1707175Y-46719709D01*
X1707178Y-46719710D01*
X1813577Y-46736561D01*
X1901577Y-46750500D01*
X2098420Y-46750500D01*
X2098423Y-46750500D01*
X2175711Y-46738258D01*
X2292821Y-46719710D01*
X2292821Y-46719709D01*
X2292823Y-46719709D01*
X2292826Y-46719709D01*
X2292829Y-46719708D01*
X2295405Y-46719300D01*
X2300212Y-46717308D01*
X2480025Y-46658884D01*
X2591588Y-46602038D01*
X2621036Y-46592470D01*
X2632295Y-46590687D01*
X2692724Y-46600258D01*
X2735981Y-46643508D01*
X2738702Y-46648846D01*
X2749500Y-46693806D01*
X2749500Y-47159309D01*
X2776574Y-47260351D01*
X2780202Y-47273890D01*
X2816883Y-47337422D01*
X2827982Y-47366337D01*
X2830352Y-47377485D01*
X2823953Y-47438335D01*
X2783025Y-47483794D01*
X2778807Y-47486230D01*
X2729296Y-47499500D01*
X615180Y-47499500D01*
X584587Y-47494654D01*
X571901Y-47490532D01*
X522401Y-47454568D01*
X522394Y-47454558D01*
X519400Y-47450436D01*
X500500Y-47392256D01*
X500500Y-7614680D01*
X505343Y-7584094D01*
X509465Y-7571405D01*
X545423Y-7521906D01*
X546022Y-7521471D01*
X549563Y-7518900D01*
X607743Y-7500000D01*
X684820Y-7500000D01*
X715408Y-7504843D01*
G37*
%TD.AperFunction*%
%TA.AperFunction,Conductor*%
G36*
X3576903Y-41428812D02*
G01*
X3614947Y-41476721D01*
X3618257Y-41485595D01*
X3624500Y-41520194D01*
X3624500Y-43950565D01*
X3624500Y-44049435D01*
X3626008Y-44055062D01*
X3650091Y-44144942D01*
X3699523Y-44230559D01*
X3699525Y-44230562D01*
X3769438Y-44300475D01*
X3781005Y-44307153D01*
X3798290Y-44317133D01*
X3819883Y-44341115D01*
X3854192Y-44349692D01*
X3855795Y-44350106D01*
X3950565Y-44375500D01*
X6701339Y-44375500D01*
X6731927Y-44380343D01*
X6742330Y-44383723D01*
X6791830Y-44419685D01*
X6810740Y-44477875D01*
X6796157Y-44529597D01*
X6793155Y-44534497D01*
X6778742Y-44552782D01*
X6698581Y-44632944D01*
X6646169Y-44685356D01*
X6530477Y-44844591D01*
X6530473Y-44844597D01*
X6441116Y-45019973D01*
X6380287Y-45207183D01*
X6349500Y-45401574D01*
X6349500Y-45598424D01*
X6380286Y-45792811D01*
X6380288Y-45792819D01*
X6380289Y-45792821D01*
X6412308Y-45891363D01*
X6441116Y-45980025D01*
X6530476Y-46155405D01*
X6646172Y-46314646D01*
X6785354Y-46453828D01*
X6785357Y-46453830D01*
X6785438Y-46453911D01*
X6785614Y-46454058D01*
X6786981Y-46455010D01*
X6795489Y-46461192D01*
X6817382Y-46483084D01*
X6822229Y-46489754D01*
X6841142Y-46547943D01*
X6822240Y-46606135D01*
X6772745Y-46642103D01*
X6764906Y-46644651D01*
X6734303Y-46649500D01*
X3765180Y-46649500D01*
X3734587Y-46644654D01*
X3721901Y-46640532D01*
X3672401Y-46604568D01*
X3672394Y-46604558D01*
X3669400Y-46600436D01*
X3650500Y-46542256D01*
X3650500Y-45440693D01*
X3650500Y-45440692D01*
X3640020Y-45401579D01*
X3640020Y-45401578D01*
X3640020Y-45401577D01*
X3619707Y-45325772D01*
X3618224Y-45323384D01*
X3561960Y-45225934D01*
X3560783Y-45223746D01*
X3560597Y-45223496D01*
X3560490Y-45223389D01*
X3560489Y-45223387D01*
X3476613Y-45139511D01*
X3476610Y-45139509D01*
X3476608Y-45139507D01*
X3431175Y-45113276D01*
X3410142Y-45089916D01*
X3360352Y-45076574D01*
X3360351Y-45076574D01*
X3259309Y-45049500D01*
X3259307Y-45049500D01*
X3250275Y-45049500D01*
X3219679Y-45044653D01*
X3202954Y-45039218D01*
X3158271Y-45009362D01*
X3153997Y-45004358D01*
X3141066Y-44985006D01*
X3106549Y-44917262D01*
X3069524Y-44844595D01*
X2953828Y-44685354D01*
X2814646Y-44546172D01*
X2814642Y-44546169D01*
X2814640Y-44546167D01*
X2665397Y-44437735D01*
X2665392Y-44437732D01*
X2655405Y-44430476D01*
X2655404Y-44430475D01*
X2655402Y-44430474D01*
X2639840Y-44422544D01*
X2639837Y-44422543D01*
X2518527Y-44360733D01*
X2493468Y-44342527D01*
X2481032Y-44330091D01*
X2462967Y-44297830D01*
X2458557Y-44292805D01*
X2458241Y-44289389D01*
X2454769Y-44283188D01*
X2453233Y-44276787D01*
X2450500Y-44253686D01*
X2450500Y-41560179D01*
X2455343Y-41529593D01*
X2459465Y-41516904D01*
X2495423Y-41467405D01*
X2496022Y-41466970D01*
X2499563Y-41464399D01*
X2557743Y-41445499D01*
X3362867Y-41445499D01*
X3362872Y-41445499D01*
X3422483Y-41439091D01*
X3476219Y-41419047D01*
X3506574Y-41412898D01*
X3517956Y-41412411D01*
X3576903Y-41428812D01*
G37*
%TD.AperFunction*%
%TA.AperFunction,Conductor*%
G36*
X14565352Y-28953873D02*
G01*
X14589674Y-28960390D01*
X14613550Y-28970280D01*
X14687515Y-29012984D01*
X14827525Y-29050500D01*
X14827526Y-29050500D01*
X14972474Y-29050500D01*
X14972475Y-29050500D01*
X15112485Y-29012984D01*
X15112487Y-29012982D01*
X15112489Y-29012982D01*
X15162426Y-28984150D01*
X15191335Y-28973054D01*
X15202484Y-28970684D01*
X15263333Y-28977081D01*
X15308789Y-29018001D01*
X15311225Y-29022221D01*
X15324500Y-29071738D01*
X15324500Y-38250565D01*
X15324500Y-38349435D01*
X15347067Y-38433657D01*
X15347068Y-38433660D01*
X15350090Y-38444940D01*
X15399518Y-38530551D01*
X15399520Y-38530555D01*
X15399523Y-38530559D01*
X15399525Y-38530562D01*
X15469438Y-38600475D01*
X15469440Y-38600476D01*
X15469990Y-38600873D01*
X15472001Y-38601954D01*
X15498288Y-38617132D01*
X15519883Y-38641115D01*
X15554192Y-38649692D01*
X15555795Y-38650106D01*
X15650565Y-38675500D01*
X16509820Y-38675500D01*
X16540408Y-38680343D01*
X16553095Y-38684466D01*
X16602595Y-38720427D01*
X16602596Y-38720428D01*
X16605591Y-38724550D01*
X16624500Y-38782740D01*
X16624500Y-43449433D01*
X16633958Y-43484732D01*
X16637195Y-43515536D01*
X16636551Y-43527823D01*
X16614624Y-43584944D01*
X16565808Y-43617563D01*
X16556150Y-43620423D01*
X16528036Y-43624500D01*
X4490180Y-43624500D01*
X4459587Y-43619654D01*
X4446901Y-43615532D01*
X4397401Y-43579568D01*
X4397394Y-43579558D01*
X4394400Y-43575436D01*
X4375500Y-43517256D01*
X4375500Y-38250566D01*
X4375500Y-38250565D01*
X4349910Y-38155062D01*
X4349908Y-38155059D01*
X4349908Y-38155057D01*
X4349906Y-38155054D01*
X4349816Y-38154717D01*
X4348322Y-38152310D01*
X4301957Y-38072004D01*
X4300875Y-38069994D01*
X4300476Y-38069440D01*
X4300475Y-38069438D01*
X4230562Y-37999525D01*
X4230559Y-37999523D01*
X4202228Y-37983166D01*
X4181193Y-37959803D01*
X4107886Y-37940160D01*
X4107886Y-37940161D01*
X4049435Y-37924500D01*
X4049433Y-37924500D01*
X1790180Y-37924500D01*
X1759587Y-37919654D01*
X1746901Y-37915532D01*
X1697401Y-37879568D01*
X1697394Y-37879558D01*
X1694400Y-37875436D01*
X1675500Y-37817256D01*
X1675500Y-34762091D01*
X1680347Y-34731494D01*
X1683868Y-34720659D01*
X1719834Y-34671161D01*
X1778021Y-34652256D01*
X1787490Y-34652256D01*
X1822085Y-34658497D01*
X1916436Y-34693688D01*
X1917979Y-34694284D01*
X1919248Y-34694467D01*
X1922770Y-34694655D01*
X1945496Y-34697099D01*
X1975390Y-34705185D01*
X1987566Y-34710641D01*
X2032933Y-34751684D01*
X2036351Y-34757636D01*
X2049500Y-34806937D01*
X2049500Y-35359309D01*
X2071294Y-35440645D01*
X2071293Y-35440645D01*
X2080201Y-35473889D01*
X2080201Y-35473890D01*
X2139506Y-35576607D01*
X2139507Y-35576608D01*
X2139509Y-35576610D01*
X2139511Y-35576613D01*
X2223387Y-35660489D01*
X2223389Y-35660490D01*
X2223496Y-35660597D01*
X2223746Y-35660783D01*
X2225934Y-35661960D01*
X2323369Y-35718214D01*
X2325770Y-35719706D01*
X2326111Y-35719797D01*
X2326114Y-35719799D01*
X2440691Y-35750500D01*
X2559309Y-35750500D01*
X3505561Y-35750500D01*
X3536149Y-35755343D01*
X3548836Y-35759466D01*
X3598336Y-35795427D01*
X3598341Y-35795434D01*
X3605326Y-35805049D01*
X3620300Y-35835615D01*
X3646162Y-35924631D01*
X3646371Y-35925374D01*
X3726825Y-36061414D01*
X3726827Y-36061416D01*
X3726828Y-36061417D01*
X3726830Y-36061420D01*
X3838580Y-36173170D01*
X3974610Y-36253618D01*
X4126373Y-36297709D01*
X4161837Y-36300500D01*
X5398446Y-36300499D01*
X5456637Y-36319406D01*
X5492601Y-36368906D01*
X5496759Y-36387858D01*
X5497158Y-36391234D01*
X5497159Y-36391238D01*
X5497160Y-36391239D01*
X5518783Y-36438143D01*
X5538897Y-36481775D01*
X5574856Y-36531269D01*
X5574859Y-36531272D01*
X5574860Y-36531273D01*
X5615631Y-36575378D01*
X5702612Y-36624088D01*
X5760803Y-36642995D01*
X5760804Y-36642995D01*
X5760807Y-36642996D01*
X5839752Y-36655500D01*
X5839755Y-36655500D01*
X6250494Y-36655500D01*
X6250500Y-36655500D01*
X6290465Y-36652355D01*
X6321058Y-36647510D01*
X6340739Y-36643595D01*
X6431273Y-36601859D01*
X6480773Y-36565895D01*
X6524878Y-36525124D01*
X6573588Y-36438143D01*
X6592495Y-36379952D01*
X6598671Y-36340959D01*
X6605000Y-36301003D01*
X6605000Y-34347236D01*
X6605000Y-34347235D01*
X6596293Y-34281104D01*
X6583029Y-34231605D01*
X6562395Y-34181790D01*
X6557508Y-34169992D01*
X6557505Y-34169986D01*
X6531619Y-34125151D01*
X6531338Y-34123826D01*
X6530355Y-34122894D01*
X6521730Y-34101275D01*
X6508373Y-34051423D01*
X6505000Y-34025801D01*
X6505000Y-33974196D01*
X6508373Y-33948574D01*
X6521731Y-33898719D01*
X6521732Y-33898713D01*
X6531621Y-33874842D01*
X6557422Y-33830153D01*
X6570710Y-33812835D01*
X6571341Y-33811514D01*
X6571998Y-33811156D01*
X6573147Y-33809659D01*
X6609660Y-33773146D01*
X6630151Y-33757423D01*
X6674851Y-33731616D01*
X6698706Y-33721733D01*
X6706284Y-33719703D01*
X6706293Y-33719703D01*
X6706293Y-33719701D01*
X6748573Y-33708373D01*
X6774194Y-33705000D01*
X6825802Y-33705000D01*
X6827091Y-33705419D01*
X6828392Y-33705034D01*
X6851425Y-33708373D01*
X6897355Y-33720680D01*
X6897354Y-33720680D01*
X6901262Y-33721727D01*
X6925150Y-33731618D01*
X6969843Y-33757422D01*
X6990346Y-33773154D01*
X7026845Y-33809653D01*
X7042577Y-33830156D01*
X7068377Y-33874842D01*
X7076732Y-33895014D01*
X7077564Y-33896224D01*
X7077544Y-33896974D01*
X7078267Y-33898719D01*
X7091626Y-33948573D01*
X7095000Y-33974197D01*
X7095000Y-34025801D01*
X7091626Y-34051425D01*
X7078268Y-34101275D01*
X7068379Y-34125149D01*
X7042497Y-34169978D01*
X7042495Y-34169982D01*
X7016971Y-34231602D01*
X7016970Y-34231607D01*
X7016969Y-34231610D01*
X7014383Y-34241263D01*
X7003706Y-34281108D01*
X6995783Y-34341292D01*
X6995000Y-34347236D01*
X6995000Y-36301000D01*
X6998145Y-36340965D01*
X7002570Y-36368906D01*
X7002992Y-36371570D01*
X7006905Y-36391240D01*
X7048638Y-36481768D01*
X7048641Y-36481773D01*
X7084601Y-36531269D01*
X7084604Y-36531272D01*
X7084605Y-36531273D01*
X7125376Y-36575378D01*
X7212357Y-36624088D01*
X7270548Y-36642995D01*
X7270549Y-36642995D01*
X7270552Y-36642996D01*
X7349497Y-36655500D01*
X7349500Y-36655500D01*
X9950500Y-36655500D01*
X10008691Y-36674407D01*
X10044655Y-36723907D01*
X10049500Y-36754500D01*
X10049500Y-38439819D01*
X10044654Y-38470412D01*
X10040532Y-38483098D01*
X10004580Y-38532589D01*
X10000459Y-38535584D01*
X9942271Y-38554500D01*
X9688938Y-38554500D01*
X9682975Y-38556021D01*
X9674069Y-38556978D01*
X9637520Y-38560907D01*
X9637514Y-38560908D01*
X9637514Y-38560909D01*
X9637506Y-38560912D01*
X9502671Y-38611200D01*
X9387456Y-38697451D01*
X9387454Y-38697453D01*
X9387451Y-38697456D01*
X9387450Y-38697458D01*
X9381366Y-38705585D01*
X9301200Y-38812671D01*
X9250912Y-38947504D01*
X9250912Y-38947505D01*
X9250910Y-38947511D01*
X9250908Y-38947522D01*
X9245323Y-38999479D01*
X9244500Y-39007132D01*
X9244500Y-40992920D01*
X9244584Y-40993648D01*
X9247364Y-41019508D01*
X9250908Y-41052480D01*
X9250909Y-41052485D01*
X9252755Y-41057434D01*
X9301201Y-41187328D01*
X9301202Y-41187331D01*
X9347694Y-41249434D01*
X9347695Y-41249435D01*
X9387522Y-41302637D01*
X9387695Y-41302806D01*
X9389588Y-41304144D01*
X9444088Y-41344942D01*
X9502668Y-41388796D01*
X9502669Y-41388796D01*
X9502670Y-41388797D01*
X9636544Y-41438728D01*
X9637985Y-41439285D01*
X9639247Y-41439466D01*
X9642767Y-41439655D01*
X9697127Y-41445500D01*
X11362872Y-41445499D01*
X11422483Y-41439091D01*
X11422489Y-41439089D01*
X11450824Y-41428520D01*
X11539700Y-41395372D01*
X11555716Y-41389398D01*
X11559034Y-41388228D01*
X11562583Y-41387046D01*
X11570167Y-41379186D01*
X11672546Y-41302546D01*
X11758796Y-41187331D01*
X11772509Y-41150566D01*
X11807252Y-41057413D01*
X11808454Y-41054650D01*
X11809087Y-41052492D01*
X11809089Y-41052488D01*
X11809090Y-41052485D01*
X11809091Y-41052483D01*
X11815500Y-40992873D01*
X11815499Y-39007128D01*
X11809091Y-38947517D01*
X11807886Y-38944285D01*
X11807811Y-38944084D01*
X11807811Y-38944083D01*
X11758798Y-38812671D01*
X11721394Y-38762706D01*
X11674156Y-38699605D01*
X11672807Y-38697696D01*
X11672638Y-38697523D01*
X11672546Y-38697454D01*
X11665700Y-38692329D01*
X11565248Y-38617130D01*
X11557327Y-38611200D01*
X11427428Y-38562752D01*
X11423939Y-38561234D01*
X11423025Y-38560996D01*
X11420929Y-38560540D01*
X11417203Y-38560341D01*
X11390562Y-38557477D01*
X11390561Y-38557476D01*
X11368247Y-38555077D01*
X11362873Y-38554500D01*
X11362871Y-38554500D01*
X11065180Y-38554500D01*
X11034587Y-38549654D01*
X11021901Y-38545532D01*
X10972401Y-38509568D01*
X10972394Y-38509558D01*
X10969400Y-38505436D01*
X10950500Y-38447256D01*
X10950500Y-36754500D01*
X10969407Y-36696309D01*
X11018907Y-36660345D01*
X11049500Y-36655500D01*
X11550494Y-36655500D01*
X11550500Y-36655500D01*
X11590465Y-36652355D01*
X11621058Y-36647510D01*
X11640739Y-36643595D01*
X11731273Y-36601859D01*
X11780773Y-36565895D01*
X11824878Y-36525124D01*
X11873588Y-36438143D01*
X11892495Y-36379952D01*
X11898671Y-36340959D01*
X11905000Y-36301003D01*
X11905000Y-35887360D01*
X11908373Y-35861738D01*
X11914916Y-35837318D01*
X11924804Y-35813445D01*
X11937441Y-35791557D01*
X11953166Y-35771062D01*
X11971061Y-35753167D01*
X11991552Y-35737444D01*
X12013448Y-35724801D01*
X12037314Y-35714917D01*
X12061743Y-35708371D01*
X12087361Y-35705000D01*
X12500994Y-35705000D01*
X12501000Y-35705000D01*
X12540965Y-35701855D01*
X12571558Y-35697010D01*
X12591239Y-35693095D01*
X12681773Y-35651359D01*
X12731273Y-35615395D01*
X12775378Y-35574624D01*
X12824088Y-35487643D01*
X12832725Y-35461058D01*
X12856877Y-35421646D01*
X12895356Y-35383168D01*
X12940509Y-35338015D01*
X12966303Y-35293339D01*
X13012982Y-35212489D01*
X13012982Y-35212487D01*
X13012984Y-35212485D01*
X13050500Y-35072475D01*
X13050500Y-34927525D01*
X13012984Y-34787515D01*
X13012982Y-34787512D01*
X13012982Y-34787510D01*
X13012981Y-34787508D01*
X13012890Y-34787168D01*
X13011397Y-34784764D01*
X12941985Y-34664539D01*
X12940805Y-34662347D01*
X12940614Y-34662090D01*
X12884496Y-34605971D01*
X12856719Y-34551454D01*
X12855500Y-34535968D01*
X12855500Y-30099006D01*
X12855500Y-30099000D01*
X12852355Y-30059035D01*
X12847510Y-30028442D01*
X12843595Y-30008761D01*
X12801859Y-29918227D01*
X12792868Y-29905852D01*
X12765898Y-29868730D01*
X12765895Y-29868727D01*
X12757355Y-29859489D01*
X12725124Y-29824622D01*
X12638143Y-29775912D01*
X12600745Y-29763761D01*
X12579947Y-29757003D01*
X12501003Y-29744500D01*
X12501000Y-29744500D01*
X11649500Y-29744500D01*
X11591309Y-29725593D01*
X11555345Y-29676093D01*
X11550500Y-29645500D01*
X11550500Y-29065180D01*
X11555343Y-29034594D01*
X11559465Y-29021905D01*
X11595423Y-28972406D01*
X11597795Y-28970684D01*
X11599563Y-28969400D01*
X11657743Y-28950500D01*
X14539729Y-28950500D01*
X14565352Y-28953873D01*
G37*
%TD.AperFunction*%
%TA.AperFunction,Conductor*%
G36*
X3321531Y-21253204D02*
G01*
X3323549Y-21253828D01*
X3367402Y-21281644D01*
X3370691Y-21285245D01*
X3383327Y-21302507D01*
X3391296Y-21316309D01*
X3399525Y-21330562D01*
X3469438Y-21400475D01*
X3469440Y-21400476D01*
X3498288Y-21417132D01*
X3519883Y-21441115D01*
X3554192Y-21449692D01*
X3555795Y-21450106D01*
X3650565Y-21475500D01*
X4340288Y-21475500D01*
X4370879Y-21480344D01*
X4394105Y-21487891D01*
X4433514Y-21512040D01*
X4454990Y-21533514D01*
X4461983Y-21540507D01*
X4461989Y-21540512D01*
X4584779Y-21611404D01*
X4587171Y-21612891D01*
X4587512Y-21612982D01*
X4587515Y-21612984D01*
X4727525Y-21650500D01*
X4727526Y-21650500D01*
X4872474Y-21650500D01*
X4872475Y-21650500D01*
X5012485Y-21612984D01*
X5012486Y-21612983D01*
X5012488Y-21612982D01*
X5012489Y-21612982D01*
X5087421Y-21569719D01*
X5095033Y-21568101D01*
X5116334Y-21558620D01*
X5127479Y-21556251D01*
X5143072Y-21557889D01*
X5147267Y-21556998D01*
X5151183Y-21558741D01*
X5188329Y-21562645D01*
X5233799Y-21603585D01*
X5236235Y-21607804D01*
X5249500Y-21657306D01*
X5249500Y-21664678D01*
X5249500Y-21664682D01*
X5249501Y-21664684D01*
X5264033Y-21737736D01*
X5264036Y-21737745D01*
X5271214Y-21748487D01*
X5276878Y-21756965D01*
X5289843Y-21785088D01*
X5294043Y-21799982D01*
X5292915Y-21857449D01*
X5289819Y-21866977D01*
X5289813Y-21866989D01*
X5289813Y-21866995D01*
X5289804Y-21867006D01*
X5277981Y-21891384D01*
X5264037Y-21912252D01*
X5264032Y-21912266D01*
X5249500Y-21985320D01*
X5249500Y-22934678D01*
X5249500Y-22934682D01*
X5249501Y-22934684D01*
X5264033Y-23007736D01*
X5264036Y-23007745D01*
X5264037Y-23007746D01*
X5276878Y-23026965D01*
X5289843Y-23055088D01*
X5294043Y-23069982D01*
X5292915Y-23127449D01*
X5289819Y-23136977D01*
X5277981Y-23161384D01*
X5264037Y-23182252D01*
X5264032Y-23182266D01*
X5249500Y-23255320D01*
X5249500Y-24204678D01*
X5261706Y-24266041D01*
X5264033Y-24277736D01*
X5264036Y-24277745D01*
X5264037Y-24277746D01*
X5276878Y-24296965D01*
X5289843Y-24325088D01*
X5294043Y-24339982D01*
X5292915Y-24397449D01*
X5289819Y-24406977D01*
X5277981Y-24431384D01*
X5264037Y-24452252D01*
X5264032Y-24452266D01*
X5249500Y-24525320D01*
X5249500Y-25474678D01*
X5264033Y-25547737D01*
X5264035Y-25547742D01*
X5317275Y-25627424D01*
X5319397Y-25630599D01*
X5319400Y-25630602D01*
X5319403Y-25630604D01*
X5319405Y-25630606D01*
X5357276Y-25655910D01*
X5402260Y-25685966D01*
X5457807Y-25697015D01*
X5457808Y-25697015D01*
X5469240Y-25699289D01*
X5471405Y-25699863D01*
X5473579Y-25700216D01*
X5475152Y-25700500D01*
X5475326Y-25700500D01*
X5475327Y-25700500D01*
X7024673Y-25700500D01*
X7024674Y-25700500D01*
X7097740Y-25685966D01*
X7147467Y-25652738D01*
X7175586Y-25639776D01*
X7186558Y-25636682D01*
X7247693Y-25639086D01*
X7295729Y-25676947D01*
X7297804Y-25680051D01*
X7314500Y-25735070D01*
X7314500Y-27024678D01*
X7329033Y-27097737D01*
X7329035Y-27097742D01*
X7380988Y-27175498D01*
X7384397Y-27180599D01*
X7384400Y-27180602D01*
X7465032Y-27234477D01*
X7466917Y-27235813D01*
X7467258Y-27235964D01*
X7467260Y-27235966D01*
X7495034Y-27241490D01*
X7522807Y-27247015D01*
X7522808Y-27247015D01*
X7534240Y-27249289D01*
X7536405Y-27249863D01*
X7538579Y-27250216D01*
X7540152Y-27250500D01*
X7540326Y-27250500D01*
X7936704Y-27250500D01*
X7967292Y-27255343D01*
X7978129Y-27258865D01*
X8027629Y-27294826D01*
X8046539Y-27353016D01*
X8046539Y-27357890D01*
X8033275Y-27407391D01*
X7987018Y-27487506D01*
X7987017Y-27487509D01*
X7987017Y-27487510D01*
X7949500Y-27627525D01*
X7949500Y-27772474D01*
X7982585Y-27895949D01*
X7987018Y-27912493D01*
X8059485Y-28038008D01*
X8059487Y-28038010D01*
X8059489Y-28038012D01*
X8059491Y-28038015D01*
X8161985Y-28140509D01*
X8161987Y-28140510D01*
X8162094Y-28140617D01*
X8162345Y-28140803D01*
X8164538Y-28141984D01*
X8226948Y-28178016D01*
X8284757Y-28211392D01*
X8287170Y-28212890D01*
X8287508Y-28212980D01*
X8287511Y-28212982D01*
X8287512Y-28212982D01*
X8287515Y-28212984D01*
X8427525Y-28250500D01*
X8427526Y-28250500D01*
X8572474Y-28250500D01*
X8572475Y-28250500D01*
X8712485Y-28212984D01*
X8712486Y-28212982D01*
X8712488Y-28212982D01*
X8712489Y-28212982D01*
X8831872Y-28144056D01*
X8834770Y-28142648D01*
X8835560Y-28142128D01*
X8840561Y-28139039D01*
X8841860Y-28138288D01*
X8847221Y-28131302D01*
X8856022Y-28122501D01*
X8862949Y-28115574D01*
X8887997Y-28097379D01*
X8909763Y-28086288D01*
X8954705Y-28075500D01*
X10637740Y-28075500D01*
X10668328Y-28080343D01*
X10679165Y-28083865D01*
X10728665Y-28119826D01*
X10747575Y-28178016D01*
X10747575Y-28182890D01*
X10734311Y-28232391D01*
X10680203Y-28326106D01*
X10680202Y-28326108D01*
X10680202Y-28326109D01*
X10655020Y-28420093D01*
X10649500Y-28440693D01*
X10649500Y-29645500D01*
X10630593Y-29703691D01*
X10581093Y-29739655D01*
X10550500Y-29744500D01*
X6163797Y-29744500D01*
X6107452Y-29752971D01*
X6088670Y-29755795D01*
X6063944Y-29763401D01*
X6033024Y-29772914D01*
X6033022Y-29772915D01*
X6033017Y-29772916D01*
X5981556Y-29795186D01*
X5906263Y-29860524D01*
X5868765Y-29908868D01*
X5868754Y-29908884D01*
X5837787Y-29960321D01*
X5837786Y-29960324D01*
X5815276Y-30057436D01*
X5815276Y-30057441D01*
X5813354Y-30118597D01*
X5823371Y-30197894D01*
X5823372Y-30197899D01*
X5841068Y-30258807D01*
X5844999Y-30286427D01*
X5844999Y-31113567D01*
X5841068Y-31141187D01*
X5820756Y-31211101D01*
X5810900Y-31233876D01*
X5785682Y-31276520D01*
X5776049Y-31292808D01*
X5760839Y-31312417D01*
X5712417Y-31360839D01*
X5692808Y-31376048D01*
X5633877Y-31410900D01*
X5611103Y-31420756D01*
X5541191Y-31441068D01*
X5513570Y-31444999D01*
X4186431Y-31444999D01*
X4158811Y-31441068D01*
X4088897Y-31420756D01*
X4066123Y-31410901D01*
X4065269Y-31410396D01*
X4007185Y-31376045D01*
X3987584Y-31360842D01*
X3949667Y-31322925D01*
X3902498Y-31285741D01*
X3902497Y-31285740D01*
X3902494Y-31285738D01*
X3863092Y-31261593D01*
X3863091Y-31261592D01*
X3844890Y-31252318D01*
X3827369Y-31243391D01*
X3729593Y-31223942D01*
X3668404Y-31223942D01*
X3608763Y-31231001D01*
X3518224Y-31272739D01*
X3468730Y-31308698D01*
X3468727Y-31308701D01*
X3424622Y-31349473D01*
X3424621Y-31349474D01*
X3409739Y-31376049D01*
X3375912Y-31436454D01*
X3374535Y-31440692D01*
X3357003Y-31494649D01*
X3344500Y-31573593D01*
X3344500Y-33161047D01*
X3325593Y-33219238D01*
X3276093Y-33255202D01*
X3214907Y-33255202D01*
X3210904Y-33253805D01*
X3087428Y-33207752D01*
X3083939Y-33206234D01*
X3083025Y-33205996D01*
X3080927Y-33205540D01*
X3077206Y-33205341D01*
X3060312Y-33203524D01*
X3051249Y-33202550D01*
X3051248Y-33202549D01*
X3022876Y-33199500D01*
X3022873Y-33199500D01*
X3022870Y-33199500D01*
X1977133Y-33199500D01*
X1977129Y-33199500D01*
X1968938Y-33199500D01*
X1962974Y-33201022D01*
X1922795Y-33205341D01*
X1912214Y-33205908D01*
X1909054Y-33205908D01*
X1897349Y-33213431D01*
X1896607Y-33213708D01*
X1892734Y-33215152D01*
X1892729Y-33215154D01*
X1823788Y-33240867D01*
X1793427Y-33247018D01*
X1783424Y-33247446D01*
X1782042Y-33247506D01*
X1723096Y-33231103D01*
X1685050Y-33183188D01*
X1681740Y-33174312D01*
X1675500Y-33139720D01*
X1675500Y-27227766D01*
X1680347Y-27197169D01*
X1683868Y-27186334D01*
X1719834Y-27136836D01*
X1778021Y-27117931D01*
X1787489Y-27117931D01*
X1822085Y-27124173D01*
X1942511Y-27169089D01*
X1942512Y-27169089D01*
X1942517Y-27169091D01*
X2002127Y-27175500D01*
X2997872Y-27175499D01*
X3057483Y-27169091D01*
X3190766Y-27119379D01*
X3194011Y-27118235D01*
X3197582Y-27117046D01*
X3205164Y-27109189D01*
X3307546Y-27032546D01*
X3393796Y-26917331D01*
X3444091Y-26782483D01*
X3450500Y-26722873D01*
X3450499Y-26102128D01*
X3444091Y-26042517D01*
X3444090Y-26042514D01*
X3444090Y-26042512D01*
X3393798Y-25907671D01*
X3371998Y-25878551D01*
X3309156Y-25794605D01*
X3307807Y-25792696D01*
X3307637Y-25792522D01*
X3227911Y-25732839D01*
X3227910Y-25732838D01*
X3219240Y-25726348D01*
X3192329Y-25706202D01*
X3059288Y-25656581D01*
X3057965Y-25655983D01*
X3055927Y-25655540D01*
X3052206Y-25655341D01*
X3035312Y-25653524D01*
X3026249Y-25652550D01*
X3026248Y-25652549D01*
X2997876Y-25649500D01*
X2997873Y-25649500D01*
X2997870Y-25649500D01*
X2002133Y-25649500D01*
X2002129Y-25649500D01*
X1993938Y-25649500D01*
X1987975Y-25651021D01*
X1979069Y-25651978D01*
X1942520Y-25655907D01*
X1942502Y-25655913D01*
X1823786Y-25700191D01*
X1793431Y-25706342D01*
X1782050Y-25706830D01*
X1723103Y-25690433D01*
X1685052Y-25642521D01*
X1682875Y-25636682D01*
X1681738Y-25633632D01*
X1675500Y-25599046D01*
X1675500Y-23227766D01*
X1680347Y-23197169D01*
X1683868Y-23186334D01*
X1719834Y-23136836D01*
X1778021Y-23117931D01*
X1787489Y-23117931D01*
X1822085Y-23124173D01*
X1942511Y-23169089D01*
X1942512Y-23169089D01*
X1942517Y-23169091D01*
X2002127Y-23175500D01*
X2009813Y-23175499D01*
X2040404Y-23180341D01*
X2053092Y-23184463D01*
X2102594Y-23220424D01*
X2102596Y-23220427D01*
X2105591Y-23224549D01*
X2124500Y-23282739D01*
X2124500Y-23449436D01*
X2130673Y-23472472D01*
X2130673Y-23472475D01*
X2130674Y-23472475D01*
X2150091Y-23544942D01*
X2199523Y-23630559D01*
X2199525Y-23630562D01*
X2269438Y-23700475D01*
X2269440Y-23700476D01*
X2269990Y-23700873D01*
X2272001Y-23701954D01*
X2298288Y-23717132D01*
X2319883Y-23741115D01*
X2354192Y-23749692D01*
X2355795Y-23750106D01*
X2450565Y-23775500D01*
X2549435Y-23775500D01*
X2840288Y-23775500D01*
X2870879Y-23780344D01*
X2894105Y-23787891D01*
X2933514Y-23812040D01*
X2959762Y-23838286D01*
X2961983Y-23840507D01*
X2961989Y-23840512D01*
X3084779Y-23911404D01*
X3087171Y-23912891D01*
X3087512Y-23912982D01*
X3087515Y-23912984D01*
X3227525Y-23950500D01*
X3227526Y-23950500D01*
X3372474Y-23950500D01*
X3372475Y-23950500D01*
X3512485Y-23912984D01*
X3512486Y-23912983D01*
X3512488Y-23912982D01*
X3512489Y-23912982D01*
X3631880Y-23844051D01*
X3634768Y-23842648D01*
X3635554Y-23842131D01*
X3640563Y-23839037D01*
X3641862Y-23838286D01*
X3647220Y-23831303D01*
X3740509Y-23738015D01*
X3752567Y-23717130D01*
X3812982Y-23612489D01*
X3812982Y-23612487D01*
X3812984Y-23612485D01*
X3850500Y-23472475D01*
X3850500Y-23327525D01*
X3812984Y-23187515D01*
X3812982Y-23187512D01*
X3812982Y-23187510D01*
X3812981Y-23187508D01*
X3812890Y-23187168D01*
X3811397Y-23184764D01*
X3741985Y-23064539D01*
X3740805Y-23062347D01*
X3740617Y-23062094D01*
X3740510Y-23061987D01*
X3740509Y-23061985D01*
X3638015Y-22959491D01*
X3638012Y-22959489D01*
X3638010Y-22959487D01*
X3638009Y-22959486D01*
X3538191Y-22901856D01*
X3533754Y-22899137D01*
X3492597Y-22872397D01*
X3454104Y-22824841D01*
X3451276Y-22817469D01*
X3445278Y-22771435D01*
X3450500Y-22722873D01*
X3450499Y-22102128D01*
X3444091Y-22042517D01*
X3417967Y-21972474D01*
X3393797Y-21907670D01*
X3309156Y-21794605D01*
X3307881Y-21792802D01*
X3307633Y-21792522D01*
X3307541Y-21792449D01*
X3192330Y-21706202D01*
X3192328Y-21706201D01*
X3062428Y-21657752D01*
X3058939Y-21656234D01*
X3058025Y-21655996D01*
X3055921Y-21655538D01*
X3052166Y-21655337D01*
X3052009Y-21655320D01*
X3049987Y-21655102D01*
X3020128Y-21647019D01*
X3009734Y-21642362D01*
X2964360Y-21601314D01*
X2951779Y-21541443D01*
X2951879Y-21540511D01*
X2952574Y-21534047D01*
X2965268Y-21495129D01*
X3012984Y-21412485D01*
X3012986Y-21412475D01*
X3015038Y-21407523D01*
X3023476Y-21391482D01*
X3035412Y-21373099D01*
X3037435Y-21371460D01*
X3038236Y-21368982D01*
X3061029Y-21352352D01*
X3082960Y-21334592D01*
X3083568Y-21334361D01*
X3093756Y-21330562D01*
X3168976Y-21302507D01*
X3192329Y-21293797D01*
X3192329Y-21293796D01*
X3192331Y-21293796D01*
X3220331Y-21272835D01*
X3229831Y-21267821D01*
X3232437Y-21265077D01*
X3236436Y-21264336D01*
X3247722Y-21258381D01*
X3260347Y-21254078D01*
X3321526Y-21253202D01*
X3321531Y-21253204D01*
G37*
%TD.AperFunction*%
%TA.AperFunction,Conductor*%
G36*
X3547977Y-11350050D02*
G01*
X3575104Y-11356728D01*
X3577254Y-11356393D01*
X3587151Y-11358508D01*
X3650565Y-11375500D01*
X3749435Y-11375500D01*
X5134820Y-11375500D01*
X5136667Y-11376100D01*
X5165408Y-11380343D01*
X5178095Y-11384466D01*
X5190782Y-11393682D01*
X5193011Y-11394407D01*
X5194454Y-11396350D01*
X5227595Y-11420427D01*
X5227596Y-11420428D01*
X5230591Y-11424550D01*
X5249500Y-11482740D01*
X5249500Y-11504674D01*
X5264034Y-11577740D01*
X5288179Y-11613877D01*
X5292336Y-11625814D01*
X5292512Y-11634256D01*
X5297181Y-11646956D01*
X5298027Y-11654246D01*
X5297095Y-11683341D01*
X5297036Y-11683666D01*
X5291633Y-11699119D01*
X5292301Y-11699336D01*
X5289815Y-11706985D01*
X5277980Y-11731385D01*
X5276877Y-11733036D01*
X5264036Y-11752254D01*
X5264034Y-11752260D01*
X5264032Y-11752266D01*
X5249500Y-11825320D01*
X5249500Y-12774678D01*
X5249500Y-12774682D01*
X5249501Y-12774684D01*
X5264033Y-12847736D01*
X5264036Y-12847745D01*
X5264037Y-12847746D01*
X5276878Y-12866965D01*
X5289843Y-12895088D01*
X5294043Y-12909982D01*
X5292915Y-12967449D01*
X5289819Y-12976977D01*
X5277981Y-13001384D01*
X5264037Y-13022252D01*
X5264032Y-13022266D01*
X5249500Y-13095320D01*
X5249500Y-14044678D01*
X5260599Y-14100476D01*
X5264033Y-14117736D01*
X5264036Y-14117745D01*
X5264037Y-14117746D01*
X5276878Y-14136965D01*
X5289843Y-14165088D01*
X5294043Y-14179982D01*
X5292915Y-14237449D01*
X5289819Y-14246977D01*
X5277981Y-14271384D01*
X5264037Y-14292252D01*
X5264032Y-14292266D01*
X5249500Y-14365320D01*
X5249500Y-15314678D01*
X5249500Y-15314682D01*
X5249501Y-15314684D01*
X5264033Y-15387736D01*
X5264036Y-15387745D01*
X5264037Y-15387746D01*
X5276878Y-15406965D01*
X5289843Y-15435088D01*
X5294043Y-15449982D01*
X5292915Y-15507449D01*
X5289819Y-15516977D01*
X5277981Y-15541384D01*
X5264037Y-15562252D01*
X5264032Y-15562266D01*
X5249500Y-15635320D01*
X5249500Y-16584678D01*
X5249500Y-16584682D01*
X5249501Y-16584684D01*
X5264033Y-16657736D01*
X5264036Y-16657745D01*
X5264037Y-16657746D01*
X5276878Y-16676965D01*
X5279735Y-16687097D01*
X5286475Y-16695184D01*
X5289842Y-16705086D01*
X5294043Y-16719982D01*
X5292915Y-16777449D01*
X5289819Y-16786977D01*
X5277981Y-16811384D01*
X5275749Y-16814723D01*
X5275748Y-16814725D01*
X5264036Y-16832254D01*
X5264033Y-16832263D01*
X5249501Y-16905315D01*
X5249500Y-16905327D01*
X5249500Y-16918527D01*
X5245807Y-16933132D01*
X5244654Y-16940412D01*
X5240532Y-16953098D01*
X5224379Y-16975332D01*
X5209761Y-16998555D01*
X5206588Y-16999824D01*
X5204580Y-17002589D01*
X5200459Y-17005584D01*
X5156402Y-17019905D01*
X5152954Y-17021286D01*
X5152506Y-17021172D01*
X5142271Y-17024500D01*
X4959712Y-17024500D01*
X4929118Y-17019654D01*
X4905892Y-17012107D01*
X4866485Y-16987959D01*
X4838021Y-16959497D01*
X4838016Y-16959492D01*
X4838010Y-16959487D01*
X4769774Y-16920091D01*
X4748741Y-16896730D01*
X4606182Y-16858532D01*
X4606182Y-16858531D01*
X4606180Y-16858531D01*
X4572477Y-16849500D01*
X4572475Y-16849500D01*
X4427525Y-16849500D01*
X4393822Y-16858531D01*
X4393818Y-16858532D01*
X4287509Y-16887017D01*
X4237578Y-16915845D01*
X4208664Y-16926944D01*
X4197520Y-16929313D01*
X4136670Y-16922919D01*
X4091200Y-16881979D01*
X4088760Y-16877753D01*
X4075500Y-16828259D01*
X4075500Y-15550567D01*
X4075499Y-15550563D01*
X4069990Y-15530000D01*
X4069990Y-15529999D01*
X4049818Y-15454719D01*
X4048322Y-15452310D01*
X4001957Y-15372004D01*
X4000875Y-15369994D01*
X4000476Y-15369440D01*
X4000475Y-15369438D01*
X3930562Y-15299525D01*
X3930559Y-15299523D01*
X3902228Y-15283166D01*
X3881193Y-15259803D01*
X3807886Y-15240160D01*
X3807886Y-15240161D01*
X3749435Y-15224500D01*
X3749433Y-15224500D01*
X2090180Y-15224500D01*
X2059587Y-15219654D01*
X2046901Y-15215532D01*
X1997401Y-15179568D01*
X1997394Y-15179558D01*
X1994400Y-15175436D01*
X1975500Y-15117256D01*
X1975500Y-15028139D01*
X1980345Y-14997548D01*
X1984827Y-14983753D01*
X2019091Y-14935515D01*
X2032030Y-14925684D01*
X2040168Y-14920414D01*
X2042327Y-14918797D01*
X2042331Y-14918796D01*
X2157546Y-14832546D01*
X2243796Y-14717331D01*
X2243798Y-14717327D01*
X2294089Y-14582488D01*
X2294090Y-14582485D01*
X2294091Y-14582483D01*
X2300500Y-14522873D01*
X2300499Y-13477128D01*
X2294091Y-13417517D01*
X2293351Y-13415532D01*
X2289645Y-13405594D01*
X2243798Y-13282671D01*
X2231461Y-13266191D01*
X2157549Y-13167458D01*
X2157548Y-13167457D01*
X2157546Y-13167454D01*
X2148425Y-13160626D01*
X2144837Y-13157940D01*
X2144826Y-13157931D01*
X2083250Y-13111835D01*
X2042333Y-13081204D01*
X2042331Y-13081203D01*
X2037769Y-13077788D01*
X2031530Y-13073651D01*
X2016255Y-13061518D01*
X1983041Y-13012562D01*
X1979711Y-13001512D01*
X1979365Y-12999167D01*
X1978799Y-12998290D01*
X1978918Y-12996134D01*
X1975500Y-12972947D01*
X1975500Y-12850566D01*
X1975499Y-12850562D01*
X1974744Y-12847746D01*
X1966040Y-12815263D01*
X1962803Y-12784461D01*
X1963447Y-12772172D01*
X1985375Y-12715053D01*
X2034194Y-12682435D01*
X2043846Y-12679576D01*
X2071963Y-12675499D01*
X2997867Y-12675499D01*
X2997872Y-12675499D01*
X3057483Y-12669091D01*
X3125088Y-12643876D01*
X3190750Y-12619385D01*
X3194009Y-12618237D01*
X3197581Y-12617048D01*
X3205164Y-12609189D01*
X3307546Y-12532546D01*
X3393796Y-12417331D01*
X3444091Y-12282483D01*
X3450500Y-12222873D01*
X3450499Y-11602128D01*
X3444091Y-11542517D01*
X3429980Y-11504684D01*
X3429978Y-11504678D01*
X3423802Y-11488117D01*
X3417651Y-11457767D01*
X3417250Y-11448413D01*
X3433646Y-11389468D01*
X3481559Y-11351416D01*
X3539824Y-11348043D01*
X3547977Y-11350050D01*
G37*
%TD.AperFunction*%
%TD*%
M02*
