M48
; DRILL file KiCad 10.0.6 date 2026-10-01T17:26:23
; FORMAT={-:-/ absolute / metric / decimal}
; #@! TF.CreationDate,2026-10-01T17:26:23+07:00
; #@! TF.GenerationSoftware,Kicad,Pcbnew,10.0.6
; #@! TF.FileFunction,Plated,1,2,PTH
FMAT,2
METRIC
; #@! TA.AperFunction,Plated,PTH,ViaDrill
T1C0.300
; #@! TA.AperFunction,Plated,PTH,ComponentDrill
T2C0.300
%
G90
G05
T1
X1.0Y-16.0
X1.0Y-16.75
X1.6Y-8.0
X2.175Y-31.753
X2.2Y-28.2
X2.2Y-28.8
X2.5Y-11.9
X2.5Y-17.2
X2.5Y-21.2
X2.5Y-26.4
X2.5Y-31.0
X2.5Y-39.2
X2.713Y-13.098
X2.9Y-20.6
X2.95Y-41.912
X3.3Y-23.4
X3.425Y-36.2
X3.5Y-8.0
X3.5Y-13.2
X3.5Y-14.0
X3.5Y-37.0
X4.0Y-9.8
X4.0Y-35.3
X4.2Y-24.9
X4.5Y-8.0
X4.5Y-12.0
X4.5Y-13.0
X4.5Y-14.0
X4.5Y-15.0
X4.5Y-17.4
X4.5Y-23.0
X4.5Y-24.0
X4.5Y-26.0
X4.8Y-19.3
X4.8Y-21.1
X5.5Y-8.0
X6.2Y-9.8
X6.2Y-17.4
X6.5Y-27.0
X6.5Y-28.0
X6.5Y-29.0
X6.5Y-37.0
X6.5Y-38.0
X6.5Y-42.0
X6.5Y-43.0
X6.8Y-34.0
X7.5Y-28.0
X7.5Y-29.0
X7.5Y-38.0
X7.5Y-42.0
X7.5Y-43.0
X7.6Y-45.5
X7.7Y-19.9
X8.0Y-10.0
X8.5Y-12.0
X8.5Y-13.0
X8.5Y-14.0
X8.5Y-15.0
X8.5Y-16.0
X8.5Y-17.0
X8.5Y-18.0
X8.5Y-21.9
X8.5Y-27.7
X9.3Y-20.3
X9.3Y-22.9
X9.3Y-44.8
X9.5Y-11.0
X9.5Y-12.0
X9.5Y-13.0
X9.5Y-14.0
X9.5Y-15.0
X9.5Y-16.0
X9.5Y-17.0
X9.5Y-18.0
X9.5Y-19.0
X10.1Y-24.8
X10.5Y-11.0
X10.5Y-12.0
X10.5Y-13.0
X10.5Y-14.0
X10.5Y-15.0
X10.5Y-16.0
X10.5Y-17.0
X10.5Y-18.0
X10.5Y-19.0
X10.5Y-20.0
X10.5Y-22.0
X10.5Y-23.0
X10.5Y-42.0
X10.5Y-43.0
X10.6Y-26.9
X11.1Y-34.3
X11.5Y-15.0
X11.5Y-16.0
X11.5Y-17.0
X11.5Y-18.0
X11.5Y-19.0
X11.5Y-20.0
X11.5Y-22.0
X11.5Y-23.0
X11.5Y-24.0
X11.5Y-35.0
X11.5Y-38.0
X11.5Y-42.0
X11.5Y-43.0
X11.85Y-34.25
X12.0Y-10.0
X12.5Y-19.0
X12.5Y-24.0
X12.5Y-35.0
X12.5Y-36.2
X12.5Y-37.0
X12.5Y-38.0
X12.5Y-39.0
X12.5Y-40.0
X12.5Y-41.0
X12.5Y-42.0
X12.5Y-43.0
X12.8Y-22.4
X13.0Y-24.7
X13.5Y-11.0
X13.5Y-12.0
X13.5Y-19.0
X13.5Y-23.0
X13.5Y-24.0
X13.5Y-31.0
X13.5Y-37.0
X13.5Y-38.0
X13.5Y-39.0
X13.5Y-40.0
X13.5Y-41.0
X13.5Y-42.0
X13.5Y-43.0
X13.9Y-24.7
X14.0Y-35.8
X14.0Y-45.5
X14.5Y-8.0
X14.5Y-11.0
X14.5Y-12.0
X14.5Y-31.0
X14.5Y-37.0
X14.5Y-38.0
X14.5Y-42.0
X14.5Y-43.0
X14.8Y-33.3
X14.9Y-28.5
X15.1Y-46.5
X15.5Y-8.0
X15.5Y-39.2
X15.5Y-42.0
X15.5Y-43.1
X15.9Y-19.4
X15.9Y-24.7
X16.5Y-8.0
X16.5Y-22.0
X16.5Y-23.0
X16.5Y-24.0
X17.0Y-28.9
X17.5Y-8.0
X17.5Y-9.0
X17.5Y-11.0
X17.5Y-12.0
X17.5Y-13.0
X17.5Y-14.0
X17.5Y-15.0
X17.5Y-16.0
X17.5Y-17.0
X17.5Y-18.0
X17.5Y-19.0
X17.5Y-23.0
X17.5Y-24.0
X17.5Y-36.0
X17.5Y-37.0
X18.4Y-30.3
X18.5Y-8.0
X18.5Y-9.0
X18.5Y-10.0
X18.5Y-11.0
X18.5Y-12.0
X18.5Y-13.0
X18.5Y-14.0
X18.5Y-15.0
X18.5Y-16.0
X18.5Y-17.0
X18.5Y-18.0
X18.5Y-19.0
X18.5Y-23.0
X18.5Y-24.0
X18.5Y-40.0
X18.5Y-41.0
X18.5Y-42.0
X18.5Y-43.0
X19.0Y-32.4
X19.5Y-8.0
X19.5Y-9.0
X19.5Y-10.0
X19.5Y-11.0
X19.5Y-12.0
X19.5Y-13.0
X19.5Y-14.0
X19.5Y-15.0
X19.5Y-16.0
X19.5Y-17.0
X19.5Y-18.0
X19.5Y-19.0
X19.5Y-20.0
X19.5Y-22.0
X19.5Y-23.0
X19.5Y-24.0
X19.5Y-28.0
X19.5Y-29.0
X19.5Y-30.0
X19.5Y-36.0
X19.5Y-37.0
X19.5Y-39.0
X19.5Y-40.0
X19.5Y-41.0
X19.5Y-42.0
X19.5Y-43.0
X20.4Y-38.0
X20.5Y-8.0
X20.5Y-9.0
X20.5Y-10.0
X20.5Y-11.0
X20.5Y-12.0
X20.5Y-13.0
X20.5Y-14.0
X20.5Y-15.0
X20.5Y-16.0
X20.5Y-17.0
X20.5Y-18.0
X20.5Y-19.0
X20.5Y-20.0
X20.5Y-22.0
X20.5Y-23.0
X20.5Y-24.0
X20.5Y-28.0
X20.5Y-29.0
X20.5Y-30.0
X20.5Y-34.9
X20.5Y-36.0
X20.5Y-37.0
X20.5Y-39.0
X20.5Y-40.0
X20.5Y-41.0
X20.5Y-42.0
X20.5Y-43.0
X21.5Y-8.0
X21.5Y-9.0
X21.5Y-10.0
X21.5Y-11.0
X21.5Y-12.0
X21.5Y-13.0
X21.5Y-14.0
X21.5Y-15.0
X21.5Y-16.0
X21.5Y-17.0
X21.5Y-18.0
X21.5Y-19.0
X21.5Y-20.0
X21.5Y-22.0
X21.5Y-23.0
X21.5Y-24.0
X21.5Y-28.0
X21.5Y-29.0
X21.5Y-30.0
X21.5Y-36.0
X21.5Y-37.0
X21.5Y-38.0
X21.5Y-39.0
X21.5Y-40.0
X21.5Y-41.0
X21.5Y-42.0
X21.5Y-43.0
X22.5Y-8.0
X22.5Y-9.0
X22.5Y-28.0
X22.5Y-29.0
X22.5Y-30.0
X22.5Y-31.0
X22.5Y-32.0
X22.5Y-33.0
X22.5Y-34.0
X22.5Y-36.0
X22.5Y-37.0
X22.5Y-38.0
X22.5Y-39.0
X22.5Y-40.0
X22.5Y-41.0
X22.5Y-42.0
X22.5Y-43.0
X22.5Y-44.0
X23.1Y-34.9
X23.5Y-27.0
X23.5Y-28.0
X23.5Y-29.0
X23.5Y-30.0
X23.5Y-31.0
X23.5Y-32.0
X23.5Y-33.0
X23.5Y-37.0
X23.5Y-38.0
X23.5Y-39.0
X23.5Y-41.0
X23.7Y-8.5
X24.5Y-8.0
X24.5Y-27.0
X24.5Y-28.0
X24.5Y-29.0
X24.5Y-30.0
X24.6Y-40.4
X25.2Y-21.1
X25.3Y-18.0
X25.5Y-8.0
X25.5Y-9.0
X25.5Y-13.0
X25.5Y-15.0
X25.5Y-16.0
X25.5Y-17.0
X25.5Y-19.0
X25.5Y-20.0
X25.5Y-26.0
X25.5Y-27.0
X25.5Y-28.0
X25.5Y-29.0
X25.5Y-30.0
X25.5Y-32.4
X25.5Y-42.0
X26.5Y-8.0
X26.5Y-12.0
X26.5Y-16.0
X26.5Y-20.0
X26.5Y-21.0
X26.5Y-22.0
X26.5Y-23.0
X26.5Y-24.0
X26.5Y-25.0
X26.5Y-26.0
X26.5Y-27.0
X26.5Y-28.0
X26.5Y-29.0
X26.5Y-30.0
X27.0Y-37.3
X27.5Y-8.0
X27.5Y-12.0
X27.5Y-16.0
X27.5Y-18.0
X27.5Y-20.0
X27.5Y-21.0
X27.5Y-22.0
X27.5Y-23.0
X27.5Y-24.0
X27.5Y-25.0
X27.5Y-26.0
X27.5Y-27.0
X27.5Y-28.0
X27.5Y-29.0
X27.5Y-30.0
X28.0Y-31.5
X28.0Y-36.2
X28.0Y-45.5
X28.5Y-8.0
X28.5Y-12.0
X28.5Y-16.0
X28.5Y-20.0
X28.5Y-21.0
X28.5Y-22.0
X28.5Y-23.0
X28.5Y-24.0
X28.5Y-25.0
X28.5Y-26.0
X28.5Y-27.0
X28.5Y-28.0
X28.5Y-29.0
X28.5Y-30.0
X28.5Y-33.0
X28.5Y-34.0
X28.5Y-35.0
X28.5Y-37.0
X28.5Y-39.0
X28.5Y-40.0
X28.5Y-41.0
X28.5Y-42.0
X28.5Y-43.0
T2
X12.1Y-15.51
X12.1Y-16.91
X12.8Y-14.81
X12.8Y-16.21
X12.8Y-17.61
X13.5Y-15.51
X13.5Y-16.91
X14.2Y-14.81
X14.2Y-16.21
X14.2Y-17.61
X14.9Y-15.51
X14.9Y-16.91
M30
